<svg width="562" height="682" viewBox="0 0 562 682" fill="none" xmlns="http://www.w3.org/2000/svg">
<path fill-rule="evenodd" clip-rule="evenodd" d="M312.952 0.0818574C207.641 -1.26083 88.323 75.1475 64.4398 207.529H259.738C262.515 192.143 276.383 183.261 288.623 183.417L312.952 0.0818574ZM342.395 0.0724898H557.18C559.748 0.0724898 561.734 2.32696 561.41 4.87494L535.574 207.521L340.224 207.52C341.76 194.293 332.286 183.552 319.022 183.408L342.395 0.0724898Z" fill="#4E46CF"/>
<path d="M255.677 236.578H58.9822L32.374 444.026H253.345L276.86 260.69C263.606 260.535 254.14 249.799 255.677 236.578Z" fill="#7260DE"/>
<path d="M530.133 236.578H336.309C333.532 251.965 319.664 260.846 307.423 260.69L284.05 444.026H498.053C501.273 444.026 503.99 441.634 504.397 438.44L530.133 236.578Z" fill="#7260DE"/>
<path d="M26.5661 473.07H247.537L221.645 674.938C221.236 678.129 218.519 680.519 215.302 680.519H4.8021C2.2333 680.519 0.249449 678.264 0.574192 675.716L26.5661 473.07Z" fill="#AA55FF"/>
<path fill-rule="evenodd" clip-rule="evenodd" d="M313.305 0.423175C207.943 -0.920174 88.5664 75.5257 64.6715 207.973H260.065C262.843 192.578 276.718 183.692 288.965 183.849L313.305 0.423175ZM342.763 0.413802H557.653C560.223 0.413802 562.21 2.66938 561.885 5.21862L536.037 207.964L340.591 207.963C342.128 194.73 332.65 183.984 319.379 183.839L342.763 0.413802ZM256.002 237.035H59.2106L32.5894 444.585H253.669L277.195 261.159C263.935 261.004 254.465 250.262 256.002 237.035ZM26.7786 473.643H247.858L221.953 675.609C221.544 678.802 218.826 681.194 215.607 681.194H5.0039C2.43384 681.194 0.449013 678.938 0.773916 676.389L26.7786 473.643ZM530.593 237.035H336.673C333.895 252.429 320.02 261.315 307.774 261.159L284.389 444.585H498.498C501.718 444.585 504.437 442.191 504.844 438.996L530.593 237.035Z" fill="white"/>
</svg>
