<svg width="564" height="683" viewBox="0 0 564 683" fill="none" xmlns="http://www.w3.org/2000/svg">
<rect width="562.181" height="682" fill="#4D41B1"/>
<path d="M27.086 475.08H248.559L222.608 677.406C222.198 680.604 219.475 683 216.251 683H5.27248C2.69784 683 0.709483 680.74 1.03496 678.187L27.086 475.08Z" fill="white"/>
<path d="M256.717 238.05H59.5758L32.9072 445.97H254.381L277.949 262.217C264.665 262.062 255.178 251.301 256.717 238.05Z" fill="white"/>
<path d="M531.797 238.05H337.533C334.749 253.472 320.85 262.374 308.582 262.217L285.155 445.97H499.645C502.871 445.97 505.595 443.572 506.003 440.371L531.797 238.05Z" fill="white"/>
<path fill-rule="evenodd" clip-rule="evenodd" d="M314.124 1.01744C208.574 -0.328296 88.9844 76.2537 65.0469 208.936H260.788C263.572 193.515 277.471 184.613 289.74 184.769L314.124 1.01744ZM343.634 1.00805H558.906C561.481 1.00805 563.472 3.26765 563.146 5.82142L537.251 208.928L341.458 208.927C342.998 195.67 333.502 184.905 320.208 184.76L343.634 1.00805Z" fill="white"/>
</svg>
