<svg width="1134" height="609" viewBox="0 0 1134 609" fill="none" xmlns="http://www.w3.org/2000/svg">
<path d="M623.613 465.839L666.433 141.464H728.192L736.904 175.354C768.581 153.892 802.691 137.228 841.838 137.228C862.424 137.228 878.872 141.262 891.182 149.331C903.885 156.997 914.075 169.1 921.751 185.642C951.788 158.961 1004.02 137.228 1045.28 137.228C1075.55 137.228 1097.52 144.086 1111.18 157.804C1125.24 171.118 1132.57 190.281 1133.19 215.295C1133.55 229.711 1132.95 244.687 1130.64 258.868L1103.08 465.839H1028L1055.61 260.684C1056.3 256.246 1056.59 251.404 1056.46 246.16C1055.77 218.321 1039.88 204.402 1008.8 204.402C980.798 204.402 944.557 221.032 922.405 236.477C923.547 245.619 922.977 255.358 921.279 264.315L894.184 465.839H819.709L846.184 263.71C846.901 260.079 847.23 257.053 847.17 254.632C847.503 251.808 847.63 248.782 847.55 245.554C847.23 232.644 843.347 222.558 835.901 215.295C828.456 208.033 816.66 204.402 800.513 204.402C773.317 204.402 751.991 220.027 729.882 234.056L698.693 465.839H623.613Z" fill="white"/>
<path d="M249.046 609L310.378 152.091C334.891 147.653 359.631 144.223 384.597 141.803C409.554 138.978 437.169 137.566 467.444 137.566C504.58 137.566 531.658 147.048 548.678 166.01C566.102 184.972 575.289 213.617 576.239 251.945C576.489 262.031 576.144 272.521 575.203 283.414C574.262 294.307 573.119 305.201 571.774 316.094C564.951 366.525 548.943 404.652 523.749 430.472C498.555 456.293 465.573 469.204 424.804 469.204C409.061 469.204 394.5 467.993 381.119 465.573C367.738 463.152 355.534 459.319 344.505 454.074L324.126 609H249.046ZM414.752 405.66C440.586 405.66 459.953 397.188 472.854 380.243C485.755 363.298 494.787 336.872 499.952 300.964C500.629 295.72 501.292 289.869 501.939 283.414C502.586 276.959 502.835 270.706 502.685 264.654C502.135 242.464 497.486 225.922 488.739 215.029C480.386 203.733 467.127 198.084 448.963 198.084L378.742 198.689L352.117 394.767C363.509 398.398 373.469 401.222 381.996 403.239C390.916 404.853 401.835 405.66 414.752 405.66Z" fill="white"/>
<path d="M29.2692 465.576L63.9165 202.324H0.23291L6.90408 153.909L72.0891 141.201L79.3658 92.7865C81.7313 74.2277 86.5788 58.0897 93.9083 44.3723C101.631 30.2515 112.866 19.3583 127.611 11.6927C142.76 4.02713 162.848 0.194336 187.874 0.194336C201.195 0.194336 231.39 0.799518 244.337 2.00988C257.274 2.81678 276.935 4.02713 286.259 5.64094L279.133 60.1069H202.075C183.91 60.1069 171.305 64.5449 164.259 73.4209C157.203 81.8933 152.684 95.0055 150.703 112.757L147.169 141.201H250.209L242.037 202.324H138.997L103.744 465.576H29.2692Z" fill="white"/>
</svg>
