<svg width="1134" height="609" viewBox="0 0 1134 609" fill="none" xmlns="http://www.w3.org/2000/svg">
<rect x="0.469727" y="0.0947266" width="1133.06" height="608.81" fill="#4D41B1"/>
<path d="M623.875 465.839L666.695 141.464H728.454L737.166 175.354C768.843 153.892 802.953 137.228 842.1 137.228C862.686 137.228 879.134 141.262 891.444 149.331C904.147 156.997 914.337 169.1 922.013 185.642C952.05 158.961 1004.28 137.228 1045.54 137.228C1075.82 137.228 1097.78 144.086 1111.45 157.804C1125.5 171.118 1132.84 190.281 1133.46 215.295C1133.81 229.711 1133.21 244.687 1130.9 258.868L1103.34 465.839H1028.26L1055.87 260.684C1056.57 256.246 1056.85 251.404 1056.72 246.16C1056.03 218.321 1040.14 204.402 1009.06 204.402C981.061 204.402 944.819 221.032 922.668 236.477C923.809 245.619 923.239 255.358 921.541 264.315L894.446 465.839H819.971L846.446 263.71C847.163 260.079 847.492 257.053 847.432 254.632C847.766 251.808 847.892 248.782 847.812 245.554C847.492 232.644 843.609 222.558 836.164 215.295C828.718 208.033 816.922 204.402 800.776 204.402C773.579 204.402 752.253 220.027 730.144 234.056L698.955 465.839H623.875Z" fill="white"/>
<path d="M249.308 609L310.64 152.091C335.153 147.653 359.893 144.223 384.859 141.803C409.816 138.978 437.431 137.566 467.706 137.566C504.842 137.566 531.92 147.048 548.94 166.01C566.364 184.972 575.551 213.617 576.501 251.945C576.751 262.031 576.406 272.521 575.465 283.414C574.524 294.307 573.381 305.201 572.036 316.094C565.213 366.525 549.205 404.652 524.011 430.472C498.817 456.293 465.835 469.204 425.066 469.204C409.323 469.204 394.762 467.993 381.381 465.573C368 463.152 355.796 459.319 344.767 454.074L324.388 609H249.308ZM415.014 405.66C440.848 405.66 460.215 397.188 473.116 380.243C486.016 363.298 495.049 336.872 500.214 300.964C500.891 295.72 501.554 289.869 502.201 283.414C502.848 276.959 503.097 270.706 502.947 264.654C502.397 242.464 497.748 225.922 489.001 215.029C480.648 203.733 467.389 198.084 449.225 198.084L379.004 198.689L352.379 394.767C363.771 398.398 373.731 401.222 382.258 403.239C391.178 404.853 402.097 405.66 415.014 405.66Z" fill="white"/>
<path d="M29.5315 465.576L64.1787 202.324H0.495117L7.16629 153.909L72.3513 141.201L79.628 92.7865C81.9935 74.2277 86.841 58.0897 94.1705 44.3723C101.894 30.2515 113.128 19.3583 127.873 11.6927C143.022 4.02713 163.11 0.194336 188.137 0.194336C201.457 0.194336 231.652 0.799518 244.599 2.00988C257.536 2.81678 277.198 4.02713 286.522 5.64094L279.395 60.1069H202.337C184.172 60.1069 171.567 64.5449 164.521 73.4209C157.466 81.8933 152.947 95.0055 150.965 112.757L147.432 141.201H250.472L242.299 202.324H139.259L104.006 465.576H29.5315Z" fill="white"/>
</svg>
