<svg width="513" height="512" viewBox="0 0 513 512" fill="none" xmlns="http://www.w3.org/2000/svg">
<path fill-rule="evenodd" clip-rule="evenodd" d="M122.52 512H256.5H390.48C395.173 512 399.809 512 404.49 511.974C408.408 511.974 412.294 511.925 416.25 511.837C424.843 511.724 433.415 510.968 441.895 509.574C450.362 508.117 458.563 505.395 466.221 501.5C473.889 497.613 480.883 492.519 486.936 486.413C493.045 480.385 498.137 473.407 502.014 465.75C505.908 458.08 508.605 449.86 510.013 441.375C511.438 432.905 512.204 424.338 512.306 415.75C512.387 413.034 512.419 410.377 512.451 407.698C512.465 406.456 512.48 405.209 512.5 403.95V108.088C512.492 107.616 512.486 107.144 512.479 106.672C512.469 105.885 512.459 105.098 512.45 104.31V104.306C512.418 101.637 512.387 98.9658 512.306 96.3005C512.204 87.7122 511.438 79.1448 510.013 70.675C508.601 62.1943 505.904 53.979 502.014 46.3125C498.135 38.6306 493.044 31.6243 486.936 25.5625C480.86 19.4836 473.871 14.3933 466.221 10.4756C458.563 6.59082 450.361 3.88525 441.895 2.44995C433.417 1.04541 424.843 0.289307 416.25 0.188232L413.794 0.148193C412.597 0.128418 411.404 0.108643 410.212 0.0908203C408.304 0.0620117 406.401 0.0380859 404.49 0.0256348C402.201 0.0131836 399.923 0.00683594 397.644 0.00341797C395.261 0 392.878 0 390.48 0H256.5H122.52C117.827 0 113.191 0 108.51 0.0256348C105.393 0.0461426 102.295 0.097168 99.1672 0.148926L96.75 0.188232C88.1567 0.289307 79.5835 1.04541 71.105 2.44995C62.6387 3.88525 54.4373 6.59106 46.7786 10.4756C39.1292 14.3933 32.1399 19.4839 26.064 25.5625C19.9561 31.6243 14.8647 38.6306 10.9856 46.3125C7.09595 53.979 4.39868 62.1943 2.9873 70.675C1.56226 79.1448 0.795654 87.7124 0.693848 96.3005C0.575195 100.225 0.5625 104.163 0.5 108.088V403.95C0.519531 405.194 0.533936 406.426 0.54834 407.654L0.549072 407.692C0.581055 410.373 0.612793 413.032 0.693848 415.75C0.795654 424.338 1.56226 432.905 2.9873 441.375C4.39478 449.86 7.09204 458.08 10.9856 465.75C14.863 473.407 19.9551 480.385 26.064 486.413C32.1167 492.519 39.1108 497.613 46.7786 501.5C54.4373 505.395 62.6377 508.117 71.105 509.574C79.585 510.968 88.1572 511.724 96.75 511.837C100.706 511.925 104.592 511.974 108.51 511.974C109.529 511.98 110.546 511.984 111.561 511.988C115.212 512 118.849 512 122.52 512Z" fill="#1E1E1E"/>
<path fill-rule="evenodd" clip-rule="evenodd" d="M108.587 501H404.413C408.319 501 412.132 500.95 416.008 500.863C424.037 500.759 432.048 500.06 439.974 498.774C447.365 497.502 454.525 495.136 461.217 491.755C467.848 488.401 473.896 484.004 479.13 478.732C484.439 473.521 488.859 467.478 492.215 460.842C495.608 454.162 497.956 447.003 499.177 439.612C500.497 431.671 501.21 423.642 501.312 415.593C501.394 412.891 501.5 403.896 501.5 403.896V107.967C501.5 107.967 501.387 99.1095 501.312 96.5072C501.214 88.471 500.504 80.4538 499.189 72.5251C497.965 65.1145 495.615 57.9343 492.221 51.2329C488.877 44.6011 484.482 38.5536 479.205 33.3245C473.933 28.0458 467.866 23.626 461.223 20.2263C454.546 16.8557 447.4 14.5068 440.024 13.258C432.072 11.9587 424.033 11.2561 415.976 11.1564L404.406 11H108.594L97.0239 11.1564C88.9666 11.2561 80.928 11.9587 72.9758 13.258C65.5999 14.5068 58.4536 16.8557 51.7766 20.2263C45.1343 23.626 39.0667 28.0458 33.7954 33.3245C28.5183 38.5536 24.1228 44.6011 20.7791 51.2329C17.3845 57.9343 15.0347 65.1145 13.8108 72.5251C12.4956 80.4538 11.7861 88.471 11.6885 96.5072C11.6133 99.1095 11.5 107.967 11.5 107.967V403.896C11.5 403.896 11.533 406.687 11.5764 409.627C11.6108 411.965 11.6516 414.396 11.6877 415.593C11.7898 423.642 12.5034 431.671 13.8225 439.612C15.0442 447.003 17.3921 454.162 20.7852 460.842C24.1409 467.478 28.561 473.521 33.8701 478.732C39.1035 484.004 45.1519 488.401 51.7827 491.755C58.4753 495.136 65.635 497.502 73.0259 498.774C80.9521 500.06 88.9629 500.759 96.9924 500.863C100.868 500.95 104.681 501 108.587 501Z" fill="black"/>
<path d="M136.85 318.442H240.767L228.591 413.375C228.398 414.876 227.121 416 225.608 416H126.615C125.407 416 124.474 414.94 124.627 413.742L136.85 318.442Z" fill="#8F61F6"/>
<path d="M244.595 207.226H152.095L139.582 304.784H243.499L254.557 218.565C248.324 218.492 243.873 213.443 244.595 207.226Z" fill="#6F58DF"/>
<path d="M373.665 207.226H282.514C281.208 214.462 274.687 218.639 268.93 218.565L257.938 304.784H358.579C360.093 304.784 361.37 303.658 361.562 302.157L373.665 207.226Z" fill="#6F58DF"/>
<path fill-rule="evenodd" clip-rule="evenodd" d="M271.53 96.0082C222.006 95.3768 165.893 131.31 154.662 193.565H246.505C247.811 186.329 254.333 182.153 260.089 182.226L271.53 96.0082ZM285.377 96.0038H386.385C387.593 96.0038 388.527 97.064 388.374 98.2623L376.224 193.562L284.356 193.561C285.078 187.341 280.623 182.29 274.385 182.222L285.377 96.0038Z" fill="#4E53D1"/>
</svg>
