<?xml version="1.0" encoding="UTF-8" standalone="no"?>
<!-- Created with Inkscape (http://www.inkscape.org/) -->

<svg
   width="52.916672mm"
   height="52.916672mm"
   viewBox="0 0 52.916672 52.916672"
   version="1.1"
   id="svg1357"
   inkscape:version="1.2.1 (9c6d41e410, 2022-07-14)"
   sodipodi:docname="fortran-lang.svg"
   xmlns:inkscape="http://www.inkscape.org/namespaces/inkscape"
   xmlns:sodipodi="http://sodipodi.sourceforge.net/DTD/sodipodi-0.dtd"
   xmlns="http://www.w3.org/2000/svg"
   xmlns:svg="http://www.w3.org/2000/svg">
  <sodipodi:namedview
     id="namedview1359"
     pagecolor="#ffffff"
     bordercolor="#666666"
     borderopacity="1.0"
     inkscape:showpageshadow="2"
     inkscape:pageopacity="0.0"
     inkscape:pagecheckerboard="0"
     inkscape:deskcolor="#d1d1d1"
     inkscape:document-units="mm"
     showgrid="false"
     inkscape:zoom="0.74564394"
     inkscape:cx="17.434595"
     inkscape:cy="-15.422911"
     inkscape:window-width="1920"
     inkscape:window-height="1020"
     inkscape:window-x="0"
     inkscape:window-y="32"
     inkscape:window-maximized="1"
     inkscape:current-layer="layer1" />
  <defs
     id="defs1354" />
  <g
     inkscape:label="Layer 1"
     inkscape:groupmode="layer"
     id="layer1"
     transform="translate(-100.57392,-153.09006)">
    <path
       id="rect1106"
       style="fill:#734f96;stroke-width:0.608245;stroke-linecap:round;stroke-linejoin:round"
       d="m 110.26775,153.09006 h 33.52901 c 5.37038,0 9.69383,4.32345 9.69383,9.69383 v 33.529 c 0,5.37039 -4.32345,9.69384 -9.69383,9.69384 h -33.52901 c -5.37038,0 -9.69383,-4.32345 -9.69383,-9.69384 v -33.529 c 0,-5.37038 4.32345,-9.69383 9.69383,-9.69383 z" />
    <path
       d="m 107.71071,200.32132 v -4.717 h 2.41897 q 2.75159,0 3.4168,-0.63498 0.66522,-0.66522 0.66522,-3.20514 v -24.46186 q 0,-2.53992 -0.66522,-3.1749 -0.66521,-0.66522 -3.4168,-0.66522 h -2.41897 v -4.68676 h 38.64309 v 17.20495 h -4.77747 q 0,-3.23538 -0.42332,-5.50317 -0.42332,-2.29802 -1.3002,-3.90059 -0.90711,-1.66304 -2.96324,-2.38874 -2.05613,-0.72569 -6.19862,-0.72569 h -7.74071 v 12.76008 h 1.0583 q 3.90059,0 5.11008,-1.33043 1.20949,-1.36067 1.51186,-6.19862 l 4.71699,-0.0302 v 20.83341 l -4.71699,-0.0302 q -0.27214,-5.35198 -1.51186,-6.89407 -1.20949,-1.57234 -5.0496,-1.57234 h -1.11878 v 10.76443 q 0,2.50969 0.66522,3.17491 0.69545,0.66521 3.47727,0.66521 h 2.90277 v 4.717 z"
       style="font-weight:normal;font-size:61.9257px;line-height:1.25;font-family:'Clarendon BT';-inkscape-font-specification:'Clarendon BT';text-align:center;text-anchor:middle;fill:#ffffff;stroke-width:3.87035"
       id="path1331" />
  </g>
</svg>
