<svg width="563" height="682" viewBox="0 0 563 682" fill="none" xmlns="http://www.w3.org/2000/svg">
<path fill-rule="evenodd" clip-rule="evenodd" d="M313.937 0.0174438C208.387 -1.3283 88.7973 75.2537 64.8599 207.936H260.601C263.385 192.515 277.284 183.613 289.553 183.769L313.937 0.0174438ZM343.447 0.00805497H558.719C561.294 0.00805497 563.284 2.26765 562.959 4.82142L537.064 207.928L341.271 207.927C342.811 194.67 333.315 183.905 320.021 183.76L343.447 0.00805497Z" fill="black"/>
<path d="M256.531 237.05H59.3893L32.7207 444.97H254.194L277.762 261.217C264.478 261.062 254.991 250.301 256.531 237.05Z" fill="black"/>
<path d="M531.611 237.05H337.346C334.563 252.472 320.663 261.374 308.395 261.217L284.969 444.97H499.458C502.685 444.97 505.408 442.572 505.816 439.371L531.611 237.05Z" fill="black"/>
<path d="M26.8995 474.08H248.373L222.422 676.406C222.012 679.604 219.289 682 216.064 682H5.08596C2.51132 682 0.52296 679.74 0.848441 677.187L26.8995 474.08Z" fill="black"/>
</svg>
