<svg width="1134" height="609" viewBox="0 0 1134 609" fill="none" xmlns="http://www.w3.org/2000/svg">
<rect x="0.469727" y="0.0947266" width="1133.06" height="608.81" fill="white"/>
<path d="M623.886 465.839L666.706 141.464H728.466L737.177 175.354C768.854 153.892 802.965 137.228 842.111 137.228C862.697 137.228 879.146 141.262 891.455 149.331C904.159 156.997 914.348 169.1 922.024 185.642C952.062 158.961 1004.29 137.228 1045.55 137.228C1075.83 137.228 1097.8 144.086 1111.46 157.804C1125.51 171.118 1132.85 190.281 1133.47 215.295C1133.83 229.711 1133.22 244.687 1130.92 258.868L1103.35 465.839H1028.27L1055.88 260.684C1056.58 256.246 1056.86 251.404 1056.73 246.16C1056.04 218.321 1040.16 204.402 1009.07 204.402C981.072 204.402 944.83 221.032 922.679 236.477C923.82 245.619 923.251 255.358 921.552 264.315L894.457 465.839H819.983L846.457 263.71C847.175 260.079 847.503 257.053 847.443 254.632C847.777 251.808 847.904 248.782 847.824 245.554C847.504 232.644 843.621 222.558 836.175 215.295C828.729 208.033 816.933 204.402 800.787 204.402C773.59 204.402 752.265 220.027 730.155 234.056L698.966 465.839H623.886Z" fill="#4D41B1"/>
<path d="M249.319 609L310.651 152.091C335.164 147.653 359.904 144.223 384.871 141.803C409.828 138.978 437.443 137.566 467.717 137.566C504.854 137.566 531.932 147.048 548.952 166.01C566.376 184.972 575.563 213.617 576.513 251.945C576.763 262.031 576.417 272.521 575.476 283.414C574.535 294.307 573.393 305.201 572.048 316.094C565.225 366.525 549.216 404.652 524.022 430.472C498.828 456.293 465.847 469.204 425.078 469.204C409.335 469.204 394.773 467.993 381.393 465.573C368.012 463.152 355.807 459.319 344.778 454.074L324.399 609H249.319ZM415.026 405.66C440.86 405.66 460.227 397.188 473.128 380.243C486.028 363.298 495.061 336.872 500.226 300.964C500.903 295.72 501.565 289.869 502.213 283.414C502.86 276.959 503.108 270.706 502.958 264.654C502.408 242.464 497.76 225.922 489.013 215.029C480.66 203.733 467.401 198.084 449.237 198.084L379.015 198.689L352.391 394.767C363.783 398.398 373.743 401.222 382.269 403.239C391.19 404.853 402.109 405.66 415.026 405.66Z" fill="#4D41B1"/>
<path d="M29.5427 465.576L64.19 202.324H0.506348L7.17752 153.909L72.3626 141.201L79.6392 92.7865C82.0048 74.2277 86.8523 58.0897 94.1817 44.3723C101.905 30.2515 113.139 19.3583 127.884 11.6927C143.033 4.02713 163.121 0.194336 188.148 0.194336C201.468 0.194336 231.664 0.799518 244.611 2.00988C257.548 2.81678 277.209 4.02713 286.533 5.64094L279.406 60.1069H202.348C184.184 60.1069 171.578 64.5449 164.533 73.4209C157.477 81.8933 152.958 95.0055 150.976 112.757L147.443 141.201H250.483L242.31 202.324H139.27L104.017 465.576H29.5427Z" fill="#4D41B1"/>
</svg>
