<svg width="1134" height="609" viewBox="0 0 1134 609" fill="none" xmlns="http://www.w3.org/2000/svg">
<path d="M623.636 465.839L666.456 141.464H728.216L736.927 175.354C768.604 153.892 802.715 137.228 841.861 137.228C862.447 137.228 878.896 141.262 891.205 149.331C903.909 156.997 914.098 169.1 921.774 185.642C951.812 158.961 1004.04 137.228 1045.3 137.228C1075.58 137.228 1097.55 144.086 1111.21 157.804C1125.26 171.118 1132.6 190.281 1133.22 215.295C1133.58 229.711 1132.97 244.687 1130.67 258.868L1103.1 465.839H1028.02L1055.63 260.684C1056.33 256.246 1056.61 251.404 1056.48 246.16C1055.79 218.321 1039.91 204.402 1008.82 204.402C980.822 204.402 944.58 221.032 922.429 236.477C923.57 245.619 923.001 255.358 921.302 264.315L894.207 465.839H819.733L846.207 263.71C846.925 260.079 847.253 257.053 847.193 254.632C847.527 251.808 847.654 248.782 847.574 245.554C847.254 232.644 843.371 222.558 835.925 215.295C828.479 208.033 816.683 204.402 800.537 204.402C773.34 204.402 752.015 220.027 729.905 234.056L698.716 465.839H623.636Z" fill="#4D41B1"/>
<path d="M249.069 609L310.401 152.091C334.914 147.653 359.654 144.223 384.621 141.803C409.577 138.978 437.193 137.566 467.467 137.566C504.604 137.566 531.682 147.048 548.702 166.01C566.125 184.972 575.312 213.617 576.262 251.945C576.512 262.031 576.167 272.521 575.226 283.414C574.285 294.307 573.142 305.201 571.798 316.094C564.975 366.525 548.966 404.652 523.772 430.472C498.578 456.293 465.597 469.204 424.827 469.204C409.085 469.204 394.523 467.993 381.142 465.573C367.762 463.152 355.557 459.319 344.528 454.074L324.149 609H249.069ZM414.775 405.66C440.609 405.66 459.977 397.188 472.877 380.243C485.778 363.298 494.811 336.872 499.975 300.964C500.653 295.72 501.315 289.869 501.962 283.414C502.61 276.959 502.858 270.706 502.708 264.654C502.158 242.464 497.51 225.922 488.763 215.029C480.41 203.733 467.151 198.084 448.986 198.084L378.765 198.689L352.14 394.767C363.533 398.398 373.492 401.222 382.019 403.239C390.94 404.853 401.858 405.66 414.775 405.66Z" fill="#4D41B1"/>
<path d="M29.2927 465.576L63.94 202.324H0.256348L6.92752 153.909L72.1126 141.201L79.3892 92.7865C81.7548 74.2277 86.6023 58.0897 93.9317 44.3723C101.655 30.2515 112.889 19.3583 127.634 11.6927C142.783 4.02713 162.871 0.194336 187.898 0.194336C201.218 0.194336 231.414 0.799518 244.361 2.00988C257.298 2.81678 276.959 4.02713 286.283 5.64094L279.156 60.1069H202.098C183.934 60.1069 171.328 64.5449 164.283 73.4209C157.227 81.8933 152.708 95.0055 150.726 112.757L147.193 141.201H250.233L242.06 202.324H139.02L103.767 465.576H29.2927Z" fill="#4D41B1"/>
</svg>
