<svg width="1921" height="770" viewBox="0 0 1921 770" fill="none" xmlns="http://www.w3.org/2000/svg">
<rect x="0.0646973" y="0.638306" width="1920" height="768" fill="white"/>
<path d="M826.036 648.45C825.862 648.52 825.602 648.589 825.254 648.659C824.907 648.763 824.525 648.815 824.108 648.815C822.615 648.815 821.868 648.19 821.868 646.94V629.28C821.868 628.481 822.007 627.856 822.285 627.405C822.597 626.918 823.101 626.449 823.796 625.998C824.699 625.408 825.914 624.904 827.442 624.487C829.005 624.036 830.759 623.81 832.704 623.81C835.482 623.81 836.871 624.505 836.871 625.894C836.871 626.241 836.819 626.571 836.715 626.884C836.611 627.161 836.472 627.405 836.298 627.613C835.951 627.543 835.499 627.474 834.944 627.405C834.388 627.335 833.832 627.3 833.277 627.3C831.679 627.3 830.273 627.474 829.057 627.821C827.842 628.134 826.834 628.516 826.036 628.967V648.45Z" fill="#32365C"/>
<path d="M841.759 624.591C841.933 624.522 842.194 624.453 842.541 624.383C842.923 624.279 843.322 624.227 843.739 624.227C845.198 624.227 845.927 624.869 845.927 626.154V639.542C845.927 641.8 846.517 643.415 847.698 644.387C848.879 645.325 850.511 645.794 852.595 645.794C853.984 645.794 855.165 645.655 856.137 645.377C857.11 645.064 857.874 644.752 858.429 644.439V624.591C858.603 624.522 858.863 624.453 859.211 624.383C859.593 624.279 859.975 624.227 860.357 624.227C861.85 624.227 862.597 624.869 862.597 626.154V644.283C862.597 645.012 862.493 645.603 862.284 646.054C862.111 646.471 861.659 646.888 860.93 647.304C860.131 647.756 859.02 648.19 857.596 648.607C856.207 649.023 854.522 649.232 852.543 649.232C849.07 649.232 846.396 648.468 844.52 646.94C842.68 645.412 841.759 643.015 841.759 639.751V624.591Z" fill="#32365C"/>
<path d="M887.071 632.874C887.071 630.93 886.515 629.506 885.404 628.603C884.327 627.7 882.868 627.248 881.028 627.248C879.639 627.248 878.406 627.422 877.329 627.769C876.253 628.116 875.332 628.516 874.568 628.967V648.45C874.395 648.52 874.134 648.589 873.787 648.659C873.44 648.763 873.058 648.815 872.641 648.815C871.147 648.815 870.401 648.19 870.401 646.94V629.176C870.401 628.446 870.54 627.856 870.817 627.405C871.13 626.918 871.651 626.449 872.38 625.998C873.283 625.442 874.481 624.939 875.975 624.487C877.468 624.036 879.152 623.81 881.028 623.81C884.188 623.81 886.671 624.522 888.477 625.946C890.318 627.37 891.238 629.61 891.238 632.666V648.45C891.065 648.52 890.787 648.589 890.405 648.659C890.057 648.763 889.693 648.815 889.311 648.815C887.817 648.815 887.071 648.19 887.071 646.94V632.874Z" fill="#32365C"/>
<path d="M975.646 652.566C973.215 652.566 971.235 652.027 969.707 650.951C968.214 649.874 967.467 648.086 967.467 645.585V620.841C967.641 620.771 967.901 620.702 968.249 620.632C968.631 620.528 969.03 620.476 969.447 620.476C970.905 620.476 971.635 621.101 971.635 622.351V628.342H980.178C980.282 628.516 980.387 628.759 980.491 629.072C980.595 629.349 980.647 629.662 980.647 630.009C980.647 631.19 980.126 631.78 979.084 631.78H971.635V645.325C971.635 646.714 972.017 647.704 972.781 648.294C973.58 648.85 974.691 649.128 976.115 649.128C976.705 649.128 977.365 649.023 978.094 648.815C978.824 648.607 979.431 648.364 979.918 648.086C980.126 648.294 980.317 648.555 980.491 648.867C980.664 649.18 980.751 649.544 980.751 649.961C980.751 650.725 980.3 651.35 979.397 651.836C978.494 652.323 977.243 652.566 975.646 652.566Z" fill="#32365C"/>
<path d="M989.004 642.303C989.942 646.853 992.928 649.128 997.964 649.128C999.423 649.128 1000.74 648.884 1001.92 648.398C1003.1 647.912 1004.04 647.391 1004.74 646.835C1005.57 647.322 1005.99 647.982 1005.99 648.815C1005.99 649.301 1005.76 649.77 1005.31 650.222C1004.89 650.673 1004.3 651.072 1003.54 651.42C1002.81 651.767 1001.94 652.045 1000.93 652.253C999.961 652.462 998.902 652.566 997.756 652.566C993.727 652.566 990.532 651.472 988.17 649.284C985.844 647.096 984.68 643.901 984.68 639.699C984.68 637.719 984.958 635.965 985.514 634.437C986.104 632.874 986.903 631.555 987.91 630.478C988.952 629.401 990.185 628.585 991.609 628.03C993.032 627.439 994.578 627.144 996.245 627.144C997.808 627.144 999.249 627.405 1000.57 627.925C1001.89 628.446 1003.02 629.193 1003.95 630.165C1004.93 631.103 1005.67 632.232 1006.19 633.552C1006.75 634.837 1007.03 636.26 1007.03 637.823C1007.03 638.587 1006.85 639.143 1006.51 639.49C1006.16 639.803 1005.67 639.994 1005.05 640.063L989.004 642.303ZM996.193 630.53C994.074 630.53 992.321 631.277 990.931 632.77C989.542 634.229 988.813 636.33 988.743 639.074L1003.07 637.094C1002.9 635.184 1002.22 633.621 1001.04 632.406C999.892 631.155 998.277 630.53 996.193 630.53Z" fill="#32365C"/>
<path d="M1030.34 645.481C1030.34 647.704 1029.52 649.44 1027.89 650.69C1026.26 651.941 1023.89 652.566 1020.8 652.566C1019.48 652.566 1018.27 652.444 1017.16 652.201C1016.04 651.993 1015.09 651.715 1014.29 651.368C1013.53 650.986 1012.92 650.569 1012.47 650.117C1012.05 649.631 1011.84 649.145 1011.84 648.659C1011.84 648.242 1011.95 647.843 1012.16 647.461C1012.4 647.079 1012.75 646.749 1013.2 646.471C1014.13 647.165 1015.23 647.791 1016.48 648.346C1017.73 648.867 1019.15 649.128 1020.75 649.128C1024.36 649.128 1026.17 647.912 1026.17 645.481C1026.17 643.501 1024.97 642.216 1022.57 641.626L1018.25 640.48C1016.13 639.924 1014.59 639.126 1013.61 638.084C1012.64 637.007 1012.16 635.635 1012.16 633.968C1012.16 633.065 1012.33 632.197 1012.68 631.364C1013.06 630.53 1013.63 629.801 1014.4 629.176C1015.16 628.551 1016.1 628.064 1017.21 627.717C1018.35 627.335 1019.69 627.144 1021.22 627.144C1023.65 627.144 1025.61 627.509 1027.11 628.238C1028.6 628.933 1029.35 629.749 1029.35 630.686C1029.35 631.138 1029.22 631.537 1028.98 631.885C1028.77 632.232 1028.48 632.492 1028.1 632.666C1027.47 632.249 1026.59 631.798 1025.44 631.312C1024.29 630.825 1022.94 630.582 1021.38 630.582C1019.81 630.582 1018.56 630.877 1017.62 631.468C1016.72 632.058 1016.27 632.892 1016.27 633.968C1016.27 634.767 1016.53 635.444 1017.05 636C1017.57 636.556 1018.44 636.972 1019.66 637.25L1023.25 638.136C1025.61 638.726 1027.38 639.612 1028.56 640.793C1029.75 641.939 1030.34 643.501 1030.34 645.481Z" fill="#32365C"/>
<path d="M1044.88 652.566C1042.45 652.566 1040.47 652.027 1038.95 650.951C1037.45 649.874 1036.71 648.086 1036.71 645.585V620.841C1036.88 620.771 1037.14 620.702 1037.49 620.632C1037.87 620.528 1038.27 620.476 1038.68 620.476C1040.14 620.476 1040.87 621.101 1040.87 622.351V628.342H1049.42C1049.52 628.516 1049.62 628.759 1049.73 629.072C1049.83 629.349 1049.88 629.662 1049.88 630.009C1049.88 631.19 1049.36 631.78 1048.32 631.78H1040.87V645.325C1040.87 646.714 1041.25 647.704 1042.02 648.294C1042.82 648.85 1043.93 649.128 1045.35 649.128C1045.94 649.128 1046.6 649.023 1047.33 648.815C1048.06 648.607 1048.67 648.364 1049.16 648.086C1049.36 648.294 1049.55 648.555 1049.73 648.867C1049.9 649.18 1049.99 649.544 1049.99 649.961C1049.99 650.725 1049.54 651.35 1048.63 651.836C1047.73 652.323 1046.48 652.566 1044.88 652.566Z" fill="#32365C"/>
<path d="M1131.01 653.192C1130.84 653.261 1130.58 653.331 1130.23 653.4C1129.88 653.505 1129.5 653.557 1129.08 653.557C1127.59 653.557 1126.84 652.932 1126.84 651.681V629.333C1127.02 629.264 1127.28 629.194 1127.62 629.125C1128.01 629.021 1128.41 628.968 1128.82 628.968C1130.28 628.968 1131.01 629.611 1131.01 630.896V653.192ZM1126.22 621.623C1126.22 620.894 1126.46 620.286 1126.95 619.8C1127.47 619.279 1128.13 619.019 1128.93 619.019C1129.73 619.019 1130.37 619.279 1130.85 619.8C1131.34 620.286 1131.58 620.894 1131.58 621.623C1131.58 622.353 1131.34 622.978 1130.85 623.499C1130.37 623.985 1129.73 624.228 1128.93 624.228C1128.13 624.228 1127.47 623.985 1126.95 623.499C1126.46 622.978 1126.22 622.353 1126.22 621.623Z" fill="#32365C"/>
<path d="M1155.82 637.616C1155.82 635.671 1155.26 634.247 1154.15 633.344C1153.07 632.441 1151.62 631.99 1149.78 631.99C1148.39 631.99 1147.15 632.164 1146.08 632.511C1145 632.858 1144.08 633.257 1143.32 633.709V653.192C1143.14 653.261 1142.88 653.331 1142.53 653.4C1142.19 653.505 1141.81 653.557 1141.39 653.557C1139.9 653.557 1139.15 652.932 1139.15 651.681V633.917C1139.15 633.188 1139.29 632.598 1139.57 632.146C1139.88 631.66 1140.4 631.191 1141.13 630.74C1142.03 630.184 1143.23 629.68 1144.72 629.229C1146.22 628.777 1147.9 628.552 1149.78 628.552C1152.94 628.552 1155.42 629.264 1157.22 630.688C1159.07 632.111 1159.99 634.351 1159.99 637.408V653.192C1159.81 653.261 1159.53 653.331 1159.15 653.4C1158.81 653.505 1158.44 653.557 1158.06 653.557C1156.57 653.557 1155.82 652.932 1155.82 651.681V637.616Z" fill="#32365C"/>
<path d="M1184.77 646.889C1184.77 649.111 1183.96 650.848 1182.32 652.098C1180.69 653.348 1178.33 653.973 1175.24 653.973C1173.92 653.973 1172.7 653.852 1171.59 653.609C1170.48 653.4 1169.53 653.123 1168.73 652.775C1167.96 652.393 1167.36 651.976 1166.9 651.525C1166.49 651.039 1166.28 650.553 1166.28 650.066C1166.28 649.65 1166.38 649.25 1166.59 648.868C1166.83 648.486 1167.18 648.156 1167.63 647.878C1168.57 648.573 1169.67 649.198 1170.92 649.754C1172.17 650.275 1173.59 650.535 1175.19 650.535C1178.8 650.535 1180.6 649.32 1180.6 646.889C1180.6 644.909 1179.41 643.624 1177.01 643.034L1172.69 641.888C1170.57 641.332 1169.02 640.533 1168.05 639.491C1167.08 638.415 1166.59 637.043 1166.59 635.376C1166.59 634.473 1166.77 633.605 1167.11 632.771C1167.49 631.938 1168.07 631.208 1168.83 630.583C1169.6 629.958 1170.53 629.472 1171.64 629.125C1172.79 628.743 1174.13 628.552 1175.66 628.552C1178.09 628.552 1180.05 628.916 1181.54 629.646C1183.04 630.34 1183.78 631.156 1183.78 632.094C1183.78 632.546 1183.66 632.945 1183.42 633.292C1183.21 633.64 1182.91 633.9 1182.53 634.074C1181.91 633.657 1181.02 633.205 1179.88 632.719C1178.73 632.233 1177.38 631.99 1175.81 631.99C1174.25 631.99 1173 632.285 1172.06 632.875C1171.16 633.466 1170.71 634.299 1170.71 635.376C1170.71 636.175 1170.97 636.852 1171.49 637.408C1172.01 637.963 1172.88 638.38 1174.09 638.658L1177.69 639.543C1180.05 640.134 1181.82 641.019 1183 642.2C1184.18 643.346 1184.77 644.909 1184.77 646.889Z" fill="#32365C"/>
<path d="M1199.32 653.973C1196.89 653.973 1194.91 653.435 1193.38 652.358C1191.89 651.282 1191.14 649.493 1191.14 646.993V622.248C1191.32 622.179 1191.58 622.109 1191.92 622.04C1192.31 621.936 1192.7 621.884 1193.12 621.884C1194.58 621.884 1195.31 622.509 1195.31 623.759V629.75H1203.85C1203.96 629.923 1204.06 630.167 1204.17 630.479C1204.27 630.757 1204.32 631.07 1204.32 631.417C1204.32 632.598 1203.8 633.188 1202.76 633.188H1195.31V646.732C1195.31 648.122 1195.69 649.111 1196.46 649.702C1197.25 650.257 1198.37 650.535 1199.79 650.535C1200.38 650.535 1201.04 650.431 1201.77 650.223C1202.5 650.014 1203.11 649.771 1203.59 649.493C1203.8 649.702 1203.99 649.962 1204.17 650.275C1204.34 650.587 1204.43 650.952 1204.43 651.369C1204.43 652.133 1203.97 652.758 1203.07 653.244C1202.17 653.73 1200.92 653.973 1199.32 653.973Z" fill="#32365C"/>
<path d="M1219.37 650.587C1220.83 650.587 1222.03 650.448 1222.97 650.171C1223.94 649.858 1224.63 649.563 1225.05 649.285V641.731L1218.59 642.409C1216.79 642.582 1215.45 642.999 1214.58 643.659C1213.71 644.284 1213.28 645.222 1213.28 646.472C1213.28 647.792 1213.78 648.816 1214.79 649.545C1215.8 650.24 1217.32 650.587 1219.37 650.587ZM1219.32 628.552C1222.34 628.552 1224.74 629.229 1226.51 630.583C1228.28 631.938 1229.17 634.074 1229.17 636.991V649.337C1229.17 650.101 1229.01 650.692 1228.7 651.108C1228.42 651.49 1227.99 651.855 1227.4 652.202C1226.56 652.688 1225.45 653.105 1224.06 653.452C1222.71 653.834 1221.14 654.025 1219.37 654.025C1216.11 654.025 1213.57 653.383 1211.77 652.098C1210 650.813 1209.11 648.955 1209.11 646.524C1209.11 644.232 1209.86 642.513 1211.35 641.367C1212.84 640.186 1214.94 639.457 1217.65 639.179L1225.05 638.449V636.991C1225.05 635.254 1224.53 633.987 1223.49 633.188C1222.45 632.389 1221.04 631.99 1219.27 631.99C1217.81 631.99 1216.44 632.198 1215.15 632.615C1213.87 633.032 1212.72 633.501 1211.71 634.022C1211.44 633.778 1211.18 633.501 1210.93 633.188C1210.73 632.875 1210.62 632.528 1210.62 632.146C1210.62 631.66 1210.74 631.261 1210.99 630.948C1211.23 630.635 1211.61 630.34 1212.13 630.062C1213.07 629.576 1214.15 629.212 1215.36 628.968C1216.58 628.691 1217.9 628.552 1219.32 628.552Z" fill="#32365C"/>
<path d="M1241.36 653.192C1241.18 653.261 1240.92 653.331 1240.58 653.4C1240.23 653.505 1239.85 653.557 1239.43 653.557C1237.94 653.557 1237.19 652.932 1237.19 651.681V619.539C1237.36 619.47 1237.62 619.401 1237.97 619.331C1238.35 619.227 1238.74 619.175 1239.12 619.175C1240.61 619.175 1241.36 619.8 1241.36 621.05V653.192Z" fill="#32365C"/>
<path d="M1254.33 653.192C1254.16 653.261 1253.9 653.331 1253.55 653.4C1253.2 653.505 1252.82 653.557 1252.4 653.557C1250.91 653.557 1250.16 652.932 1250.16 651.681V619.539C1250.34 619.47 1250.6 619.401 1250.94 619.331C1251.33 619.227 1251.71 619.175 1252.09 619.175C1253.58 619.175 1254.33 619.8 1254.33 621.05V653.192Z" fill="#32365C"/>
<path d="M653.075 628.578C654.672 628.578 656.166 628.838 657.555 629.359C658.944 629.88 660.142 630.662 661.149 631.703C662.191 632.745 662.99 634.065 663.545 635.663C664.136 637.26 664.431 639.135 664.431 641.289C664.431 643.477 664.136 645.369 663.545 646.967C662.955 648.564 662.122 649.884 661.045 650.926C660.003 651.968 658.735 652.749 657.242 653.27C655.749 653.756 654.116 654 652.345 654C650.644 654 649.098 653.791 647.709 653.374C646.355 652.992 645.243 652.541 644.375 652.02C643.646 651.568 643.142 651.134 642.864 650.718C642.586 650.266 642.448 649.676 642.448 648.946V619.566C642.621 619.496 642.882 619.427 643.229 619.357C643.611 619.253 644.01 619.201 644.427 619.201C645.886 619.201 646.615 619.826 646.615 621.076V630.401C647.379 629.915 648.282 629.498 649.324 629.151C650.4 628.769 651.651 628.578 653.075 628.578ZM652.449 632.016C651.234 632.016 650.123 632.242 649.116 632.693C648.143 633.11 647.31 633.614 646.615 634.204V648.946C647.136 649.328 647.883 649.693 648.855 650.04C649.862 650.388 651.026 650.561 652.345 650.561C653.526 650.561 654.585 650.388 655.523 650.04C656.495 649.658 657.329 649.085 658.024 648.321C658.718 647.557 659.256 646.602 659.638 645.456C660.02 644.275 660.211 642.886 660.211 641.289C660.211 639.691 660.02 638.302 659.638 637.121C659.256 635.94 658.718 634.985 658.024 634.256C657.329 633.492 656.495 632.936 655.523 632.589C654.585 632.207 653.561 632.016 652.449 632.016Z" fill="#32365C"/>
<path d="M670.934 629.359C671.107 629.29 671.368 629.22 671.715 629.151C672.097 629.047 672.497 628.995 672.913 628.995C674.372 628.995 675.101 629.637 675.101 630.922V644.31C675.101 646.567 675.692 648.182 676.872 649.155C678.053 650.093 679.686 650.561 681.769 650.561C683.158 650.561 684.339 650.422 685.312 650.145C686.284 649.832 687.048 649.519 687.604 649.207V629.359C687.777 629.29 688.038 629.22 688.385 629.151C688.767 629.047 689.149 628.995 689.531 628.995C691.025 628.995 691.771 629.637 691.771 630.922V649.051C691.771 649.78 691.667 650.37 691.459 650.822C691.285 651.239 690.834 651.655 690.104 652.072C689.305 652.524 688.194 652.958 686.77 653.374C685.381 653.791 683.697 654 681.717 654C678.244 654 675.57 653.235 673.695 651.707C671.854 650.179 670.934 647.783 670.934 644.518V629.359Z" fill="#32365C"/>
<path d="M704.003 653.218C703.829 653.288 703.569 653.357 703.222 653.426C702.874 653.531 702.492 653.583 702.076 653.583C700.582 653.583 699.836 652.958 699.836 651.707V629.359C700.009 629.29 700.27 629.22 700.617 629.151C700.999 629.047 701.398 628.995 701.815 628.995C703.274 628.995 704.003 629.637 704.003 630.922V653.218ZM699.21 621.649C699.21 620.92 699.454 620.312 699.94 619.826C700.461 619.305 701.121 619.045 701.919 619.045C702.718 619.045 703.361 619.305 703.847 619.826C704.333 620.312 704.576 620.92 704.576 621.649C704.576 622.379 704.333 623.004 703.847 623.525C703.361 624.011 702.718 624.254 701.919 624.254C701.121 624.254 700.461 624.011 699.94 623.525C699.454 623.004 699.21 622.379 699.21 621.649Z" fill="#32365C"/>
<path d="M716.827 653.218C716.653 653.288 716.393 653.357 716.045 653.426C715.698 653.531 715.316 653.583 714.899 653.583C713.406 653.583 712.659 652.958 712.659 651.707V619.566C712.833 619.496 713.093 619.427 713.441 619.357C713.823 619.253 714.205 619.201 714.587 619.201C716.08 619.201 716.827 619.826 716.827 621.076V653.218Z" fill="#32365C"/>
<path d="M745.639 649.363C745.639 650.058 745.483 650.596 745.171 650.978C744.893 651.36 744.441 651.742 743.816 652.124C743.121 652.576 742.132 652.992 740.847 653.374C739.562 653.791 738.086 654 736.419 654C734.543 654 732.824 653.756 731.261 653.27C729.699 652.784 728.344 652.037 727.198 651.03C726.087 649.988 725.219 648.686 724.594 647.123C724.003 645.526 723.708 643.616 723.708 641.393C723.708 639.135 724.02 637.208 724.646 635.61C725.271 633.978 726.104 632.641 727.146 631.599C728.223 630.557 729.473 629.793 730.897 629.307C732.355 628.821 733.901 628.578 735.533 628.578C736.645 628.578 737.721 628.717 738.763 628.995C739.805 629.272 740.708 629.62 741.472 630.036V619.566C741.646 619.496 741.906 619.427 742.253 619.357C742.635 619.253 743.017 619.201 743.399 619.201C744.893 619.201 745.639 619.826 745.639 621.076V649.363ZM741.472 633.787C740.777 633.301 739.979 632.884 739.076 632.537C738.173 632.19 737.131 632.016 735.95 632.016C734.873 632.016 733.849 632.19 732.876 632.537C731.939 632.849 731.105 633.388 730.376 634.152C729.647 634.881 729.056 635.854 728.605 637.069C728.188 638.285 727.98 639.761 727.98 641.497C727.98 644.692 728.744 647.002 730.272 648.426C731.8 649.849 733.831 650.561 736.367 650.561C737.582 650.561 738.572 650.44 739.336 650.197C740.135 649.919 740.847 649.589 741.472 649.207V633.787Z" fill="#32365C"/>
<path d="M593.515 648.923C593.48 649.2 593.696 649.445 593.975 649.445H617.48L620.374 626.884H596.342L593.515 648.923Z" fill="#4D41B1"/>
<path d="M772.814 648.923C772.779 649.2 772.995 649.445 773.274 649.445H796.779L799.673 626.884H775.641L772.814 648.923Z" fill="#4D41B1"/>
<path d="M918.192 648.923C918.156 649.2 918.372 649.445 918.652 649.445H942.156L945.05 626.884H921.019L918.192 648.923Z" fill="#4D41B1"/>
<path d="M1076.9 648.923C1076.86 649.2 1077.08 649.445 1077.36 649.445H1100.86L1103.75 626.884H1079.72L1076.9 648.923Z" fill="#4D41B1"/>
<path d="M1281.64 648.923C1281.6 649.2 1281.82 649.445 1282.1 649.445H1305.6L1308.49 626.884H1284.46L1281.64 648.923Z" fill="#4D41B1"/>
<path d="M440.486 630.608C439.305 630.608 438.211 630.817 437.204 631.234C436.197 631.616 435.329 632.206 434.599 633.005C433.87 633.769 433.297 634.741 432.88 635.922C432.463 637.068 432.255 638.388 432.255 639.881C432.255 642.868 433.002 645.16 434.495 646.757C435.988 648.32 437.985 649.102 440.486 649.102C441.945 649.102 443.16 648.911 444.132 648.529C445.105 648.112 445.973 647.643 446.737 647.122C447.119 647.331 447.432 647.591 447.675 647.904C447.918 648.216 448.039 648.598 448.039 649.05C448.039 649.536 447.848 649.987 447.466 650.404C447.084 650.821 446.546 651.185 445.852 651.498C445.192 651.811 444.393 652.054 443.455 652.227C442.552 652.436 441.562 652.54 440.486 652.54C438.68 652.54 437.013 652.279 435.485 651.758C433.957 651.238 432.637 650.456 431.526 649.414C430.414 648.372 429.546 647.07 428.921 645.507C428.296 643.91 427.983 642.034 427.983 639.881C427.983 637.763 428.313 635.922 428.973 634.359C429.633 632.762 430.519 631.425 431.63 630.348C432.741 629.271 434.044 628.473 435.537 627.952C437.065 627.396 438.68 627.118 440.382 627.118C441.458 627.118 442.448 627.222 443.351 627.431C444.289 627.604 445.087 627.865 445.747 628.212C446.407 628.559 446.911 628.959 447.258 629.41C447.64 629.827 447.831 630.261 447.831 630.713C447.831 631.129 447.71 631.494 447.466 631.807C447.223 632.119 446.911 632.362 446.529 632.536C445.765 632.015 444.931 631.564 444.028 631.181C443.125 630.799 441.945 630.608 440.486 630.608Z" fill="#32365C"/>
<path d="M458.382 651.758C458.208 651.828 457.948 651.897 457.601 651.967C457.253 652.071 456.871 652.123 456.455 652.123C454.961 652.123 454.215 651.498 454.215 650.248V632.588C454.215 631.789 454.354 631.164 454.631 630.713C454.944 630.226 455.447 629.758 456.142 629.306C457.045 628.716 458.261 628.212 459.789 627.795C461.351 627.344 463.105 627.118 465.05 627.118C467.828 627.118 469.218 627.813 469.218 629.202C469.218 629.549 469.165 629.879 469.061 630.192C468.957 630.47 468.818 630.713 468.645 630.921C468.297 630.852 467.846 630.782 467.29 630.713C466.734 630.643 466.179 630.608 465.623 630.608C464.026 630.608 462.619 630.782 461.404 631.129C460.188 631.442 459.181 631.824 458.382 632.275V651.758Z" fill="#32365C"/>
<path d="M476.566 642.277C477.504 646.827 480.491 649.102 485.527 649.102C486.985 649.102 488.305 648.859 489.486 648.372C490.666 647.886 491.604 647.365 492.299 646.81C493.132 647.296 493.549 647.956 493.549 648.789C493.549 649.275 493.323 649.744 492.872 650.196C492.455 650.647 491.865 651.047 491.101 651.394C490.371 651.741 489.503 652.019 488.496 652.227C487.523 652.436 486.464 652.54 485.318 652.54C481.29 652.54 478.095 651.446 475.733 649.258C473.406 647.07 472.243 643.875 472.243 639.673C472.243 637.693 472.521 635.939 473.076 634.411C473.667 632.848 474.465 631.529 475.472 630.452C476.514 629.376 477.747 628.559 479.171 628.004C480.595 627.413 482.14 627.118 483.807 627.118C485.37 627.118 486.812 627.379 488.131 627.9C489.451 628.421 490.58 629.167 491.517 630.14C492.49 631.077 493.236 632.206 493.757 633.526C494.313 634.811 494.591 636.235 494.591 637.797C494.591 638.561 494.417 639.117 494.07 639.464C493.723 639.777 493.236 639.968 492.611 640.037L476.566 642.277ZM483.755 630.504C481.637 630.504 479.883 631.251 478.494 632.744C477.105 634.203 476.375 636.304 476.306 639.048L490.632 637.068C490.458 635.158 489.781 633.595 488.6 632.38C487.454 631.129 485.839 630.504 483.755 630.504Z" fill="#32365C"/>
<path d="M509.206 649.154C510.665 649.154 511.863 649.015 512.8 648.737C513.773 648.424 514.467 648.129 514.884 647.851V640.298L508.425 640.975C506.619 641.149 505.282 641.565 504.413 642.225C503.545 642.85 503.111 643.788 503.111 645.038C503.111 646.358 503.615 647.383 504.622 648.112C505.629 648.807 507.157 649.154 509.206 649.154ZM509.154 627.118C512.175 627.118 514.572 627.795 516.343 629.15C518.114 630.504 519 632.64 519 635.557V647.904C519 648.668 518.843 649.258 518.531 649.675C518.253 650.057 517.819 650.421 517.228 650.769C516.395 651.255 515.284 651.672 513.894 652.019C512.54 652.401 510.977 652.592 509.206 652.592C505.941 652.592 503.406 651.949 501.6 650.665C499.829 649.38 498.944 647.522 498.944 645.09C498.944 642.798 499.69 641.079 501.184 639.933C502.677 638.752 504.778 638.023 507.487 637.745L514.884 637.016V635.557C514.884 633.821 514.363 632.553 513.321 631.755C512.28 630.956 510.873 630.556 509.102 630.556C507.643 630.556 506.271 630.765 504.986 631.181C503.701 631.598 502.555 632.067 501.548 632.588C501.27 632.345 501.01 632.067 500.767 631.755C500.558 631.442 500.454 631.095 500.454 630.713C500.454 630.226 500.576 629.827 500.819 629.514C501.062 629.202 501.444 628.907 501.965 628.629C502.903 628.143 503.979 627.778 505.195 627.535C506.41 627.257 507.73 627.118 509.154 627.118Z" fill="#32365C"/>
<path d="M534.837 652.54C532.406 652.54 530.427 652.002 528.899 650.925C527.405 649.848 526.659 648.06 526.659 645.559V620.815C526.832 620.745 527.093 620.676 527.44 620.606C527.822 620.502 528.221 620.45 528.638 620.45C530.097 620.45 530.826 621.075 530.826 622.326V628.316H539.369C539.474 628.49 539.578 628.733 539.682 629.046C539.786 629.323 539.838 629.636 539.838 629.983C539.838 631.164 539.317 631.755 538.275 631.755H530.826V645.299C530.826 646.688 531.208 647.678 531.972 648.268C532.771 648.824 533.882 649.102 535.306 649.102C535.897 649.102 536.556 648.998 537.286 648.789C538.015 648.581 538.623 648.338 539.109 648.06C539.317 648.268 539.508 648.529 539.682 648.841C539.856 649.154 539.942 649.518 539.942 649.935C539.942 650.699 539.491 651.324 538.588 651.811C537.685 652.297 536.435 652.54 534.837 652.54Z" fill="#32365C"/>
<path d="M548.195 642.277C549.133 646.827 552.12 649.102 557.155 649.102C558.614 649.102 559.934 648.859 561.114 648.372C562.295 647.886 563.233 647.365 563.928 646.81C564.761 647.296 565.178 647.956 565.178 648.789C565.178 649.275 564.952 649.744 564.501 650.196C564.084 650.647 563.493 651.047 562.729 651.394C562 651.741 561.132 652.019 560.125 652.227C559.152 652.436 558.093 652.54 556.947 652.54C552.918 652.54 549.723 651.446 547.362 649.258C545.035 647.07 543.871 643.875 543.871 639.673C543.871 637.693 544.149 635.939 544.705 634.411C545.295 632.848 546.094 631.529 547.101 630.452C548.143 629.376 549.376 628.559 550.8 628.004C552.224 627.413 553.769 627.118 555.436 627.118C556.999 627.118 558.44 627.379 559.76 627.9C561.08 628.421 562.208 629.167 563.146 630.14C564.119 631.077 564.865 632.206 565.386 633.526C565.942 634.811 566.22 636.235 566.22 637.797C566.22 638.561 566.046 639.117 565.699 639.464C565.351 639.777 564.865 639.968 564.24 640.037L548.195 642.277ZM555.384 630.504C553.266 630.504 551.512 631.251 550.123 632.744C548.734 634.203 548.004 636.304 547.935 639.048L562.261 637.068C562.087 635.158 561.41 633.595 560.229 632.38C559.083 631.129 557.468 630.504 555.384 630.504Z" fill="#32365C"/>
<path d="M1330.56 624.749C1330.73 624.679 1330.99 624.61 1331.34 624.54C1331.72 624.436 1332.12 624.384 1332.54 624.384C1334 624.384 1334.73 625.026 1334.73 626.311V639.699C1334.73 641.957 1335.32 643.572 1336.5 644.544C1337.68 645.482 1339.31 645.951 1341.39 645.951C1342.78 645.951 1343.96 645.812 1344.94 645.534C1345.91 645.221 1346.67 644.909 1347.23 644.596V624.749C1347.4 624.679 1347.66 624.61 1348.01 624.54C1348.39 624.436 1348.77 624.384 1349.16 624.384C1350.65 624.384 1351.4 625.026 1351.4 626.311V644.44C1351.4 645.169 1351.29 645.76 1351.08 646.211C1350.91 646.628 1350.46 647.045 1349.73 647.461C1348.93 647.913 1347.82 648.347 1346.4 648.764C1345.01 649.181 1343.32 649.389 1341.34 649.389C1337.87 649.389 1335.19 648.625 1333.32 647.097C1331.48 645.569 1330.56 643.172 1330.56 639.908V624.749Z" fill="#32365C"/>
<path d="M1369.46 649.389C1368.25 649.389 1367.1 649.25 1366.02 648.972C1364.95 648.694 1364.06 648.364 1363.37 647.982V658.089C1363.19 658.158 1362.93 658.227 1362.59 658.297C1362.24 658.401 1361.86 658.453 1361.44 658.453C1359.95 658.453 1359.2 657.811 1359.2 656.526V629.02C1359.2 628.326 1359.32 627.77 1359.56 627.353C1359.81 626.937 1360.31 626.502 1361.08 626.051C1362.01 625.53 1363.12 625.061 1364.41 624.644C1365.73 624.193 1367.22 623.967 1368.89 623.967C1370.59 623.967 1372.19 624.21 1373.68 624.697C1375.21 625.183 1376.51 625.947 1377.59 626.989C1378.7 627.996 1379.57 629.298 1380.19 630.896C1380.85 632.493 1381.18 634.403 1381.18 636.626C1381.18 638.779 1380.89 640.655 1380.3 642.252C1379.74 643.85 1378.94 645.187 1377.9 646.263C1376.86 647.305 1375.61 648.087 1374.15 648.607C1372.73 649.128 1371.16 649.389 1369.46 649.389ZM1368.89 645.951C1371.32 645.951 1373.27 645.221 1374.72 643.763C1376.22 642.269 1376.96 639.89 1376.96 636.626C1376.96 634.924 1376.74 633.483 1376.29 632.302C1375.87 631.121 1375.28 630.166 1374.52 629.437C1373.79 628.708 1372.94 628.187 1371.96 627.874C1370.99 627.562 1369.97 627.405 1368.89 627.405C1367.64 627.405 1366.58 627.562 1365.71 627.874C1364.84 628.187 1364.06 628.534 1363.37 628.916V644.284C1364.03 644.77 1364.81 645.169 1365.71 645.482C1366.61 645.794 1367.67 645.951 1368.89 645.951Z" fill="#32365C"/>
<path d="M1408.21 644.753C1408.21 645.447 1408.06 645.985 1407.75 646.367C1407.47 646.749 1407.02 647.132 1406.39 647.514C1405.7 647.965 1404.71 648.382 1403.42 648.764C1402.14 649.181 1400.66 649.389 1398.99 649.389C1397.12 649.389 1395.4 649.146 1393.84 648.66C1392.27 648.173 1390.92 647.427 1389.77 646.42C1388.66 645.378 1387.79 644.075 1387.17 642.513C1386.58 640.915 1386.28 639.005 1386.28 636.782C1386.28 634.525 1386.6 632.597 1387.22 631C1387.85 629.368 1388.68 628.03 1389.72 626.989C1390.8 625.947 1392.05 625.183 1393.47 624.697C1394.93 624.21 1396.48 623.967 1398.11 623.967C1399.22 623.967 1400.3 624.106 1401.34 624.384C1402.38 624.662 1403.28 625.009 1404.05 625.426V614.955C1404.22 614.886 1404.48 614.816 1404.83 614.747C1405.21 614.642 1405.59 614.59 1405.97 614.59C1407.47 614.59 1408.21 615.215 1408.21 616.466V644.753ZM1404.05 629.177C1403.35 628.69 1402.55 628.274 1401.65 627.926C1400.75 627.579 1399.71 627.405 1398.53 627.405C1397.45 627.405 1396.42 627.579 1395.45 627.926C1394.51 628.239 1393.68 628.777 1392.95 629.541C1392.22 630.271 1391.63 631.243 1391.18 632.458C1390.76 633.674 1390.56 635.15 1390.56 636.886C1390.56 640.081 1391.32 642.391 1392.85 643.815C1394.38 645.239 1396.41 645.951 1398.94 645.951C1400.16 645.951 1401.15 645.829 1401.91 645.586C1402.71 645.308 1403.42 644.978 1404.05 644.596V629.177Z" fill="#32365C"/>
<path d="M1424.72 646.003C1426.18 646.003 1427.38 645.864 1428.32 645.586C1429.29 645.273 1429.98 644.978 1430.4 644.7V637.147L1423.94 637.824C1422.13 637.998 1420.8 638.414 1419.93 639.074C1419.06 639.699 1418.63 640.637 1418.63 641.887C1418.63 643.207 1419.13 644.232 1420.14 644.961C1421.14 645.656 1422.67 646.003 1424.72 646.003ZM1424.67 623.967C1427.69 623.967 1430.09 624.644 1431.86 625.999C1433.63 627.353 1434.52 629.489 1434.52 632.406V644.753C1434.52 645.517 1434.36 646.107 1434.05 646.524C1433.77 646.906 1433.33 647.27 1432.74 647.618C1431.91 648.104 1430.8 648.521 1429.41 648.868C1428.06 649.25 1426.49 649.441 1424.72 649.441C1421.46 649.441 1418.92 648.799 1417.12 647.514C1415.35 646.229 1414.46 644.371 1414.46 641.94C1414.46 639.647 1415.21 637.928 1416.7 636.782C1418.19 635.601 1420.29 634.872 1423 634.594L1430.4 633.865V632.406C1430.4 630.67 1429.88 629.402 1428.84 628.604C1427.8 627.805 1426.39 627.405 1424.62 627.405C1423.16 627.405 1421.79 627.614 1420.5 628.03C1419.22 628.447 1418.07 628.916 1417.06 629.437C1416.79 629.194 1416.53 628.916 1416.28 628.604C1416.07 628.291 1415.97 627.944 1415.97 627.562C1415.97 627.075 1416.09 626.676 1416.33 626.363C1416.58 626.051 1416.96 625.756 1417.48 625.478C1418.42 624.992 1419.5 624.627 1420.71 624.384C1421.93 624.106 1423.25 623.967 1424.67 623.967Z" fill="#32365C"/>
<path d="M1450.35 649.389C1447.92 649.389 1445.94 648.851 1444.41 647.774C1442.92 646.697 1442.17 644.909 1442.17 642.408V617.664C1442.35 617.594 1442.61 617.525 1442.96 617.455C1443.34 617.351 1443.74 617.299 1444.15 617.299C1445.61 617.299 1446.34 617.924 1446.34 619.175V625.165H1454.89C1454.99 625.339 1455.09 625.582 1455.2 625.895C1455.3 626.172 1455.35 626.485 1455.35 626.832C1455.35 628.013 1454.83 628.604 1453.79 628.604H1446.34V642.148C1446.34 643.537 1446.72 644.527 1447.49 645.117C1448.29 645.673 1449.4 645.951 1450.82 645.951C1451.41 645.951 1452.07 645.847 1452.8 645.638C1453.53 645.43 1454.14 645.187 1454.62 644.909C1454.83 645.117 1455.02 645.378 1455.2 645.69C1455.37 646.003 1455.46 646.367 1455.46 646.784C1455.46 647.548 1455.01 648.173 1454.1 648.66C1453.2 649.146 1451.95 649.389 1450.35 649.389Z" fill="#32365C"/>
<path d="M1463.71 639.126C1464.65 643.676 1467.64 645.951 1472.67 645.951C1474.13 645.951 1475.45 645.708 1476.63 645.221C1477.81 644.735 1478.75 644.214 1479.44 643.659C1480.28 644.145 1480.69 644.805 1480.69 645.638C1480.69 646.124 1480.47 646.593 1480.02 647.045C1479.6 647.496 1479.01 647.896 1478.25 648.243C1477.52 648.59 1476.65 648.868 1475.64 649.076C1474.67 649.285 1473.61 649.389 1472.46 649.389C1468.43 649.389 1465.24 648.295 1462.88 646.107C1460.55 643.919 1459.39 640.724 1459.39 636.522C1459.39 634.542 1459.67 632.788 1460.22 631.26C1460.81 629.697 1461.61 628.378 1462.62 627.301C1463.66 626.225 1464.89 625.408 1466.32 624.853C1467.74 624.262 1469.29 623.967 1470.95 623.967C1472.52 623.967 1473.96 624.228 1475.28 624.749C1476.6 625.27 1477.72 626.016 1478.66 626.989C1479.63 627.926 1480.38 629.055 1480.9 630.375C1481.46 631.66 1481.74 633.084 1481.74 634.646C1481.74 635.41 1481.56 635.966 1481.21 636.313C1480.87 636.626 1480.38 636.817 1479.76 636.886L1463.71 639.126ZM1470.9 627.353C1468.78 627.353 1467.03 628.1 1465.64 629.593C1464.25 631.052 1463.52 633.153 1463.45 635.897L1477.78 633.917C1477.6 632.007 1476.93 630.444 1475.74 629.229C1474.6 627.978 1472.98 627.353 1470.9 627.353Z" fill="#32365C"/>
<path d="M1240.61 547.11V552.896H1217.57V547.11H1224.78V524.732C1224.78 521.748 1224.05 519.419 1222.59 517.745C1221.14 516.072 1219.14 515.235 1216.59 515.235C1212.15 515.235 1207.49 516.872 1202.62 520.147C1202.84 521.239 1202.95 522.33 1202.95 523.422V547.11H1210.81V552.896H1187.77V547.11H1194.98V524.732C1194.98 521.748 1194.25 519.419 1192.79 517.745C1191.34 516.072 1189.34 515.235 1186.79 515.235C1183.08 515.235 1178.67 516.69 1173.58 519.601V547.11H1181.33V552.896H1157.31V547.11H1165.61V515.78H1157.31V509.995H1173.58V514.143C1179.11 510.65 1184.21 508.903 1188.86 508.903C1191.7 508.903 1194.18 509.522 1196.29 510.759C1198.4 511.923 1200 513.561 1201.09 515.671C1204.29 513.488 1207.28 511.814 1210.04 510.65C1212.81 509.485 1215.68 508.903 1218.67 508.903C1222.74 508.903 1226.09 510.177 1228.71 512.724C1231.4 515.198 1232.75 518.691 1232.75 523.204V547.11H1240.61Z" fill="#32365C"/>
<path d="M1288.98 547.11V552.896H1275.11L1274.68 549.075C1272.35 550.822 1270.02 552.096 1267.69 552.896C1265.36 553.697 1262.74 554.097 1259.83 554.097C1255.47 554.097 1251.9 552.896 1249.13 550.495C1246.44 548.02 1245.09 544.964 1245.09 541.325C1245.09 536.667 1246.66 533.283 1249.79 531.173C1252.99 528.989 1257.18 527.898 1262.34 527.898C1266.05 527.898 1270.02 528.371 1274.24 529.317V524.841C1274.24 521.566 1273.33 519.092 1271.51 517.418C1269.77 515.744 1267.29 514.907 1264.09 514.907C1261.98 514.907 1259.54 515.271 1256.78 515.999C1254.08 516.654 1251.61 517.6 1249.35 518.837L1246.95 513.597C1249.35 512.069 1252.12 510.904 1255.25 510.104C1258.45 509.303 1261.43 508.903 1264.2 508.903C1269.8 508.903 1274.2 510.286 1277.41 513.051C1280.61 515.744 1282.21 519.419 1282.21 524.077V547.11H1288.98ZM1252.74 540.888C1252.74 543.144 1253.46 545 1254.92 546.455C1256.45 547.838 1258.49 548.53 1261.03 548.53C1265.33 548.53 1269.73 546.965 1274.24 543.836V534.011C1270.38 533.137 1266.6 532.701 1262.89 532.701C1259.98 532.701 1257.54 533.356 1255.57 534.666C1253.68 535.903 1252.74 537.977 1252.74 540.888Z" fill="#32365C"/>
<path d="M1346.84 547.11V552.896H1323.81V547.11H1330.9V524.732C1330.9 521.748 1330.18 519.419 1328.72 517.745C1327.26 516.072 1325.26 515.235 1322.72 515.235C1320.61 515.235 1318.46 515.635 1316.28 516.435C1314.16 517.163 1311.84 518.291 1309.29 519.819V547.11H1317.04V552.896H1293.02V547.11H1301.32V515.78H1293.02V509.995H1309.29V514.252C1314.97 510.686 1320.13 508.903 1324.79 508.903C1328.87 508.903 1332.21 510.177 1334.83 512.724C1337.53 515.198 1338.87 518.691 1338.87 523.204V547.11H1346.84Z" fill="#32365C"/>
<path d="M1395.16 547.11V552.896H1381.29L1380.86 549.075C1378.53 550.822 1376.2 552.096 1373.87 552.896C1371.54 553.697 1368.92 554.097 1366.01 554.097C1361.64 554.097 1358.08 552.896 1355.31 550.495C1352.62 548.02 1351.27 544.964 1351.27 541.325C1351.27 536.667 1352.84 533.283 1355.97 531.173C1359.17 528.989 1363.35 527.898 1368.52 527.898C1372.23 527.898 1376.2 528.371 1380.42 529.317V524.841C1380.42 521.566 1379.51 519.092 1377.69 517.418C1375.94 515.744 1373.47 514.907 1370.27 514.907C1368.16 514.907 1365.72 515.271 1362.95 515.999C1360.26 516.654 1357.79 517.6 1355.53 518.837L1353.13 513.597C1355.53 512.069 1358.3 510.904 1361.43 510.104C1364.63 509.303 1367.61 508.903 1370.38 508.903C1375.98 508.903 1380.38 510.286 1383.59 513.051C1386.79 515.744 1388.39 519.419 1388.39 524.077V547.11H1395.16ZM1358.91 540.888C1358.91 543.144 1359.64 545 1361.1 546.455C1362.63 547.838 1364.66 548.53 1367.21 548.53C1371.51 548.53 1375.91 546.965 1380.42 543.836V534.011C1376.56 533.137 1372.78 532.701 1369.07 532.701C1366.16 532.701 1363.72 533.356 1361.75 534.666C1359.86 535.903 1358.91 537.977 1358.91 540.888Z" fill="#32365C"/>
<path d="M1444.51 509.995V515.78V553.879C1444.51 560.501 1442.5 565.414 1438.5 568.616C1434.5 571.818 1429.15 573.419 1422.45 573.419C1417.36 573.419 1411.97 572.546 1406.3 570.799L1407.94 564.468C1413.47 566.141 1418.23 566.978 1422.24 566.978C1426.75 566.978 1430.24 565.923 1432.72 563.813C1435.19 561.775 1436.43 558.645 1436.43 554.424V548.53C1434.39 550.058 1432.1 551.222 1429.55 552.023C1427.08 552.823 1424.6 553.224 1422.13 553.224C1418.05 553.224 1414.34 552.35 1410.99 550.604C1407.64 548.784 1404.99 546.201 1403.02 542.853C1401.13 539.505 1400.18 535.575 1400.18 531.063C1400.18 526.406 1401.13 522.439 1403.02 519.165C1404.92 515.817 1407.5 513.306 1410.77 511.632C1414.12 509.886 1417.83 509.012 1421.91 509.012C1424.38 509.012 1426.93 509.449 1429.55 510.322C1432.17 511.123 1434.43 512.287 1436.32 513.815V509.995H1444.51ZM1408.59 531.609C1408.59 536.485 1410.01 540.306 1412.85 543.071C1415.69 545.837 1419.32 547.22 1423.76 547.22C1425.87 547.22 1428.02 546.856 1430.2 546.128C1432.46 545.4 1434.54 544.345 1436.43 542.962L1436.32 519.383C1434.21 518 1431.95 516.908 1429.55 516.108C1427.22 515.307 1425 514.907 1422.89 514.907C1418.6 514.907 1415.14 516.399 1412.52 519.383C1409.9 522.294 1408.59 526.369 1408.59 531.609Z" fill="#32365C"/>
<path d="M1498.74 533.137H1481.05H1463.37C1463.88 537.722 1465.51 541.361 1468.28 544.054C1471.05 546.674 1474.57 547.984 1478.87 547.984C1484.84 547.984 1490.26 545.691 1495.13 541.106L1497.97 546.019C1495.86 548.493 1493.21 550.495 1490 552.023C1486.8 553.478 1483.2 554.206 1479.2 554.206C1474.68 554.206 1470.57 553.26 1466.86 551.368C1463.15 549.476 1460.24 546.819 1458.13 543.399C1456.02 539.906 1454.96 535.939 1454.96 531.5C1454.96 526.988 1455.94 523.022 1457.91 519.601C1459.95 516.108 1462.68 513.452 1466.1 511.632C1469.59 509.74 1473.45 508.794 1477.67 508.794C1484.22 508.794 1489.35 510.795 1493.06 514.798C1496.84 518.801 1498.74 524.222 1498.74 531.063V533.137ZM1490.77 528.116C1490.77 523.968 1489.53 520.693 1487.06 518.291C1484.65 515.89 1481.52 514.689 1477.67 514.689C1473.88 514.689 1470.68 515.89 1468.06 518.291C1465.44 520.693 1463.88 523.968 1463.37 528.116H1490.77Z" fill="#32365C"/>
<path d="M1533.66 509.449C1536.43 509.449 1539.34 510.177 1542.4 511.632L1540.43 518.946C1537.96 517.345 1535.45 516.545 1532.9 516.545C1529.99 516.545 1527.55 517.745 1525.58 520.147C1523.69 522.476 1522.75 525.714 1522.75 529.863L1522.64 547.11H1530.28V552.896H1506.37V547.11H1514.67V515.78H1506.37V509.995H1522.64V517.855C1524.97 512.251 1528.64 509.449 1533.66 509.449Z" fill="#32365C"/>
<path d="M776.586 508.903C780.516 508.903 784.046 509.776 787.175 511.523C790.377 513.197 792.888 515.708 794.707 519.055C796.527 522.33 797.436 526.26 797.436 530.845C797.436 535.575 796.417 539.687 794.38 543.181C792.415 546.674 789.722 549.366 786.302 551.259C782.954 553.078 779.279 553.988 775.276 553.988C772.729 553.988 770.291 553.588 767.962 552.787C765.706 551.986 763.85 550.931 762.395 549.621L762.286 564.14H770.691V569.926H746.566V564.14H754.317V515.78H746.784V509.995H761.849L761.958 514.034C764.069 512.36 766.361 511.086 768.835 510.213C771.382 509.34 773.966 508.903 776.586 508.903ZM773.857 547.984C778.369 547.984 782.008 546.565 784.773 543.726C787.612 540.815 789.031 536.74 789.031 531.5C789.031 526.406 787.648 522.403 784.882 519.492C782.19 516.581 778.696 515.125 774.403 515.125C772.656 515.125 770.618 515.489 768.29 516.217C766.033 516.945 764.032 518.036 762.286 519.492L762.395 543.836C764.069 545.145 765.888 546.164 767.853 546.892C769.891 547.62 771.892 547.984 773.857 547.984Z" fill="#32365C"/>
<path d="M848.494 547.11V552.896H834.63L834.194 549.075C831.865 550.822 829.536 552.096 827.207 552.896C824.878 553.697 822.259 554.097 819.347 554.097C814.981 554.097 811.415 552.896 808.649 550.495C805.957 548.02 804.61 544.964 804.61 541.325C804.61 536.667 806.175 533.283 809.304 531.173C812.507 528.989 816.691 527.898 821.858 527.898C825.57 527.898 829.536 528.371 833.757 529.317V524.841C833.757 521.566 832.847 519.092 831.028 517.418C829.281 515.744 826.807 514.907 823.605 514.907C821.494 514.907 819.056 515.271 816.291 515.999C813.598 516.654 811.124 517.6 808.868 518.837L806.466 513.597C808.868 512.069 811.633 510.904 814.763 510.104C817.965 509.303 820.949 508.903 823.714 508.903C829.318 508.903 833.721 510.286 836.923 513.051C840.125 515.744 841.726 519.419 841.726 524.077V547.11H848.494ZM812.252 540.888C812.252 543.144 812.98 545 814.435 546.455C815.963 547.838 818.001 548.53 820.548 548.53C824.842 548.53 829.245 546.965 833.757 543.836V534.011C829.9 533.137 826.116 532.701 822.404 532.701C819.493 532.701 817.055 533.356 815.09 534.666C813.198 535.903 812.252 537.977 812.252 540.888Z" fill="#32365C"/>
<path d="M877.319 515.125C872.662 515.125 868.841 516.617 865.857 519.601C862.873 522.585 861.382 526.369 861.382 530.954C861.382 535.903 862.837 539.942 865.748 543.071C868.659 546.128 872.443 547.656 877.101 547.656C880.594 547.656 883.542 547.001 885.943 545.691C888.345 544.309 890.674 542.344 892.93 539.796L896.314 544.709C894.058 547.62 891.256 549.912 887.908 551.586C884.561 553.187 880.704 553.988 876.337 553.988C871.825 553.988 867.786 553.005 864.22 551.04C860.727 549.075 857.961 546.383 855.923 542.962C853.958 539.469 852.976 535.539 852.976 531.173C852.976 526.806 853.922 522.949 855.814 519.601C857.779 516.181 860.472 513.524 863.892 511.632C867.313 509.74 871.17 508.794 875.464 508.794C878.666 508.794 881.504 509.376 883.978 510.541C886.453 511.705 888.345 513.27 889.655 515.235V509.776H896.423V525.169H890.31C889.655 522.039 888.163 519.601 885.834 517.855C883.505 516.035 880.667 515.125 877.319 515.125Z" fill="#32365C"/>
<path d="M1002.65 547.11V552.896H988.782L988.345 549.075C986.016 550.822 983.687 552.096 981.359 552.896C979.03 553.697 976.41 554.097 973.499 554.097C969.132 554.097 965.566 552.896 962.801 550.495C960.108 548.02 958.762 544.964 958.762 541.325C958.762 536.667 960.326 533.283 963.456 531.173C966.658 528.989 970.842 527.898 976.009 527.898C979.721 527.898 983.687 528.371 987.908 529.317V524.841C987.908 521.566 986.999 519.092 985.179 517.418C983.433 515.744 980.958 514.907 977.756 514.907C975.646 514.907 973.208 515.271 970.442 515.999C967.749 516.654 965.275 517.6 963.019 518.837L960.617 513.597C963.019 512.069 965.784 510.904 968.914 510.104C972.116 509.303 975.1 508.903 977.865 508.903C983.469 508.903 987.872 510.286 991.074 513.051C994.276 515.744 995.877 519.419 995.877 524.077V547.11H1002.65ZM966.403 540.888C966.403 543.144 967.131 545 968.586 546.455C970.115 547.838 972.152 548.53 974.7 548.53C978.993 548.53 983.396 546.965 987.908 543.836V534.011C984.051 533.137 980.267 532.701 976.555 532.701C973.644 532.701 971.206 533.356 969.241 534.666C967.349 535.903 966.403 537.977 966.403 540.888Z" fill="#32365C"/>
<path d="M1051.99 509.995V515.78V553.879C1051.99 560.501 1049.99 565.414 1045.99 568.616C1041.99 571.818 1036.64 573.419 1029.94 573.419C1024.85 573.419 1019.46 572.546 1013.79 570.799L1015.42 564.467C1020.95 566.141 1025.72 566.978 1029.72 566.978C1034.24 566.978 1037.73 565.923 1040.2 563.813C1042.68 561.775 1043.92 558.645 1043.92 554.424V548.53C1041.88 550.058 1039.59 551.222 1037.04 552.023C1034.56 552.823 1032.09 553.224 1029.61 553.224C1025.54 553.224 1021.83 552.35 1018.48 550.604C1015.13 548.784 1012.48 546.201 1010.51 542.853C1008.62 539.505 1007.67 535.575 1007.67 531.063C1007.67 526.406 1008.62 522.439 1010.51 519.165C1012.4 515.817 1014.99 513.306 1018.26 511.632C1021.61 509.886 1025.32 509.012 1029.4 509.012C1031.87 509.012 1034.42 509.449 1037.04 510.322C1039.66 511.123 1041.91 512.287 1043.81 513.815V509.995H1051.99ZM1016.08 531.609C1016.08 536.485 1017.5 540.306 1020.34 543.071C1023.17 545.837 1026.81 547.22 1031.25 547.22C1033.36 547.22 1035.51 546.856 1037.69 546.128C1039.95 545.4 1042.02 544.345 1043.92 542.962L1043.81 519.383C1041.7 518 1039.44 516.908 1037.04 516.108C1034.71 515.307 1032.49 514.907 1030.38 514.907C1026.09 514.907 1022.63 516.399 1020.01 519.383C1017.39 522.294 1016.08 526.369 1016.08 531.609Z" fill="#32365C"/>
<path d="M1106.22 533.137H1070.85C1071.36 537.722 1072.99 541.361 1075.76 544.054C1078.52 546.674 1082.05 547.984 1086.35 547.984C1092.32 547.984 1097.74 545.691 1102.61 541.106L1105.45 546.019C1103.34 548.493 1100.68 550.495 1097.48 552.023C1094.28 553.478 1090.68 554.206 1086.68 554.206C1082.16 554.206 1078.05 553.26 1074.34 551.368C1070.63 549.476 1067.72 546.819 1065.61 543.399C1063.5 539.906 1062.44 535.939 1062.44 531.5C1062.44 526.988 1063.42 523.022 1065.39 519.601C1067.43 516.108 1070.16 513.452 1073.58 511.632C1077.07 509.74 1080.93 508.794 1085.15 508.794C1091.7 508.794 1096.83 510.795 1100.54 514.798C1104.32 518.801 1106.22 524.222 1106.22 531.063V533.137ZM1098.25 528.116C1098.25 523.968 1097.01 520.693 1094.54 518.291C1092.13 515.89 1089 514.689 1085.15 514.689C1081.36 514.689 1078.16 515.89 1075.54 518.291C1072.92 520.693 1071.36 523.968 1070.85 528.116H1098.25Z" fill="#32365C"/>
<path d="M366.13 547.11H374.644V497.222H366.13V491.437H418.637V510.104H411.76V497.222H383.596V517.854H402.154H406.739V524.077H402.154H383.596V547.11H392.111V552.896H366.13V547.11Z" fill="#32365C"/>
<path d="M446.91 554.206C442.325 554.206 438.286 553.26 434.793 551.368C431.3 549.476 428.57 546.819 426.606 543.399C424.713 539.906 423.767 535.903 423.767 531.391C423.767 526.879 424.713 522.912 426.606 519.492C428.57 516.071 431.3 513.451 434.793 511.632C438.286 509.74 442.325 508.794 446.91 508.794C451.495 508.794 455.534 509.74 459.027 511.632C462.593 513.451 465.359 516.071 467.324 519.492C469.289 522.912 470.271 526.842 470.271 531.282C470.271 535.794 469.289 539.796 467.324 543.29C465.359 546.783 462.593 549.476 459.027 551.368C455.534 553.26 451.495 554.206 446.91 554.206ZM446.91 547.874C451.422 547.874 455.061 546.383 457.826 543.399C460.592 540.342 461.975 536.303 461.975 531.282C461.975 526.406 460.592 522.512 457.826 519.601C455.061 516.617 451.422 515.125 446.91 515.125C442.398 515.125 438.796 516.617 436.103 519.601C433.41 522.585 432.064 526.515 432.064 531.391C432.064 536.339 433.41 540.342 436.103 543.399C438.868 546.383 442.471 547.874 446.91 547.874Z" fill="#32365C"/>
<path d="M504.067 509.449C506.832 509.449 509.743 510.177 512.8 511.632L510.835 518.946C508.36 517.345 505.85 516.544 503.303 516.544C500.391 516.544 497.954 517.745 495.989 520.147C494.096 522.476 493.15 525.714 493.15 529.862L493.041 547.11H500.683V552.896H476.776V547.11H485.072V515.78H476.776V509.995H493.041V517.854C495.37 512.251 499.045 509.449 504.067 509.449Z" fill="#32365C"/>
<path d="M536.788 552.896C528.491 552.896 524.343 548.675 524.343 540.233V515.78H517.247V509.995H524.343V495.367L532.421 492.201V509.995H543.774V515.78H532.421V539.796C532.421 542.489 532.858 544.381 533.731 545.473C534.604 546.565 536.096 547.11 538.207 547.11H544.757V552.896H536.788Z" fill="#32365C"/>
<path d="M579.01 509.449C581.776 509.449 584.687 510.177 587.743 511.632L585.778 518.946C583.304 517.345 580.793 516.544 578.246 516.544C575.335 516.544 572.897 517.745 570.932 520.147C569.04 522.476 568.094 525.714 568.094 529.862L567.985 547.11H575.626V552.896H551.719V547.11H560.016V515.78H551.719V509.995H567.985V517.854C570.313 512.251 573.989 509.449 579.01 509.449Z" fill="#32365C"/>
<path d="M638.149 547.11V552.896H624.285L623.848 549.075C621.52 550.822 619.191 552.095 616.862 552.896C614.533 553.697 611.913 554.097 609.002 554.097C604.636 554.097 601.07 552.896 598.304 550.494C595.611 548.02 594.265 544.963 594.265 541.325C594.265 536.667 595.83 533.283 598.959 531.172C602.161 528.989 606.346 527.897 611.513 527.897C615.224 527.897 619.191 528.371 623.412 529.317V524.841C623.412 521.566 622.502 519.092 620.683 517.418C618.936 515.744 616.462 514.907 613.259 514.907C611.149 514.907 608.711 515.271 605.946 515.999C603.253 516.654 600.778 517.6 598.522 518.837L596.121 513.597C598.522 512.069 601.288 510.904 604.417 510.104C607.619 509.303 610.603 508.903 613.369 508.903C618.972 508.903 623.375 510.286 626.577 513.051C629.78 515.744 631.381 519.419 631.381 524.077V547.11H638.149ZM601.906 540.888C601.906 543.144 602.634 545 604.09 546.455C605.618 547.838 607.656 548.529 610.203 548.529C614.497 548.529 618.9 546.965 623.412 543.835V534.011C619.555 533.137 615.77 532.701 612.059 532.701C609.148 532.701 606.71 533.356 604.745 534.666C602.853 535.903 601.906 537.977 601.906 540.888Z" fill="#32365C"/>
<path d="M696.012 547.11V552.896H672.978V547.11H680.074V524.732C680.074 521.748 679.346 519.419 677.89 517.745C676.435 516.071 674.434 515.234 671.886 515.234C669.776 515.234 667.629 515.635 665.446 516.435C663.335 517.163 661.006 518.291 658.459 519.819V547.11H666.21V552.896H642.194V547.11H650.49V515.78H642.194V509.995H658.459V514.252C664.136 510.686 669.303 508.903 673.961 508.903C678.036 508.903 681.384 510.177 684.004 512.724C686.696 515.198 688.043 518.691 688.043 523.203V547.11H696.012Z" fill="#32365C"/>
<path d="M902.974 547.11H911.052V496.022H903.192V490.345H919.13V529.972V531.827V547.11H926.116V552.896H902.974V547.11Z" fill="#32365C"/>
<path fill-rule="evenodd" clip-rule="evenodd" d="M919.128 531.819L940.196 552.888H952.75V547.102H944.235L927.424 530.509L919.123 530.51L919.128 531.819Z" fill="#32365C"/>
<path fill-rule="evenodd" clip-rule="evenodd" d="M919.128 529.199L940.019 509.978H952.573V515.764H944.058L927.424 530.509L919.123 530.508L919.128 529.199Z" fill="#32365C"/>
<path d="M1112.68 357.574L1125.5 260.404H1144L1146.61 270.556C1156.1 264.127 1166.32 259.135 1178.05 259.135C1184.21 259.135 1189.14 260.343 1192.83 262.761C1196.64 265.057 1199.69 268.683 1201.99 273.638C1210.98 265.645 1226.63 259.135 1238.99 259.135C1248.06 259.135 1254.64 261.189 1258.73 265.299C1262.94 269.287 1265.14 275.028 1265.33 282.521C1265.43 286.839 1265.25 291.325 1264.56 295.574L1256.3 357.574H1233.81L1242.08 296.117C1242.29 294.788 1242.38 293.338 1242.34 291.767C1242.13 283.427 1237.37 279.258 1228.06 279.258C1219.68 279.258 1208.82 284.239 1202.18 288.866C1202.52 291.605 1202.35 294.522 1201.85 297.205L1193.73 357.574H1171.42L1179.35 297.024C1179.56 295.936 1179.66 295.03 1179.65 294.305C1179.75 293.459 1179.78 292.552 1179.76 291.585C1179.66 287.718 1178.5 284.696 1176.27 282.521C1174.04 280.345 1170.51 279.258 1165.67 279.258C1157.52 279.258 1151.13 283.938 1144.51 288.141L1135.17 357.574H1112.68Z" fill="#4D41B1"/>
<path d="M1000.47 400.459L1018.84 263.587C1026.19 262.258 1033.6 261.23 1041.08 260.505C1048.55 259.659 1056.82 259.236 1065.89 259.236C1077.02 259.236 1085.13 262.076 1090.23 267.757C1095.45 273.437 1098.2 282.018 1098.48 293.499C1098.56 296.521 1098.46 299.663 1098.17 302.926C1097.89 306.19 1097.55 309.453 1097.15 312.716C1095.1 327.823 1090.31 339.244 1082.76 346.979C1075.21 354.714 1065.33 358.582 1053.12 358.582C1048.4 358.582 1044.04 358.219 1040.03 357.494C1036.03 356.769 1032.37 355.621 1029.07 354.05L1022.96 400.459H1000.47ZM1050.11 339.547C1057.85 339.547 1063.65 337.009 1067.51 331.932C1071.38 326.856 1074.08 318.94 1075.63 308.184C1075.83 306.613 1076.03 304.86 1076.23 302.926C1076.42 300.993 1076.5 299.119 1076.45 297.307C1076.29 290.659 1074.89 285.704 1072.27 282.441C1069.77 279.057 1065.8 277.365 1060.36 277.365L1039.32 277.546L1031.35 336.283C1034.76 337.371 1037.74 338.217 1040.3 338.821C1042.97 339.305 1046.24 339.547 1050.11 339.547Z" fill="#4D41B1"/>
<path d="M934.634 357.495L945.013 278.635H925.936L927.934 264.132L947.461 260.325L949.641 245.822C950.349 240.262 951.801 235.428 953.997 231.319C956.311 227.089 959.676 223.826 964.093 221.529C968.631 219.233 974.649 218.085 982.146 218.085C986.136 218.085 995.181 218.266 999.06 218.629C1002.94 218.87 1008.82 219.233 1011.62 219.716L1009.48 236.032H986.4C980.958 236.032 977.182 237.362 975.071 240.021C972.958 242.559 971.604 246.487 971.01 251.804L969.952 260.325H1000.82L998.371 278.635H967.504L956.943 357.495H934.634Z" fill="#4D41B1"/>
<path d="M698.012 338.175H764.357L756.583 398.784C756.46 399.742 755.645 400.459 754.679 400.459H691.478C690.706 400.459 690.111 399.783 690.208 399.018L698.012 338.175Z" fill="#8F61F6"/>
<path d="M766.801 267.17H707.745L699.756 329.454H766.101L773.161 274.409C769.181 274.363 766.339 271.139 766.801 267.17Z" fill="#6F58DF"/>
<path d="M849.204 267.17H791.01C790.176 271.789 786.012 274.456 782.337 274.409L775.32 329.454H839.572C840.539 329.454 841.355 328.736 841.477 327.777L849.204 267.17Z" fill="#6F58DF"/>
<path fill-rule="evenodd" clip-rule="evenodd" d="M783.998 196.164C752.379 195.761 716.555 218.702 709.384 258.448H768.02C768.854 253.828 773.018 251.162 776.693 251.209L783.998 196.164ZM792.838 196.161H857.325C858.096 196.161 858.693 196.838 858.595 197.603L850.838 258.446L792.186 258.445C792.647 254.474 789.803 251.249 785.82 251.206L792.838 196.161Z" fill="#4E53D1"/>
</svg>
