<svg width="1920" height="769" viewBox="0 0 1920 769" fill="none" xmlns="http://www.w3.org/2000/svg">
<rect y="0.666687" width="1920" height="768" fill="#4D41B1"/>
<path d="M825.971 648.479C825.798 648.548 825.537 648.618 825.19 648.687C824.843 648.791 824.46 648.843 824.044 648.843C822.55 648.843 821.804 648.218 821.804 646.968V629.308C821.804 628.51 821.943 627.884 822.22 627.433C822.533 626.947 823.037 626.478 823.731 626.026C824.634 625.436 825.85 624.932 827.378 624.516C828.941 624.064 830.694 623.839 832.639 623.839C835.418 623.839 836.807 624.533 836.807 625.922C836.807 626.27 836.755 626.599 836.65 626.912C836.546 627.19 836.407 627.433 836.234 627.641C835.886 627.572 835.435 627.502 834.879 627.433C834.324 627.364 833.768 627.329 833.212 627.329C831.615 627.329 830.208 627.502 828.993 627.85C827.777 628.162 826.77 628.544 825.971 628.996V648.479Z" fill="white"/>
<path d="M841.695 624.62C841.869 624.55 842.129 624.481 842.476 624.412C842.858 624.307 843.258 624.255 843.675 624.255C845.133 624.255 845.862 624.898 845.862 626.183V639.571C845.862 641.828 846.453 643.443 847.634 644.415C848.814 645.353 850.447 645.822 852.53 645.822C853.92 645.822 855.1 645.683 856.073 645.405C857.045 645.093 857.809 644.78 858.365 644.468V624.62C858.539 624.55 858.799 624.481 859.146 624.412C859.528 624.307 859.91 624.255 860.292 624.255C861.786 624.255 862.532 624.898 862.532 626.183V644.311C862.532 645.041 862.428 645.631 862.22 646.082C862.046 646.499 861.595 646.916 860.865 647.333C860.067 647.784 858.955 648.218 857.531 648.635C856.142 649.052 854.458 649.26 852.478 649.26C849.005 649.26 846.331 648.496 844.456 646.968C842.615 645.44 841.695 643.044 841.695 639.779V624.62Z" fill="white"/>
<path d="M887.006 632.903C887.006 630.958 886.451 629.534 885.339 628.631C884.263 627.728 882.804 627.277 880.963 627.277C879.574 627.277 878.341 627.45 877.265 627.798C876.188 628.145 875.268 628.544 874.504 628.996V648.479C874.33 648.548 874.07 648.618 873.722 648.687C873.375 648.791 872.993 648.843 872.576 648.843C871.083 648.843 870.336 648.218 870.336 646.968V629.204C870.336 628.475 870.475 627.884 870.753 627.433C871.066 626.947 871.587 626.478 872.316 626.026C873.219 625.471 874.417 624.967 875.91 624.516C877.404 624.064 879.088 623.839 880.963 623.839C884.124 623.839 886.607 624.55 888.413 625.974C890.253 627.398 891.174 629.638 891.174 632.694V648.479C891 648.548 890.722 648.618 890.34 648.687C889.993 648.791 889.628 648.843 889.246 648.843C887.753 648.843 887.006 648.218 887.006 646.968V632.903Z" fill="white"/>
<path d="M975.581 652.594C973.15 652.594 971.17 652.056 969.642 650.979C968.149 649.903 967.402 648.114 967.402 645.614V620.869C967.576 620.8 967.836 620.73 968.184 620.661C968.566 620.556 968.965 620.504 969.382 620.504C970.84 620.504 971.57 621.13 971.57 622.38V628.371H980.113C980.217 628.544 980.322 628.787 980.426 629.1C980.53 629.378 980.582 629.69 980.582 630.038C980.582 631.218 980.061 631.809 979.019 631.809H971.57V645.353C971.57 646.742 971.952 647.732 972.716 648.322C973.515 648.878 974.626 649.156 976.05 649.156C976.64 649.156 977.3 649.052 978.029 648.843C978.759 648.635 979.366 648.392 979.853 648.114C980.061 648.322 980.252 648.583 980.426 648.895C980.599 649.208 980.686 649.573 980.686 649.989C980.686 650.753 980.235 651.379 979.332 651.865C978.429 652.351 977.179 652.594 975.581 652.594Z" fill="white"/>
<path d="M988.939 642.332C989.877 646.881 992.863 649.156 997.899 649.156C999.358 649.156 1000.68 648.913 1001.86 648.427C1003.04 647.94 1003.98 647.419 1004.67 646.864C1005.5 647.35 1005.92 648.01 1005.92 648.843C1005.92 649.33 1005.7 649.798 1005.24 650.25C1004.83 650.701 1004.24 651.101 1003.47 651.448C1002.74 651.795 1001.88 652.073 1000.87 652.282C999.896 652.49 998.837 652.594 997.691 652.594C993.662 652.594 990.467 651.5 988.105 649.312C985.779 647.124 984.615 643.929 984.615 639.727C984.615 637.747 984.893 635.994 985.449 634.465C986.039 632.903 986.838 631.583 987.845 630.506C988.887 629.43 990.12 628.614 991.544 628.058C992.968 627.468 994.513 627.172 996.18 627.172C997.743 627.172 999.184 627.433 1000.5 627.954C1001.82 628.475 1002.95 629.221 1003.89 630.194C1004.86 631.132 1005.61 632.26 1006.13 633.58C1006.69 634.865 1006.96 636.289 1006.96 637.852C1006.96 638.616 1006.79 639.171 1006.44 639.519C1006.1 639.831 1005.61 640.022 1004.98 640.092L988.939 642.332ZM996.128 630.558C994.009 630.558 992.256 631.305 990.866 632.799C989.477 634.257 988.748 636.358 988.679 639.102L1003 637.122C1002.83 635.212 1002.15 633.649 1000.97 632.434C999.827 631.184 998.212 630.558 996.128 630.558Z" fill="white"/>
<path d="M1030.27 645.509C1030.27 647.732 1029.45 649.468 1027.82 650.719C1026.19 651.969 1023.83 652.594 1020.74 652.594C1019.42 652.594 1018.2 652.473 1017.09 652.229C1015.98 652.021 1015.02 651.743 1014.23 651.396C1013.46 651.014 1012.85 650.597 1012.4 650.146C1011.99 649.659 1011.78 649.173 1011.78 648.687C1011.78 648.27 1011.88 647.871 1012.09 647.489C1012.33 647.107 1012.68 646.777 1013.13 646.499C1014.07 647.194 1015.16 647.819 1016.41 648.375C1017.66 648.895 1019.09 649.156 1020.69 649.156C1024.3 649.156 1026.1 647.94 1026.1 645.509C1026.1 643.53 1024.91 642.245 1022.51 641.654L1018.19 640.508C1016.07 639.953 1014.52 639.154 1013.55 638.112C1012.58 637.035 1012.09 635.664 1012.09 633.997C1012.09 633.094 1012.26 632.225 1012.61 631.392C1012.99 630.558 1013.57 629.829 1014.33 629.204C1015.09 628.579 1016.03 628.093 1017.14 627.745C1018.29 627.363 1019.63 627.172 1021.15 627.172C1023.59 627.172 1025.55 627.537 1027.04 628.266C1028.53 628.961 1029.28 629.777 1029.28 630.715C1029.28 631.166 1029.16 631.566 1028.92 631.913C1028.71 632.26 1028.41 632.521 1028.03 632.694C1027.41 632.278 1026.52 631.826 1025.37 631.34C1024.23 630.854 1022.87 630.611 1021.31 630.611C1019.75 630.611 1018.5 630.906 1017.56 631.496C1016.66 632.087 1016.21 632.92 1016.21 633.997C1016.21 634.795 1016.47 635.473 1016.99 636.028C1017.51 636.584 1018.38 637.001 1019.59 637.279L1023.19 638.164C1025.55 638.755 1027.32 639.64 1028.5 640.821C1029.68 641.967 1030.27 643.53 1030.27 645.509Z" fill="white"/>
<path d="M1044.82 652.594C1042.39 652.594 1040.41 652.056 1038.88 650.979C1037.39 649.903 1036.64 648.114 1036.64 645.614V620.869C1036.81 620.8 1037.07 620.73 1037.42 620.661C1037.8 620.556 1038.2 620.504 1038.62 620.504C1040.08 620.504 1040.81 621.13 1040.81 622.38V628.371H1049.35C1049.46 628.544 1049.56 628.787 1049.66 629.1C1049.77 629.378 1049.82 629.69 1049.82 630.038C1049.82 631.218 1049.3 631.809 1048.26 631.809H1040.81V645.353C1040.81 646.742 1041.19 647.732 1041.95 648.322C1042.75 648.878 1043.86 649.156 1045.29 649.156C1045.88 649.156 1046.54 649.052 1047.27 648.843C1048 648.635 1048.6 648.392 1049.09 648.114C1049.3 648.322 1049.49 648.583 1049.66 648.895C1049.84 649.208 1049.92 649.573 1049.92 649.989C1049.92 650.753 1049.47 651.379 1048.57 651.865C1047.67 652.351 1046.42 652.594 1044.82 652.594Z" fill="white"/>
<path d="M1130.95 653.22C1130.77 653.29 1130.51 653.359 1130.17 653.429C1129.82 653.533 1129.44 653.585 1129.02 653.585C1127.53 653.585 1126.78 652.96 1126.78 651.71V629.362C1126.95 629.292 1127.21 629.223 1127.56 629.153C1127.94 629.049 1128.34 628.997 1128.76 628.997C1130.22 628.997 1130.95 629.639 1130.95 630.924V653.22ZM1126.15 621.652C1126.15 620.922 1126.4 620.315 1126.88 619.828C1127.4 619.307 1128.06 619.047 1128.86 619.047C1129.66 619.047 1130.3 619.307 1130.79 619.828C1131.28 620.315 1131.52 620.922 1131.52 621.652C1131.52 622.381 1131.28 623.006 1130.79 623.527C1130.3 624.013 1129.66 624.256 1128.86 624.256C1128.06 624.256 1127.4 624.013 1126.88 623.527C1126.4 623.006 1126.15 622.381 1126.15 621.652Z" fill="white"/>
<path d="M1155.75 637.644C1155.75 635.7 1155.2 634.276 1154.09 633.373C1153.01 632.47 1151.55 632.018 1149.71 632.018C1148.32 632.018 1147.09 632.192 1146.01 632.539C1144.94 632.887 1144.02 633.286 1143.25 633.737V653.22C1143.08 653.29 1142.82 653.359 1142.47 653.429C1142.12 653.533 1141.74 653.585 1141.32 653.585C1139.83 653.585 1139.08 652.96 1139.08 651.71V633.946C1139.08 633.216 1139.22 632.626 1139.5 632.175C1139.81 631.688 1140.33 631.22 1141.06 630.768C1141.97 630.212 1143.16 629.709 1144.66 629.257C1146.15 628.806 1147.84 628.58 1149.71 628.58C1152.87 628.58 1155.35 629.292 1157.16 630.716C1159 632.14 1159.92 634.38 1159.92 637.436V653.22C1159.75 653.29 1159.47 653.359 1159.09 653.429C1158.74 653.533 1158.38 653.585 1157.99 653.585C1156.5 653.585 1155.75 652.96 1155.75 651.71V637.644Z" fill="white"/>
<path d="M1184.71 646.917C1184.71 649.14 1183.89 650.876 1182.26 652.126C1180.63 653.377 1178.27 654.002 1175.17 654.002C1173.86 654.002 1172.64 653.88 1171.53 653.637C1170.42 653.429 1169.46 653.151 1168.66 652.804C1167.9 652.422 1167.29 652.005 1166.84 651.553C1166.42 651.067 1166.21 650.581 1166.21 650.095C1166.21 649.678 1166.32 649.279 1166.53 648.897C1166.77 648.515 1167.12 648.185 1167.57 647.907C1168.51 648.601 1169.6 649.227 1170.85 649.782C1172.1 650.303 1173.53 650.564 1175.12 650.564C1178.73 650.564 1180.54 649.348 1180.54 646.917C1180.54 644.938 1179.34 643.653 1176.95 643.062L1172.62 641.916C1170.5 641.36 1168.96 640.562 1167.99 639.52C1167.01 638.443 1166.53 637.071 1166.53 635.404C1166.53 634.501 1166.7 633.633 1167.05 632.8C1167.43 631.966 1168 631.237 1168.77 630.612C1169.53 629.987 1170.47 629.5 1171.58 629.153C1172.73 628.771 1174.06 628.58 1175.59 628.58C1178.02 628.58 1179.98 628.945 1181.48 629.674C1182.97 630.369 1183.72 631.185 1183.72 632.123C1183.72 632.574 1183.6 632.973 1183.35 633.321C1183.15 633.668 1182.85 633.928 1182.47 634.102C1181.84 633.685 1180.96 633.234 1179.81 632.748C1178.67 632.261 1177.31 632.018 1175.75 632.018C1174.18 632.018 1172.93 632.314 1172 632.904C1171.09 633.494 1170.64 634.328 1170.64 635.404C1170.64 636.203 1170.9 636.88 1171.42 637.436C1171.94 637.992 1172.81 638.408 1174.03 638.686L1177.62 639.572C1179.98 640.162 1181.76 641.048 1182.94 642.229C1184.12 643.375 1184.71 644.938 1184.71 646.917Z" fill="white"/>
<path d="M1199.26 654.002C1196.82 654.002 1194.85 653.464 1193.32 652.387C1191.82 651.31 1191.08 649.522 1191.08 647.021V622.277C1191.25 622.207 1191.51 622.138 1191.86 622.068C1192.24 621.964 1192.64 621.912 1193.06 621.912C1194.52 621.912 1195.24 622.537 1195.24 623.788V629.778H1203.79C1203.89 629.952 1204 630.195 1204.1 630.508C1204.2 630.785 1204.26 631.098 1204.26 631.445C1204.26 632.626 1203.74 633.216 1202.69 633.216H1195.24V646.761C1195.24 648.15 1195.63 649.14 1196.39 649.73C1197.19 650.286 1198.3 650.564 1199.72 650.564C1200.32 650.564 1200.97 650.459 1201.7 650.251C1202.43 650.043 1203.04 649.8 1203.53 649.522C1203.74 649.73 1203.93 649.991 1204.1 650.303C1204.27 650.616 1204.36 650.98 1204.36 651.397C1204.36 652.161 1203.91 652.786 1203.01 653.273C1202.1 653.759 1200.85 654.002 1199.26 654.002Z" fill="white"/>
<path d="M1219.31 650.616C1220.77 650.616 1221.97 650.477 1222.9 650.199C1223.88 649.886 1224.57 649.591 1224.99 649.313V641.76L1218.53 642.437C1216.72 642.611 1215.38 643.027 1214.52 643.687C1213.65 644.312 1213.21 645.25 1213.21 646.5C1213.21 647.82 1213.72 648.845 1214.72 649.574C1215.73 650.268 1217.26 650.616 1219.31 650.616ZM1219.26 628.58C1222.28 628.58 1224.67 629.257 1226.45 630.612C1228.22 631.966 1229.1 634.102 1229.1 637.019V649.366C1229.1 650.13 1228.95 650.72 1228.63 651.137C1228.36 651.519 1227.92 651.883 1227.33 652.231C1226.5 652.717 1225.39 653.134 1224 653.481C1222.64 653.863 1221.08 654.054 1219.31 654.054C1216.04 654.054 1213.51 653.411 1211.7 652.126C1209.93 650.841 1209.05 648.983 1209.05 646.552C1209.05 644.26 1209.79 642.541 1211.29 641.395C1212.78 640.214 1214.88 639.485 1217.59 639.207L1224.99 638.478V637.019C1224.99 635.283 1224.47 634.015 1223.42 633.216C1222.38 632.418 1220.98 632.018 1219.2 632.018C1217.75 632.018 1216.37 632.227 1215.09 632.643C1213.8 633.06 1212.66 633.529 1211.65 634.05C1211.37 633.807 1211.11 633.529 1210.87 633.216C1210.66 632.904 1210.56 632.557 1210.56 632.175C1210.56 631.688 1210.68 631.289 1210.92 630.976C1211.16 630.664 1211.55 630.369 1212.07 630.091C1213 629.605 1214.08 629.24 1215.3 628.997C1216.51 628.719 1217.83 628.58 1219.26 628.58Z" fill="white"/>
<path d="M1241.29 653.22C1241.12 653.29 1240.86 653.359 1240.51 653.429C1240.16 653.533 1239.78 653.585 1239.37 653.585C1237.87 653.585 1237.13 652.96 1237.13 651.71V619.568C1237.3 619.498 1237.56 619.429 1237.91 619.36C1238.29 619.255 1238.67 619.203 1239.05 619.203C1240.55 619.203 1241.29 619.828 1241.29 621.079V653.22Z" fill="white"/>
<path d="M1254.27 653.22C1254.09 653.29 1253.83 653.359 1253.48 653.429C1253.14 653.533 1252.75 653.585 1252.34 653.585C1250.84 653.585 1250.1 652.96 1250.1 651.71V619.568C1250.27 619.498 1250.53 619.429 1250.88 619.36C1251.26 619.255 1251.64 619.203 1252.03 619.203C1253.52 619.203 1254.27 619.828 1254.27 621.079V653.22Z" fill="white"/>
<path d="M653.01 628.606C654.607 628.606 656.101 628.867 657.49 629.388C658.879 629.908 660.077 630.69 661.084 631.732C662.126 632.774 662.925 634.093 663.481 635.691C664.071 637.288 664.366 639.164 664.366 641.317C664.366 643.505 664.071 645.398 663.481 646.995C662.89 648.593 662.057 649.912 660.98 650.954C659.938 651.996 658.671 652.778 657.177 653.299C655.684 653.785 654.052 654.028 652.281 654.028C650.579 654.028 649.033 653.819 647.644 653.403C646.29 653.021 645.179 652.569 644.31 652.048C643.581 651.597 643.077 651.163 642.8 650.746C642.522 650.294 642.383 649.704 642.383 648.975V619.594C642.556 619.524 642.817 619.455 643.164 619.386C643.546 619.281 643.946 619.229 644.362 619.229C645.821 619.229 646.55 619.854 646.55 621.105V630.429C647.314 629.943 648.217 629.526 649.259 629.179C650.336 628.797 651.586 628.606 653.01 628.606ZM652.385 632.044C651.169 632.044 650.058 632.27 649.051 632.722C648.078 633.138 647.245 633.642 646.55 634.232V648.975C647.071 649.357 647.818 649.721 648.79 650.069C649.797 650.416 650.961 650.59 652.281 650.59C653.461 650.59 654.521 650.416 655.458 650.069C656.431 649.687 657.264 649.114 657.959 648.35C658.653 647.586 659.192 646.631 659.574 645.484C659.956 644.304 660.147 642.915 660.147 641.317C660.147 639.719 659.956 638.33 659.574 637.149C659.192 635.969 658.653 635.014 657.959 634.284C657.264 633.52 656.431 632.965 655.458 632.617C654.521 632.235 653.496 632.044 652.385 632.044Z" fill="white"/>
<path d="M670.869 629.388C671.043 629.318 671.303 629.249 671.651 629.179C672.033 629.075 672.432 629.023 672.849 629.023C674.307 629.023 675.037 629.665 675.037 630.95V644.338C675.037 646.596 675.627 648.211 676.808 649.183C677.989 650.121 679.621 650.59 681.705 650.59C683.094 650.59 684.275 650.451 685.247 650.173C686.219 649.86 686.983 649.548 687.539 649.235V629.388C687.713 629.318 687.973 629.249 688.32 629.179C688.702 629.075 689.085 629.023 689.467 629.023C690.96 629.023 691.707 629.665 691.707 630.95V649.079C691.707 649.808 691.602 650.399 691.394 650.85C691.22 651.267 690.769 651.684 690.04 652.1C689.241 652.552 688.129 652.986 686.706 653.403C685.316 653.819 683.632 654.028 681.652 654.028C678.18 654.028 675.505 653.264 673.63 651.736C671.789 650.208 670.869 647.811 670.869 644.547V629.388Z" fill="white"/>
<path d="M703.938 653.246C703.765 653.316 703.504 653.385 703.157 653.455C702.81 653.559 702.428 653.611 702.011 653.611C700.518 653.611 699.771 652.986 699.771 651.736V629.388C699.945 629.318 700.205 629.249 700.552 629.179C700.934 629.075 701.334 629.023 701.75 629.023C703.209 629.023 703.938 629.665 703.938 630.95V653.246ZM699.146 621.678C699.146 620.948 699.389 620.341 699.875 619.854C700.396 619.333 701.056 619.073 701.855 619.073C702.653 619.073 703.296 619.333 703.782 619.854C704.268 620.341 704.511 620.948 704.511 621.678C704.511 622.407 704.268 623.032 703.782 623.553C703.296 624.039 702.653 624.282 701.855 624.282C701.056 624.282 700.396 624.039 699.875 623.553C699.389 623.032 699.146 622.407 699.146 621.678Z" fill="white"/>
<path d="M716.762 653.246C716.588 653.316 716.328 653.385 715.981 653.455C715.633 653.559 715.251 653.611 714.835 653.611C713.341 653.611 712.594 652.986 712.594 651.736V619.594C712.768 619.524 713.029 619.455 713.376 619.386C713.758 619.281 714.14 619.229 714.522 619.229C716.015 619.229 716.762 619.854 716.762 621.105V653.246Z" fill="white"/>
<path d="M745.575 649.392C745.575 650.086 745.418 650.624 745.106 651.006C744.828 651.388 744.376 651.77 743.751 652.152C743.057 652.604 742.067 653.021 740.782 653.403C739.497 653.819 738.021 654.028 736.354 654.028C734.479 654.028 732.76 653.785 731.197 653.299C729.634 652.812 728.28 652.066 727.134 651.059C726.022 650.017 725.154 648.714 724.529 647.151C723.938 645.554 723.643 643.644 723.643 641.421C723.643 639.164 723.956 637.236 724.581 635.639C725.206 634.007 726.04 632.669 727.081 631.628C728.158 630.586 729.408 629.822 730.832 629.335C732.291 628.849 733.836 628.606 735.468 628.606C736.58 628.606 737.656 628.745 738.698 629.023C739.74 629.301 740.643 629.648 741.407 630.065V619.594C741.581 619.524 741.841 619.455 742.189 619.386C742.571 619.281 742.953 619.229 743.335 619.229C744.828 619.229 745.575 619.854 745.575 621.105V649.392ZM741.407 633.816C740.713 633.329 739.914 632.913 739.011 632.565C738.108 632.218 737.066 632.044 735.885 632.044C734.809 632.044 733.784 632.218 732.812 632.565C731.874 632.878 731.041 633.416 730.311 634.18C729.582 634.909 728.992 635.882 728.54 637.097C728.123 638.313 727.915 639.789 727.915 641.525C727.915 644.72 728.679 647.03 730.207 648.454C731.735 649.878 733.767 650.59 736.302 650.59C737.517 650.59 738.507 650.468 739.271 650.225C740.07 649.947 740.782 649.617 741.407 649.235V633.816Z" fill="white"/>
<path d="M593.451 648.951C593.415 649.228 593.631 649.473 593.91 649.473H617.415L620.309 626.913H596.277L593.451 648.951Z" fill="white"/>
<path d="M772.75 648.951C772.715 649.228 772.93 649.473 773.21 649.473H796.714L799.608 626.913H775.577L772.75 648.951Z" fill="white"/>
<path d="M918.127 648.951C918.092 649.228 918.308 649.473 918.587 649.473H942.092L944.986 626.913H920.954L918.127 648.951Z" fill="white"/>
<path d="M1076.83 648.951C1076.8 649.228 1077.01 649.473 1077.29 649.473H1100.8L1103.69 626.913H1079.66L1076.83 648.951Z" fill="white"/>
<path d="M1281.57 648.951C1281.54 649.228 1281.75 649.473 1282.03 649.473H1305.54L1308.43 626.913H1284.4L1281.57 648.951Z" fill="white"/>
<path d="M440.421 630.637C439.24 630.637 438.146 630.845 437.139 631.262C436.132 631.644 435.264 632.234 434.535 633.033C433.805 633.797 433.232 634.77 432.815 635.95C432.399 637.096 432.19 638.416 432.19 639.909C432.19 642.896 432.937 645.188 434.43 646.786C435.924 648.349 437.921 649.13 440.421 649.13C441.88 649.13 443.095 648.939 444.068 648.557C445.04 648.14 445.908 647.671 446.672 647.15C447.054 647.359 447.367 647.619 447.61 647.932C447.853 648.244 447.975 648.626 447.975 649.078C447.975 649.564 447.784 650.016 447.402 650.432C447.02 650.849 446.481 651.214 445.787 651.526C445.127 651.839 444.328 652.082 443.391 652.256C442.488 652.464 441.498 652.568 440.421 652.568C438.615 652.568 436.948 652.308 435.42 651.787C433.892 651.266 432.572 650.484 431.461 649.443C430.35 648.401 429.482 647.098 428.856 645.536C428.231 643.938 427.919 642.063 427.919 639.909C427.919 637.791 428.249 635.95 428.909 634.388C429.568 632.79 430.454 631.453 431.565 630.376C432.677 629.3 433.979 628.501 435.472 627.98C437 627.424 438.615 627.147 440.317 627.147C441.394 627.147 442.383 627.251 443.286 627.459C444.224 627.633 445.023 627.893 445.683 628.24C446.342 628.588 446.846 628.987 447.193 629.439C447.575 629.855 447.766 630.289 447.766 630.741C447.766 631.158 447.645 631.522 447.402 631.835C447.159 632.147 446.846 632.391 446.464 632.564C445.7 632.043 444.867 631.592 443.964 631.21C443.061 630.828 441.88 630.637 440.421 630.637Z" fill="white"/>
<path d="M458.317 651.787C458.144 651.856 457.883 651.926 457.536 651.995C457.189 652.099 456.807 652.151 456.39 652.151C454.897 652.151 454.15 651.526 454.15 650.276V632.616C454.15 631.818 454.289 631.192 454.567 630.741C454.879 630.255 455.383 629.786 456.077 629.334C456.98 628.744 458.196 628.24 459.724 627.824C461.287 627.372 463.041 627.147 464.985 627.147C467.764 627.147 469.153 627.841 469.153 629.23C469.153 629.578 469.101 629.907 468.997 630.22C468.892 630.498 468.753 630.741 468.58 630.949C468.233 630.88 467.781 630.81 467.225 630.741C466.67 630.672 466.114 630.637 465.558 630.637C463.961 630.637 462.554 630.81 461.339 631.158C460.123 631.47 459.116 631.852 458.317 632.304V651.787Z" fill="white"/>
<path d="M476.502 642.306C477.439 646.855 480.426 649.13 485.462 649.13C486.92 649.13 488.24 648.887 489.421 648.401C490.602 647.915 491.539 647.394 492.234 646.838C493.068 647.324 493.484 647.984 493.484 648.817C493.484 649.304 493.259 649.773 492.807 650.224C492.39 650.675 491.8 651.075 491.036 651.422C490.307 651.769 489.438 652.047 488.431 652.256C487.459 652.464 486.4 652.568 485.253 652.568C481.225 652.568 478.03 651.474 475.668 649.286C473.341 647.098 472.178 643.903 472.178 639.701C472.178 637.722 472.456 635.968 473.011 634.44C473.602 632.877 474.401 631.557 475.408 630.481C476.45 629.404 477.683 628.588 479.106 628.032C480.53 627.442 482.076 627.147 483.743 627.147C485.306 627.147 486.747 627.407 488.067 627.928C489.386 628.449 490.515 629.196 491.453 630.168C492.425 631.106 493.172 632.234 493.693 633.554C494.248 634.839 494.526 636.263 494.526 637.826C494.526 638.59 494.352 639.145 494.005 639.493C493.658 639.805 493.172 639.996 492.547 640.066L476.502 642.306ZM483.691 630.533C481.572 630.533 479.818 631.279 478.429 632.773C477.04 634.231 476.311 636.332 476.241 639.076L490.567 637.096C490.393 635.186 489.716 633.623 488.535 632.408C487.389 631.158 485.774 630.533 483.691 630.533Z" fill="white"/>
<path d="M509.141 649.182C510.6 649.182 511.798 649.043 512.736 648.765C513.708 648.453 514.403 648.158 514.819 647.88V640.326L508.36 641.003C506.554 641.177 505.217 641.594 504.349 642.254C503.48 642.879 503.046 643.816 503.046 645.067C503.046 646.386 503.55 647.411 504.557 648.14C505.564 648.835 507.092 649.182 509.141 649.182ZM509.089 627.147C512.111 627.147 514.507 627.824 516.278 629.178C518.049 630.533 518.935 632.668 518.935 635.586V647.932C518.935 648.696 518.779 649.286 518.466 649.703C518.188 650.085 517.754 650.45 517.164 650.797C516.33 651.283 515.219 651.7 513.83 652.047C512.475 652.429 510.912 652.62 509.141 652.62C505.877 652.62 503.341 651.978 501.536 650.693C499.764 649.408 498.879 647.55 498.879 645.119C498.879 642.827 499.625 641.108 501.119 639.962C502.612 638.781 504.713 638.051 507.422 637.774L514.819 637.044V635.586C514.819 633.849 514.299 632.582 513.257 631.783C512.215 630.984 510.808 630.585 509.037 630.585C507.578 630.585 506.207 630.793 504.922 631.21C503.637 631.627 502.491 632.095 501.483 632.616C501.206 632.373 500.945 632.095 500.702 631.783C500.494 631.47 500.39 631.123 500.39 630.741C500.39 630.255 500.511 629.855 500.754 629.543C500.997 629.23 501.379 628.935 501.9 628.657C502.838 628.171 503.915 627.806 505.13 627.563C506.346 627.285 507.665 627.147 509.089 627.147Z" fill="white"/>
<path d="M534.773 652.568C532.342 652.568 530.362 652.03 528.834 650.953C527.341 649.877 526.594 648.088 526.594 645.588V620.843C526.768 620.774 527.028 620.704 527.375 620.635C527.757 620.531 528.157 620.479 528.573 620.479C530.032 620.479 530.761 621.104 530.761 622.354V628.345H539.305C539.409 628.518 539.513 628.761 539.617 629.074C539.721 629.352 539.774 629.664 539.774 630.012C539.774 631.192 539.253 631.783 538.211 631.783H530.761V645.327C530.761 646.716 531.143 647.706 531.907 648.297C532.706 648.852 533.818 649.13 535.241 649.13C535.832 649.13 536.492 649.026 537.221 648.817C537.95 648.609 538.558 648.366 539.044 648.088C539.253 648.297 539.444 648.557 539.617 648.87C539.791 649.182 539.878 649.547 539.878 649.964C539.878 650.728 539.426 651.353 538.523 651.839C537.62 652.325 536.37 652.568 534.773 652.568Z" fill="white"/>
<path d="M548.131 642.306C549.068 646.855 552.055 649.13 557.091 649.13C558.549 649.13 559.869 648.887 561.05 648.401C562.231 647.915 563.168 647.394 563.863 646.838C564.696 647.324 565.113 647.984 565.113 648.817C565.113 649.304 564.887 649.773 564.436 650.224C564.019 650.675 563.429 651.075 562.665 651.422C561.935 651.769 561.067 652.047 560.06 652.256C559.088 652.464 558.028 652.568 556.882 652.568C552.854 652.568 549.659 651.474 547.297 649.286C544.97 647.098 543.807 643.903 543.807 639.701C543.807 637.722 544.085 635.968 544.64 634.44C545.231 632.877 546.029 631.557 547.037 630.481C548.078 629.404 549.311 628.588 550.735 628.032C552.159 627.442 553.705 627.147 555.372 627.147C556.934 627.147 558.376 627.407 559.695 627.928C561.015 628.449 562.144 629.196 563.081 630.168C564.054 631.106 564.801 632.234 565.321 633.554C565.877 634.839 566.155 636.263 566.155 637.826C566.155 638.59 565.981 639.145 565.634 639.493C565.287 639.805 564.8 639.996 564.175 640.066L548.131 642.306ZM555.319 630.533C553.201 630.533 551.447 631.279 550.058 632.773C548.669 634.231 547.94 636.332 547.87 639.076L562.196 637.096C562.022 635.186 561.345 633.623 560.164 632.408C559.018 631.158 557.403 630.533 555.319 630.533Z" fill="white"/>
<path d="M1330.49 624.777C1330.67 624.707 1330.93 624.638 1331.28 624.569C1331.66 624.464 1332.06 624.412 1332.47 624.412C1333.93 624.412 1334.66 625.055 1334.66 626.34V639.728C1334.66 641.985 1335.25 643.6 1336.43 644.573C1337.61 645.51 1339.25 645.979 1341.33 645.979C1342.72 645.979 1343.9 645.84 1344.87 645.562C1345.84 645.25 1346.61 644.937 1347.16 644.625V624.777C1347.34 624.707 1347.6 624.638 1347.95 624.569C1348.33 624.464 1348.71 624.412 1349.09 624.412C1350.58 624.412 1351.33 625.055 1351.33 626.34V644.468C1351.33 645.198 1351.23 645.788 1351.02 646.24C1350.85 646.656 1350.39 647.073 1349.66 647.49C1348.87 647.941 1347.75 648.375 1346.33 648.792C1344.94 649.209 1343.26 649.417 1341.28 649.417C1337.8 649.417 1335.13 648.653 1333.26 647.125C1331.41 645.597 1330.49 643.201 1330.49 639.936V624.777Z" fill="white"/>
<path d="M1369.4 649.417C1368.18 649.417 1367.04 649.278 1365.96 649C1364.88 648.723 1364 648.393 1363.3 648.011V658.117C1363.13 658.186 1362.87 658.256 1362.52 658.325C1362.17 658.429 1361.79 658.482 1361.38 658.482C1359.88 658.482 1359.14 657.839 1359.14 656.554V629.049C1359.14 628.354 1359.26 627.798 1359.5 627.382C1359.74 626.965 1360.25 626.531 1361.01 626.079C1361.95 625.558 1363.06 625.089 1364.34 624.673C1365.66 624.221 1367.16 623.996 1368.82 623.996C1370.53 623.996 1372.12 624.239 1373.62 624.725C1375.15 625.211 1376.45 625.975 1377.52 627.017C1378.64 628.024 1379.5 629.326 1380.13 630.924C1380.79 632.522 1381.12 634.432 1381.12 636.654C1381.12 638.807 1380.82 640.683 1380.23 642.28C1379.68 643.878 1378.88 645.215 1377.84 646.292C1376.8 647.333 1375.54 648.115 1374.09 648.636C1372.66 649.157 1371.1 649.417 1369.4 649.417ZM1368.82 645.979C1371.26 645.979 1373.2 645.25 1374.66 643.791C1376.15 642.298 1376.9 639.919 1376.9 636.654C1376.9 634.953 1376.67 633.511 1376.22 632.33C1375.81 631.15 1375.22 630.195 1374.45 629.465C1373.72 628.736 1372.87 628.215 1371.9 627.903C1370.93 627.59 1369.9 627.434 1368.82 627.434C1367.57 627.434 1366.52 627.59 1365.65 627.903C1364.78 628.215 1364 628.562 1363.3 628.944V644.312C1363.96 644.798 1364.74 645.198 1365.65 645.51C1366.55 645.823 1367.61 645.979 1368.82 645.979Z" fill="white"/>
<path d="M1408.15 644.781C1408.15 645.475 1407.99 646.014 1407.68 646.396C1407.4 646.778 1406.95 647.16 1406.33 647.542C1405.63 647.993 1404.64 648.41 1403.36 648.792C1402.07 649.209 1400.6 649.417 1398.93 649.417C1397.05 649.417 1395.34 649.174 1393.77 648.688C1392.21 648.202 1390.86 647.455 1389.71 646.448C1388.6 645.406 1387.73 644.104 1387.1 642.541C1386.51 640.943 1386.22 639.033 1386.22 636.811C1386.22 634.553 1386.53 632.626 1387.16 631.028C1387.78 629.396 1388.62 628.059 1389.66 627.017C1390.73 625.975 1391.98 625.211 1393.41 624.725C1394.87 624.239 1396.41 623.996 1398.04 623.996C1399.16 623.996 1400.23 624.134 1401.27 624.412C1402.32 624.69 1403.22 625.037 1403.98 625.454V614.983C1404.16 614.914 1404.42 614.844 1404.76 614.775C1405.15 614.671 1405.53 614.619 1405.91 614.619C1407.4 614.619 1408.15 615.244 1408.15 616.494V644.781ZM1403.98 629.205C1403.29 628.719 1402.49 628.302 1401.59 627.955C1400.68 627.607 1399.64 627.434 1398.46 627.434C1397.38 627.434 1396.36 627.607 1395.39 627.955C1394.45 628.267 1393.62 628.805 1392.89 629.57C1392.16 630.299 1391.57 631.271 1391.12 632.487C1390.7 633.702 1390.49 635.178 1390.49 636.915C1390.49 640.11 1391.25 642.419 1392.78 643.843C1394.31 645.267 1396.34 645.979 1398.88 645.979C1400.09 645.979 1401.08 645.857 1401.85 645.614C1402.65 645.337 1403.36 645.007 1403.98 644.625V629.205Z" fill="white"/>
<path d="M1424.66 646.031C1426.12 646.031 1427.31 645.892 1428.25 645.614C1429.22 645.302 1429.92 645.007 1430.34 644.729V637.175L1423.88 637.852C1422.07 638.026 1420.73 638.443 1419.86 639.103C1419 639.728 1418.56 640.665 1418.56 641.916C1418.56 643.235 1419.07 644.26 1420.07 644.989C1421.08 645.684 1422.61 646.031 1424.66 646.031ZM1424.61 623.996C1427.63 623.996 1430.02 624.673 1431.79 626.027C1433.57 627.382 1434.45 629.517 1434.45 632.435V644.781C1434.45 645.545 1434.29 646.135 1433.98 646.552C1433.7 646.934 1433.27 647.299 1432.68 647.646C1431.85 648.132 1430.74 648.549 1429.35 648.896C1427.99 649.278 1426.43 649.469 1424.66 649.469C1421.39 649.469 1418.86 648.827 1417.05 647.542C1415.28 646.257 1414.4 644.399 1414.4 641.968C1414.4 639.676 1415.14 637.957 1416.64 636.811C1418.13 635.63 1420.23 634.9 1422.94 634.623L1430.34 633.893V632.435C1430.34 630.698 1429.81 629.431 1428.77 628.632C1427.73 627.833 1426.32 627.434 1424.55 627.434C1423.09 627.434 1421.72 627.642 1420.44 628.059C1419.15 628.476 1418.01 628.944 1417 629.465C1416.72 629.222 1416.46 628.944 1416.22 628.632C1416.01 628.319 1415.91 627.972 1415.91 627.59C1415.91 627.104 1416.03 626.704 1416.27 626.392C1416.51 626.079 1416.9 625.784 1417.42 625.506C1418.35 625.02 1419.43 624.655 1420.65 624.412C1421.86 624.134 1423.18 623.996 1424.61 623.996Z" fill="white"/>
<path d="M1450.29 649.417C1447.86 649.417 1445.88 648.879 1444.35 647.802C1442.86 646.726 1442.11 644.937 1442.11 642.437V617.692C1442.28 617.623 1442.54 617.553 1442.89 617.484C1443.27 617.38 1443.67 617.328 1444.09 617.328C1445.55 617.328 1446.28 617.953 1446.28 619.203V625.194H1454.82C1454.93 625.367 1455.03 625.61 1455.13 625.923C1455.24 626.201 1455.29 626.513 1455.29 626.861C1455.29 628.041 1454.77 628.632 1453.73 628.632H1446.28V642.176C1446.28 643.565 1446.66 644.555 1447.42 645.146C1448.22 645.701 1449.33 645.979 1450.76 645.979C1451.35 645.979 1452.01 645.875 1452.74 645.666C1453.47 645.458 1454.07 645.215 1454.56 644.937C1454.77 645.146 1454.96 645.406 1455.13 645.719C1455.31 646.031 1455.39 646.396 1455.39 646.813C1455.39 647.577 1454.94 648.202 1454.04 648.688C1453.14 649.174 1451.89 649.417 1450.29 649.417Z" fill="white"/>
<path d="M1463.65 639.155C1464.58 643.704 1467.57 645.979 1472.61 645.979C1474.07 645.979 1475.39 645.736 1476.57 645.25C1477.75 644.764 1478.68 644.243 1479.38 643.687C1480.21 644.173 1480.63 644.833 1480.63 645.666C1480.63 646.153 1480.4 646.622 1479.95 647.073C1479.54 647.524 1478.94 647.924 1478.18 648.271C1477.45 648.618 1476.58 648.896 1475.58 649.105C1474.6 649.313 1473.54 649.417 1472.4 649.417C1468.37 649.417 1465.17 648.323 1462.81 646.135C1460.49 643.947 1459.32 640.752 1459.32 636.55C1459.32 634.571 1459.6 632.817 1460.16 631.289C1460.75 629.726 1461.55 628.406 1462.55 627.33C1463.59 626.253 1464.83 625.437 1466.25 624.881C1467.68 624.291 1469.22 623.996 1470.89 623.996C1472.45 623.996 1473.89 624.256 1475.21 624.777C1476.53 625.298 1477.66 626.045 1478.6 627.017C1479.57 627.955 1480.32 629.083 1480.84 630.403C1481.39 631.688 1481.67 633.112 1481.67 634.675C1481.67 635.439 1481.5 635.994 1481.15 636.342C1480.8 636.654 1480.32 636.845 1479.69 636.915L1463.65 639.155ZM1470.84 627.382C1468.72 627.382 1466.96 628.128 1465.57 629.622C1464.19 631.08 1463.46 633.181 1463.39 635.925L1477.71 633.945C1477.54 632.035 1476.86 630.472 1475.68 629.257C1474.53 628.007 1472.92 627.382 1470.84 627.382Z" fill="white"/>
<path d="M1240.54 547.139V552.924H1217.51V547.139H1224.71V524.76C1224.71 521.776 1223.99 519.447 1222.53 517.774C1221.07 516.1 1219.07 515.263 1216.53 515.263C1212.09 515.263 1207.43 516.9 1202.55 520.175C1202.77 521.267 1202.88 522.358 1202.88 523.45V547.139H1210.74V552.924H1187.71V547.139H1194.91V524.76C1194.91 521.776 1194.18 519.447 1192.73 517.774C1191.27 516.1 1189.27 515.263 1186.72 515.263C1183.01 515.263 1178.61 516.718 1173.52 519.629V547.139H1181.27V552.924H1157.25V547.139H1165.55V515.809H1157.25V510.023H1173.52V514.171C1179.05 510.678 1184.14 508.931 1188.8 508.931C1191.64 508.931 1194.11 509.55 1196.22 510.787C1198.33 511.952 1199.93 513.589 1201.02 515.699C1204.23 513.516 1207.21 511.842 1209.98 510.678C1212.74 509.514 1215.62 508.931 1218.6 508.931C1222.68 508.931 1226.02 510.205 1228.64 512.752C1231.34 515.226 1232.68 518.72 1232.68 523.232V547.139H1240.54Z" fill="white"/>
<path d="M1288.91 547.139V552.924H1275.05L1274.61 549.104C1272.28 550.85 1269.96 552.124 1267.63 552.924C1265.3 553.725 1262.68 554.125 1259.77 554.125C1255.4 554.125 1251.83 552.924 1249.07 550.523C1246.38 548.048 1245.03 544.992 1245.03 541.353C1245.03 536.695 1246.59 533.311 1249.72 531.201C1252.93 529.017 1257.11 527.926 1262.28 527.926C1265.99 527.926 1269.96 528.399 1274.18 529.345V524.869C1274.18 521.594 1273.27 519.12 1271.45 517.446C1269.7 515.772 1267.23 514.935 1264.02 514.935C1261.91 514.935 1259.48 515.299 1256.71 516.027C1254.02 516.682 1251.54 517.628 1249.29 518.865L1246.89 513.625C1249.29 512.097 1252.05 510.933 1255.18 510.132C1258.38 509.332 1261.37 508.931 1264.13 508.931C1269.74 508.931 1274.14 510.314 1277.34 513.08C1280.54 515.772 1282.15 519.447 1282.15 524.105V547.139H1288.91ZM1252.67 540.916C1252.67 543.172 1253.4 545.028 1254.85 546.484C1256.38 547.866 1258.42 548.558 1260.97 548.558C1265.26 548.558 1269.66 546.993 1274.18 543.864V534.039C1270.32 533.166 1266.53 532.729 1262.82 532.729C1259.91 532.729 1257.47 533.384 1255.51 534.694C1253.62 535.931 1252.67 538.005 1252.67 540.916Z" fill="white"/>
<path d="M1346.78 547.139V552.924H1323.74V547.139H1330.84V524.76C1330.84 521.776 1330.11 519.447 1328.66 517.774C1327.2 516.1 1325.2 515.263 1322.65 515.263C1320.54 515.263 1318.39 515.663 1316.21 516.464C1314.1 517.191 1311.77 518.319 1309.22 519.848V547.139H1316.97V552.924H1292.96V547.139H1301.26V515.809H1292.96V510.023H1309.22V514.28C1314.9 510.714 1320.07 508.931 1324.73 508.931C1328.8 508.931 1332.15 510.205 1334.77 512.752C1337.46 515.226 1338.81 518.72 1338.81 523.232V547.139H1346.78Z" fill="white"/>
<path d="M1395.09 547.139V552.924H1381.23L1380.79 549.104C1378.46 550.85 1376.13 552.124 1373.81 552.924C1371.48 553.725 1368.86 554.125 1365.95 554.125C1361.58 554.125 1358.01 552.924 1355.25 550.523C1352.55 548.048 1351.21 544.992 1351.21 541.353C1351.21 536.695 1352.77 533.311 1355.9 531.201C1359.1 529.017 1363.29 527.926 1368.46 527.926C1372.17 527.926 1376.13 528.399 1380.36 529.345V524.869C1380.36 521.594 1379.45 519.12 1377.63 517.446C1375.88 515.772 1373.41 514.935 1370.2 514.935C1368.09 514.935 1365.65 515.299 1362.89 516.027C1360.2 516.682 1357.72 517.628 1355.47 518.865L1353.06 513.625C1355.47 512.097 1358.23 510.933 1361.36 510.132C1364.56 509.332 1367.55 508.931 1370.31 508.931C1375.92 508.931 1380.32 510.314 1383.52 513.08C1386.72 515.772 1388.32 519.447 1388.32 524.105V547.139H1395.09ZM1358.85 540.916C1358.85 543.172 1359.58 545.028 1361.03 546.484C1362.56 547.866 1364.6 548.558 1367.15 548.558C1371.44 548.558 1375.84 546.993 1380.36 543.864V534.039C1376.5 533.166 1372.71 532.729 1369 532.729C1366.09 532.729 1363.65 533.384 1361.69 534.694C1359.8 535.931 1358.85 538.005 1358.85 540.916Z" fill="white"/>
<path d="M1444.44 510.023V515.809V553.907C1444.44 560.529 1442.44 565.442 1438.44 568.644C1434.43 571.846 1429.08 573.447 1422.39 573.447C1417.3 573.447 1411.91 572.574 1406.23 570.827L1407.87 564.496C1413.4 566.17 1418.17 567.006 1422.17 567.006C1426.68 567.006 1430.18 565.951 1432.65 563.841C1435.13 561.803 1436.36 558.674 1436.36 554.453V548.558C1434.32 550.086 1432.03 551.25 1429.48 552.051C1427.01 552.852 1424.54 553.252 1422.06 553.252C1417.99 553.252 1414.27 552.379 1410.93 550.632C1407.58 548.812 1404.92 546.229 1402.96 542.881C1401.07 539.534 1400.12 535.604 1400.12 531.092C1400.12 526.434 1401.07 522.468 1402.96 519.193C1404.85 515.845 1407.43 513.334 1410.71 511.66C1414.06 509.914 1417.77 509.04 1421.84 509.04C1424.32 509.04 1426.87 509.477 1429.48 510.35C1432.1 511.151 1434.36 512.315 1436.25 513.844V510.023H1444.44ZM1408.53 531.637C1408.53 536.513 1409.94 540.334 1412.78 543.1C1415.62 545.865 1419.26 547.248 1423.7 547.248C1425.81 547.248 1427.96 546.884 1430.14 546.156C1432.4 545.428 1434.47 544.373 1436.36 542.99L1436.25 519.411C1434.14 518.028 1431.89 516.937 1429.48 516.136C1427.16 515.336 1424.94 514.935 1422.83 514.935C1418.53 514.935 1415.08 516.427 1412.46 519.411C1409.84 522.322 1408.53 526.398 1408.53 531.637Z" fill="white"/>
<path d="M1498.67 533.166H1480.99H1463.3C1463.81 537.751 1465.45 541.389 1468.21 544.082C1470.98 546.702 1474.51 548.012 1478.8 548.012C1484.77 548.012 1490.19 545.72 1495.07 541.135L1497.91 546.047C1495.8 548.521 1493.14 550.523 1489.94 552.051C1486.74 553.507 1483.13 554.234 1479.13 554.234C1474.62 554.234 1470.51 553.288 1466.8 551.396C1463.08 549.504 1460.17 546.848 1458.06 543.427C1455.95 539.934 1454.9 535.968 1454.9 531.528C1454.9 527.016 1455.88 523.05 1457.84 519.629C1459.88 516.136 1462.61 513.48 1466.03 511.66C1469.52 509.768 1473.38 508.822 1477.6 508.822C1484.15 508.822 1489.28 510.823 1493 514.826C1496.78 518.829 1498.67 524.251 1498.67 531.092V533.166ZM1490.7 528.144C1490.7 523.996 1489.47 520.721 1486.99 518.319C1484.59 515.918 1481.46 514.717 1477.6 514.717C1473.82 514.717 1470.62 515.918 1468 518.319C1465.38 520.721 1463.81 523.996 1463.3 528.144H1490.7Z" fill="white"/>
<path d="M1533.6 509.477C1536.36 509.477 1539.27 510.205 1542.33 511.66L1540.37 518.974C1537.89 517.373 1535.38 516.573 1532.83 516.573C1529.92 516.573 1527.48 517.774 1525.52 520.175C1523.63 522.504 1522.68 525.743 1522.68 529.891L1522.57 547.139H1530.21V552.924H1506.31V547.139H1514.6V515.809H1506.31V510.023H1522.57V517.883C1524.9 512.279 1528.58 509.477 1533.6 509.477Z" fill="white"/>
<path d="M776.522 508.931C780.451 508.931 783.981 509.805 787.11 511.551C790.313 513.225 792.823 515.736 794.643 519.084C796.462 522.358 797.372 526.288 797.372 530.873C797.372 535.604 796.353 539.716 794.315 543.209C792.35 546.702 789.658 549.395 786.237 551.287C782.889 553.106 779.214 554.016 775.212 554.016C772.664 554.016 770.226 553.616 767.898 552.815C765.642 552.015 763.786 550.959 762.33 549.649L762.221 564.168H770.627V569.954H746.501V564.168H754.252V515.809H746.72V510.023H761.784L761.894 514.062C764.004 512.388 766.296 511.115 768.771 510.241C771.318 509.368 773.902 508.931 776.522 508.931ZM773.792 548.012C778.305 548.012 781.943 546.593 784.709 543.755C787.547 540.844 788.966 536.768 788.966 531.528C788.966 526.434 787.583 522.431 784.818 519.52C782.125 516.609 778.632 515.154 774.338 515.154C772.592 515.154 770.554 515.518 768.225 516.245C765.969 516.973 763.968 518.065 762.221 519.52L762.33 543.864C764.004 545.174 765.823 546.193 767.788 546.92C769.826 547.648 771.828 548.012 773.792 548.012Z" fill="white"/>
<path d="M848.43 547.139V552.924H834.566L834.129 549.104C831.801 550.85 829.472 552.124 827.143 552.924C824.814 553.725 822.194 554.125 819.283 554.125C814.916 554.125 811.35 552.924 808.585 550.523C805.892 548.048 804.546 544.992 804.546 541.353C804.546 536.695 806.111 533.311 809.24 531.201C812.442 529.017 816.627 527.926 821.794 527.926C825.505 527.926 829.472 528.399 833.693 529.345V524.869C833.693 521.594 832.783 519.12 830.964 517.446C829.217 515.772 826.743 514.935 823.54 514.935C821.43 514.935 818.992 515.299 816.226 516.027C813.534 516.682 811.059 517.628 808.803 518.865L806.402 513.625C808.803 512.097 811.569 510.933 814.698 510.132C817.9 509.332 820.884 508.931 823.65 508.931C829.253 508.931 833.656 510.314 836.858 513.08C840.061 515.772 841.662 519.447 841.662 524.105V547.139H848.43ZM812.187 540.916C812.187 543.172 812.915 545.028 814.371 546.484C815.899 547.866 817.937 548.558 820.484 548.558C824.778 548.558 829.181 546.993 833.693 543.864V534.039C829.836 533.166 826.051 532.729 822.34 532.729C819.429 532.729 816.991 533.384 815.026 534.694C813.133 535.931 812.187 538.005 812.187 540.916Z" fill="white"/>
<path d="M877.255 515.154C872.597 515.154 868.777 516.646 865.793 519.629C862.809 522.613 861.317 526.398 861.317 530.982C861.317 535.931 862.773 539.97 865.684 543.1C868.595 546.156 872.379 547.684 877.037 547.684C880.53 547.684 883.477 547.029 885.879 545.72C888.281 544.337 890.609 542.372 892.865 539.825L896.25 544.737C893.993 547.648 891.192 549.941 887.844 551.614C884.496 553.215 880.639 554.016 876.273 554.016C871.76 554.016 867.721 553.033 864.155 551.069C860.662 549.104 857.897 546.411 855.859 542.99C853.894 539.497 852.911 535.567 852.911 531.201C852.911 526.834 853.858 522.977 855.75 519.629C857.715 516.209 860.407 513.553 863.828 511.66C867.248 509.768 871.105 508.822 875.399 508.822C878.601 508.822 881.44 509.404 883.914 510.569C886.388 511.733 888.281 513.298 889.591 515.263V509.805H896.359V525.197H890.246C889.591 522.067 888.099 519.629 885.77 517.883C883.441 516.063 880.603 515.154 877.255 515.154Z" fill="white"/>
<path d="M1002.58 547.139V552.924H988.717L988.281 549.104C985.952 550.85 983.623 552.124 981.294 552.924C978.965 553.725 976.345 554.125 973.434 554.125C969.068 554.125 965.502 552.924 962.736 550.523C960.044 548.048 958.697 544.992 958.697 541.353C958.697 536.695 960.262 533.311 963.391 531.201C966.593 529.017 970.778 527.926 975.945 527.926C979.657 527.926 983.623 528.399 987.844 529.345V524.869C987.844 521.594 986.934 519.12 985.115 517.446C983.368 515.772 980.894 514.935 977.692 514.935C975.581 514.935 973.143 515.299 970.378 516.027C967.685 516.682 965.211 517.628 962.955 518.865L960.553 513.625C962.955 512.097 965.72 510.933 968.849 510.132C972.052 509.332 975.035 508.931 977.801 508.931C983.405 508.931 987.808 510.314 991.01 513.08C994.212 515.772 995.813 519.447 995.813 524.105V547.139H1002.58ZM966.339 540.916C966.339 543.172 967.066 545.028 968.522 546.484C970.05 547.866 972.088 548.558 974.635 548.558C978.929 548.558 983.332 546.993 987.844 543.864V534.039C983.987 533.166 980.202 532.729 976.491 532.729C973.58 532.729 971.142 533.384 969.177 534.694C967.285 535.931 966.339 538.005 966.339 540.916Z" fill="white"/>
<path d="M1051.93 510.023V515.809V553.907C1051.93 560.529 1049.93 565.442 1045.93 568.644C1041.92 571.846 1036.57 573.447 1029.88 573.447C1024.78 573.447 1019.4 572.574 1013.72 570.827L1015.36 564.496C1020.89 566.17 1025.66 567.006 1029.66 567.006C1034.17 567.006 1037.66 565.951 1040.14 563.841C1042.61 561.803 1043.85 558.674 1043.85 554.453V548.558C1041.81 550.086 1039.52 551.25 1036.97 552.051C1034.5 552.852 1032.02 553.252 1029.55 553.252C1025.47 553.252 1021.76 552.379 1018.42 550.632C1015.07 548.812 1012.41 546.229 1010.45 542.881C1008.55 539.534 1007.61 535.604 1007.61 531.092C1007.61 526.434 1008.55 522.468 1010.45 519.193C1012.34 515.845 1014.92 513.334 1018.2 511.66C1021.55 509.914 1025.26 509.04 1029.33 509.04C1031.81 509.04 1034.35 509.477 1036.97 510.35C1039.59 511.151 1041.85 512.315 1043.74 513.844V510.023H1051.93ZM1016.01 531.637C1016.01 536.513 1017.43 540.334 1020.27 543.1C1023.11 545.865 1026.75 547.248 1031.19 547.248C1033.3 547.248 1035.45 546.884 1037.63 546.156C1039.88 545.428 1041.96 544.373 1043.85 542.99L1043.74 519.411C1041.63 518.028 1039.38 516.937 1036.97 516.136C1034.64 515.336 1032.43 514.935 1030.31 514.935C1026.02 514.935 1022.56 516.427 1019.94 519.411C1017.32 522.322 1016.01 526.398 1016.01 531.637Z" fill="white"/>
<path d="M1106.15 533.166H1070.78C1071.29 537.751 1072.93 541.389 1075.69 544.082C1078.46 546.702 1081.99 548.012 1086.28 548.012C1092.25 548.012 1097.67 545.72 1102.55 541.135L1105.39 546.047C1103.28 548.521 1100.62 550.523 1097.42 552.051C1094.22 553.507 1090.61 554.234 1086.61 554.234C1082.1 554.234 1077.99 553.288 1074.28 551.396C1070.56 549.504 1067.65 546.848 1065.54 543.427C1063.43 539.934 1062.38 535.968 1062.38 531.528C1062.38 527.016 1063.36 523.05 1065.32 519.629C1067.36 516.136 1070.09 513.48 1073.51 511.66C1077 509.768 1080.86 508.822 1085.08 508.822C1091.63 508.822 1096.76 510.823 1100.47 514.826C1104.26 518.829 1106.15 524.251 1106.15 531.092V533.166ZM1098.18 528.144C1098.18 523.996 1096.95 520.721 1094.47 518.319C1092.07 515.918 1088.94 514.717 1085.08 514.717C1081.3 514.717 1078.1 515.918 1075.48 518.319C1072.86 520.721 1071.29 523.996 1070.78 528.144H1098.18Z" fill="white"/>
<path d="M366.065 547.139H374.58V497.251H366.065V491.465H418.573V510.132H411.695V497.251H383.531V517.883H402.089H406.674V524.105H402.089H383.531V547.139H392.046V552.924H366.065V547.139Z" fill="white"/>
<path d="M446.845 554.234C442.26 554.234 438.221 553.288 434.728 551.396C431.235 549.504 428.506 546.848 426.541 543.427C424.649 539.934 423.703 535.931 423.703 531.419C423.703 526.907 424.649 522.941 426.541 519.52C428.506 516.1 431.235 513.48 434.728 511.66C438.221 509.768 442.26 508.822 446.845 508.822C451.43 508.822 455.469 509.768 458.963 511.66C462.529 513.48 465.294 516.1 467.259 519.52C469.224 522.941 470.206 526.871 470.206 531.31C470.206 535.822 469.224 539.825 467.259 543.318C465.294 546.811 462.529 549.504 458.963 551.396C455.469 553.288 451.43 554.234 446.845 554.234ZM446.845 547.903C451.357 547.903 454.996 546.411 457.762 543.427C460.527 540.37 461.91 536.331 461.91 531.31C461.91 526.434 460.527 522.54 457.762 519.629C454.996 516.646 451.357 515.154 446.845 515.154C442.333 515.154 438.731 516.646 436.038 519.629C433.345 522.613 431.999 526.543 431.999 531.419C431.999 536.368 433.345 540.37 436.038 543.427C438.804 546.411 442.406 547.903 446.845 547.903Z" fill="white"/>
<path d="M504.002 509.477C506.767 509.477 509.678 510.205 512.735 511.66L510.77 518.974C508.296 517.373 505.785 516.573 503.238 516.573C500.327 516.573 497.889 517.774 495.924 520.175C494.032 522.504 493.086 525.743 493.086 529.891L492.976 547.139H500.618V552.924H476.711V547.139H485.007V515.809H476.711V510.023H492.976V517.883C495.305 512.279 498.98 509.477 504.002 509.477Z" fill="white"/>
<path d="M536.723 552.924C528.427 552.924 524.278 548.703 524.278 540.261V515.809H517.183V510.023H524.278V495.395L532.356 492.229V510.023H543.709V515.809H532.356V539.825C532.356 542.517 532.793 544.41 533.666 545.501C534.54 546.593 536.032 547.139 538.142 547.139H544.692V552.924H536.723Z" fill="white"/>
<path d="M578.946 509.477C581.711 509.477 584.622 510.205 587.679 511.66L585.714 518.974C583.239 517.373 580.728 516.573 578.181 516.573C575.27 516.573 572.832 517.774 570.867 520.175C568.975 522.504 568.029 525.743 568.029 529.891L567.92 547.139H575.561V552.924H551.655V547.139H559.951V515.809H551.655V510.023H567.92V517.883C570.249 512.279 573.924 509.477 578.946 509.477Z" fill="white"/>
<path d="M638.084 547.139V552.924H624.22L623.784 549.104C621.455 550.85 619.126 552.124 616.797 552.924C614.468 553.725 611.848 554.125 608.937 554.125C604.571 554.125 601.005 552.924 598.239 550.523C595.547 548.048 594.2 544.992 594.2 541.353C594.2 536.695 595.765 533.311 598.894 531.201C602.096 529.017 606.281 527.926 611.448 527.926C615.16 527.926 619.126 528.399 623.347 529.345V524.869C623.347 521.594 622.437 519.12 620.618 517.446C618.871 515.772 616.397 514.935 613.195 514.935C611.084 514.935 608.646 515.299 605.881 516.027C603.188 516.682 600.714 517.628 598.458 518.865L596.056 513.625C598.458 512.097 601.223 510.933 604.353 510.132C607.555 509.332 610.538 508.931 613.304 508.931C618.908 508.931 623.311 510.314 626.513 513.08C629.715 515.772 631.316 519.447 631.316 524.105V547.139H638.084ZM601.842 540.916C601.842 543.172 602.57 545.028 604.025 546.484C605.553 547.866 607.591 548.558 610.138 548.558C614.432 548.558 618.835 546.993 623.347 543.864V534.039C619.49 533.166 615.706 532.729 611.994 532.729C609.083 532.729 606.645 533.384 604.68 534.694C602.788 535.931 601.842 538.005 601.842 540.916Z" fill="white"/>
<path d="M695.947 547.139V552.924H672.913V547.139H680.009V524.76C680.009 521.776 679.281 519.447 677.826 517.774C676.37 516.1 674.369 515.263 671.822 515.263C669.711 515.263 667.564 515.663 665.381 516.464C663.271 517.191 660.942 518.319 658.395 519.848V547.139H666.145V552.924H642.129V547.139H650.426V515.809H642.129V510.023H658.395V514.28C664.071 510.714 669.238 508.931 673.896 508.931C677.971 508.931 681.319 510.205 683.939 512.752C686.632 515.226 687.978 518.72 687.978 523.232V547.139H695.947Z" fill="white"/>
<path d="M902.909 547.139H910.987V496.05H903.127V490.374H919.065V530V531.856V547.139H926.051V552.924H902.909V547.139Z" fill="white"/>
<path fill-rule="evenodd" clip-rule="evenodd" d="M919.063 531.847L940.131 552.916H952.685V547.13H944.17L927.359 530.537L919.058 530.538L919.063 531.847Z" fill="white"/>
<path fill-rule="evenodd" clip-rule="evenodd" d="M919.063 529.227L939.955 510.006H952.508V515.792H943.993L927.359 530.537L919.058 530.536L919.063 529.227Z" fill="white"/>
<path d="M1111.77 357.285L1124.59 260.115H1143.09L1145.7 270.267C1155.19 263.838 1165.41 258.846 1177.14 258.846C1183.3 258.846 1188.23 260.054 1191.92 262.472C1195.72 264.768 1198.78 268.394 1201.08 273.349C1210.07 265.356 1225.72 258.846 1238.08 258.846C1247.15 258.846 1253.73 260.9 1257.82 265.01C1262.03 268.998 1264.23 274.739 1264.42 282.232C1264.52 286.55 1264.34 291.036 1263.65 295.285L1255.39 357.285H1232.9L1241.17 295.829C1241.38 294.499 1241.47 293.049 1241.43 291.478C1241.22 283.138 1236.46 278.969 1227.15 278.969C1218.76 278.969 1207.91 283.951 1201.27 288.577C1201.61 291.316 1201.44 294.233 1200.93 296.916L1192.82 357.285H1170.51L1178.44 296.735C1178.65 295.647 1178.75 294.741 1178.73 294.016C1178.83 293.17 1178.87 292.263 1178.85 291.296C1178.75 287.429 1177.59 284.407 1175.36 282.232C1173.13 280.057 1169.59 278.969 1164.76 278.969C1156.61 278.969 1150.22 283.649 1143.6 287.852L1134.26 357.285H1111.77Z" fill="white"/>
<path d="M999.56 400.171L1017.93 263.298C1025.28 261.969 1032.69 260.941 1040.17 260.216C1047.64 259.37 1055.91 258.947 1064.98 258.947C1076.11 258.947 1084.22 261.787 1089.32 267.468C1094.54 273.148 1097.29 281.729 1097.57 293.211C1097.65 296.232 1097.55 299.375 1097.26 302.638C1096.98 305.901 1096.64 309.164 1096.24 312.427C1094.19 327.535 1089.4 338.956 1081.85 346.691C1074.3 354.426 1064.42 358.293 1052.21 358.293C1047.49 358.293 1043.13 357.93 1039.12 357.205C1035.12 356.48 1031.46 355.332 1028.16 353.761L1022.05 400.171H999.56ZM1049.2 339.258C1056.94 339.258 1062.74 336.72 1066.6 331.644C1070.47 326.568 1073.17 318.651 1074.72 307.895C1074.92 306.324 1075.12 304.571 1075.32 302.638C1075.51 300.704 1075.58 298.831 1075.54 297.018C1075.38 290.371 1073.98 285.415 1071.36 282.152C1068.86 278.768 1064.89 277.076 1059.45 277.076L1038.41 277.257L1030.44 335.995C1033.85 337.082 1036.83 337.928 1039.39 338.533C1042.06 339.016 1045.33 339.258 1049.2 339.258Z" fill="white"/>
<path d="M933.723 357.206L944.102 278.346H925.024L927.023 263.843L946.55 260.036L948.73 245.533C949.438 239.973 950.89 235.139 953.086 231.03C955.399 226.8 958.765 223.537 963.182 221.24C967.72 218.944 973.737 217.796 981.235 217.796C985.225 217.796 994.27 217.977 998.149 218.34C1002.02 218.582 1007.91 218.944 1010.71 219.428L1008.57 235.743H985.488C980.047 235.743 976.271 237.073 974.16 239.732C972.047 242.27 970.693 246.198 970.099 251.515L969.041 260.036H999.908L997.46 278.346H966.593L956.032 357.206H933.723Z" fill="white"/>
<path d="M697.101 337.886H763.446L755.672 398.495C755.549 399.453 754.734 400.171 753.768 400.171H690.567C689.795 400.171 689.2 399.494 689.297 398.729L697.101 337.886Z" fill="white"/>
<path d="M765.89 266.881H706.834L698.845 329.166H765.19L772.25 274.12C768.27 274.074 765.429 270.85 765.89 266.881Z" fill="white"/>
<path d="M848.293 266.881H790.099C789.265 271.501 785.101 274.167 781.426 274.12L774.409 329.166H838.662C839.628 329.166 840.444 328.447 840.566 327.488L848.293 266.881Z" fill="white"/>
<path fill-rule="evenodd" clip-rule="evenodd" d="M783.087 195.875C751.468 195.472 715.644 218.413 708.473 258.159H767.109C767.943 253.54 772.107 250.873 775.782 250.92L783.087 195.875ZM791.927 195.872H856.414C857.185 195.872 857.782 196.549 857.684 197.314L849.927 258.157L791.275 258.157C791.736 254.185 788.892 250.961 784.909 250.917L791.927 195.872Z" fill="white"/>
</svg>
