<svg width="1920" height="768" viewBox="0 0 1920 768" fill="none" xmlns="http://www.w3.org/2000/svg">
<rect y="0.000244141" width="1920" height="768" fill="black"/>
<path d="M825.971 647.812C825.798 647.882 825.537 647.951 825.19 648.021C824.843 648.125 824.46 648.177 824.044 648.177C822.55 648.177 821.804 647.552 821.804 646.301V628.642C821.804 627.843 821.943 627.218 822.22 626.766C822.533 626.28 823.037 625.811 823.731 625.36C824.634 624.769 825.85 624.266 827.378 623.849C828.941 623.398 830.694 623.172 832.639 623.172C835.418 623.172 836.807 623.866 836.807 625.256C836.807 625.603 836.755 625.933 836.65 626.245C836.546 626.523 836.407 626.766 836.234 626.975C835.886 626.905 835.435 626.836 834.879 626.766C834.324 626.697 833.768 626.662 833.212 626.662C831.615 626.662 830.208 626.836 828.993 627.183C827.777 627.496 826.77 627.878 825.971 628.329V647.812Z" fill="white"/>
<path d="M841.695 623.953C841.869 623.884 842.129 623.814 842.476 623.745C842.858 623.641 843.258 623.589 843.675 623.589C845.133 623.589 845.862 624.231 845.862 625.516V638.904C845.862 641.162 846.453 642.776 847.634 643.749C848.814 644.687 850.447 645.155 852.53 645.155C853.92 645.155 855.1 645.016 856.073 644.739C857.045 644.426 857.809 644.114 858.365 643.801V623.953C858.539 623.884 858.799 623.814 859.146 623.745C859.528 623.641 859.91 623.589 860.292 623.589C861.786 623.589 862.532 624.231 862.532 625.516V643.645C862.532 644.374 862.428 644.964 862.22 645.416C862.046 645.833 861.595 646.249 860.865 646.666C860.067 647.118 858.955 647.552 857.531 647.968C856.142 648.385 854.458 648.594 852.478 648.594C849.005 648.594 846.331 647.83 844.456 646.301C842.615 644.773 841.695 642.377 841.695 639.113V623.953Z" fill="white"/>
<path d="M887.006 632.236C887.006 630.291 886.451 628.867 885.339 627.964C884.263 627.062 882.804 626.61 880.963 626.61C879.574 626.61 878.341 626.784 877.265 627.131C876.188 627.478 875.268 627.878 874.504 628.329V647.812C874.33 647.882 874.07 647.951 873.722 648.021C873.375 648.125 872.993 648.177 872.576 648.177C871.083 648.177 870.336 647.552 870.336 646.301V628.538C870.336 627.808 870.475 627.218 870.753 626.766C871.066 626.28 871.587 625.811 872.316 625.36C873.219 624.804 874.417 624.301 875.91 623.849C877.404 623.398 879.088 623.172 880.963 623.172C884.124 623.172 886.607 623.884 888.413 625.308C890.253 626.732 891.174 628.972 891.174 632.028V647.812C891 647.882 890.722 647.951 890.34 648.021C889.993 648.125 889.628 648.177 889.246 648.177C887.753 648.177 887.006 647.552 887.006 646.301V632.236Z" fill="white"/>
<path d="M975.581 651.928C973.15 651.928 971.17 651.39 969.642 650.313C968.149 649.236 967.402 647.448 967.402 644.947V620.203C967.576 620.133 967.836 620.064 968.184 619.994C968.566 619.89 968.965 619.838 969.382 619.838C970.84 619.838 971.57 620.463 971.57 621.714V627.704H980.113C980.217 627.878 980.322 628.121 980.426 628.434C980.53 628.711 980.582 629.024 980.582 629.371C980.582 630.552 980.061 631.142 979.019 631.142H971.57V644.687C971.57 646.076 971.952 647.066 972.716 647.656C973.515 648.212 974.626 648.49 976.05 648.49C976.64 648.49 977.3 648.385 978.029 648.177C978.759 647.969 979.366 647.726 979.853 647.448C980.061 647.656 980.252 647.917 980.426 648.229C980.599 648.542 980.686 648.906 980.686 649.323C980.686 650.087 980.235 650.712 979.332 651.199C978.429 651.685 977.179 651.928 975.581 651.928Z" fill="white"/>
<path d="M988.939 641.665C989.877 646.215 992.863 648.49 997.899 648.49C999.358 648.49 1000.68 648.247 1001.86 647.76C1003.04 647.274 1003.98 646.753 1004.67 646.198C1005.5 646.684 1005.92 647.344 1005.92 648.177C1005.92 648.663 1005.7 649.132 1005.24 649.584C1004.83 650.035 1004.24 650.434 1003.47 650.782C1002.74 651.129 1001.88 651.407 1000.87 651.615C999.896 651.824 998.837 651.928 997.691 651.928C993.662 651.928 990.467 650.834 988.105 648.646C985.779 646.458 984.615 643.263 984.615 639.061C984.615 637.081 984.893 635.327 985.449 633.799C986.039 632.236 986.838 630.917 987.845 629.84C988.887 628.764 990.12 627.947 991.544 627.392C992.968 626.801 994.513 626.506 996.18 626.506C997.743 626.506 999.184 626.767 1000.5 627.288C1001.82 627.808 1002.95 628.555 1003.89 629.528C1004.86 630.465 1005.61 631.594 1006.13 632.914C1006.69 634.199 1006.96 635.623 1006.96 637.185C1006.96 637.949 1006.79 638.505 1006.44 638.852C1006.1 639.165 1005.61 639.356 1004.98 639.425L988.939 641.665ZM996.128 629.892C994.009 629.892 992.256 630.639 990.866 632.132C989.477 633.591 988.748 635.692 988.679 638.436L1003 636.456C1002.83 634.546 1002.15 632.983 1000.97 631.768C999.827 630.517 998.212 629.892 996.128 629.892Z" fill="white"/>
<path d="M1030.27 644.843C1030.27 647.066 1029.45 648.802 1027.82 650.052C1026.19 651.303 1023.83 651.928 1020.74 651.928C1019.42 651.928 1018.2 651.806 1017.09 651.563C1015.98 651.355 1015.02 651.077 1014.23 650.73C1013.46 650.348 1012.85 649.931 1012.4 649.479C1011.99 648.993 1011.78 648.507 1011.78 648.021C1011.78 647.604 1011.88 647.205 1012.09 646.823C1012.33 646.441 1012.68 646.111 1013.13 645.833C1014.07 646.527 1015.16 647.153 1016.41 647.708C1017.66 648.229 1019.09 648.49 1020.69 648.49C1024.3 648.49 1026.1 647.274 1026.1 644.843C1026.1 642.864 1024.91 641.579 1022.51 640.988L1018.19 639.842C1016.07 639.286 1014.52 638.488 1013.55 637.446C1012.58 636.369 1012.09 634.997 1012.09 633.33C1012.09 632.427 1012.26 631.559 1012.61 630.726C1012.99 629.892 1013.57 629.163 1014.33 628.538C1015.09 627.913 1016.03 627.426 1017.14 627.079C1018.29 626.697 1019.63 626.506 1021.15 626.506C1023.59 626.506 1025.55 626.871 1027.04 627.6C1028.53 628.295 1029.28 629.111 1029.28 630.048C1029.28 630.5 1029.16 630.899 1028.92 631.247C1028.71 631.594 1028.41 631.854 1028.03 632.028C1027.41 631.611 1026.52 631.16 1025.37 630.674C1024.23 630.187 1022.87 629.944 1021.31 629.944C1019.75 629.944 1018.5 630.24 1017.56 630.83C1016.66 631.42 1016.21 632.254 1016.21 633.33C1016.21 634.129 1016.47 634.806 1016.99 635.362C1017.51 635.918 1018.38 636.334 1019.59 636.612L1023.19 637.498C1025.55 638.088 1027.32 638.974 1028.5 640.155C1029.68 641.301 1030.27 642.864 1030.27 644.843Z" fill="white"/>
<path d="M1044.82 651.928C1042.39 651.928 1040.41 651.39 1038.88 650.313C1037.39 649.236 1036.64 647.448 1036.64 644.947V620.203C1036.81 620.133 1037.07 620.064 1037.42 619.994C1037.8 619.89 1038.2 619.838 1038.62 619.838C1040.08 619.838 1040.81 620.463 1040.81 621.714V627.704H1049.35C1049.46 627.878 1049.56 628.121 1049.66 628.434C1049.77 628.711 1049.82 629.024 1049.82 629.371C1049.82 630.552 1049.3 631.142 1048.26 631.142H1040.81V644.687C1040.81 646.076 1041.19 647.066 1041.95 647.656C1042.75 648.212 1043.86 648.49 1045.29 648.49C1045.88 648.49 1046.54 648.385 1047.27 648.177C1048 647.969 1048.6 647.726 1049.09 647.448C1049.3 647.656 1049.49 647.917 1049.66 648.229C1049.84 648.542 1049.92 648.906 1049.92 649.323C1049.92 650.087 1049.47 650.712 1048.57 651.199C1047.67 651.685 1046.42 651.928 1044.82 651.928Z" fill="white"/>
<path d="M1130.95 652.554C1130.77 652.624 1130.51 652.693 1130.17 652.762C1129.82 652.867 1129.44 652.919 1129.02 652.919C1127.53 652.919 1126.78 652.294 1126.78 651.043V628.695C1126.95 628.626 1127.21 628.556 1127.56 628.487C1127.94 628.383 1128.34 628.331 1128.76 628.331C1130.22 628.331 1130.95 628.973 1130.95 630.258V652.554ZM1126.15 620.985C1126.15 620.256 1126.4 619.648 1126.88 619.162C1127.4 618.641 1128.06 618.381 1128.86 618.381C1129.66 618.381 1130.3 618.641 1130.79 619.162C1131.28 619.648 1131.52 620.256 1131.52 620.985C1131.52 621.715 1131.28 622.34 1130.79 622.861C1130.3 623.347 1129.66 623.59 1128.86 623.59C1128.06 623.59 1127.4 623.347 1126.88 622.861C1126.4 622.34 1126.15 621.715 1126.15 620.985Z" fill="white"/>
<path d="M1155.75 636.978C1155.75 635.033 1155.2 633.609 1154.09 632.706C1153.01 631.803 1151.55 631.352 1149.71 631.352C1148.32 631.352 1147.09 631.526 1146.01 631.873C1144.94 632.22 1144.02 632.62 1143.25 633.071V652.554C1143.08 652.624 1142.82 652.693 1142.47 652.762C1142.12 652.867 1141.74 652.919 1141.32 652.919C1139.83 652.919 1139.08 652.294 1139.08 651.043V633.279C1139.08 632.55 1139.22 631.96 1139.5 631.508C1139.81 631.022 1140.33 630.553 1141.06 630.102C1141.97 629.546 1143.16 629.042 1144.66 628.591C1146.15 628.139 1147.84 627.914 1149.71 627.914C1152.87 627.914 1155.35 628.626 1157.16 630.05C1159 631.473 1159.92 633.714 1159.92 636.77V652.554C1159.75 652.624 1159.47 652.693 1159.09 652.762C1158.74 652.867 1158.38 652.919 1157.99 652.919C1156.5 652.919 1155.75 652.294 1155.75 651.043V636.978Z" fill="white"/>
<path d="M1184.71 646.251C1184.71 648.473 1183.89 650.21 1182.26 651.46C1180.63 652.71 1178.27 653.335 1175.17 653.335C1173.86 653.335 1172.64 653.214 1171.53 652.971C1170.42 652.762 1169.46 652.485 1168.66 652.137C1167.9 651.755 1167.29 651.339 1166.84 650.887C1166.42 650.401 1166.21 649.915 1166.21 649.428C1166.21 649.012 1166.32 648.612 1166.53 648.23C1166.77 647.848 1167.12 647.518 1167.57 647.241C1168.51 647.935 1169.6 648.56 1170.85 649.116C1172.1 649.637 1173.53 649.897 1175.12 649.897C1178.73 649.897 1180.54 648.682 1180.54 646.251C1180.54 644.271 1179.34 642.986 1176.95 642.396L1172.62 641.25C1170.5 640.694 1168.96 639.895 1167.99 638.853C1167.01 637.777 1166.53 636.405 1166.53 634.738C1166.53 633.835 1166.7 632.967 1167.05 632.133C1167.43 631.3 1168 630.571 1168.77 629.945C1169.53 629.32 1170.47 628.834 1171.58 628.487C1172.73 628.105 1174.06 627.914 1175.59 627.914C1178.02 627.914 1179.98 628.278 1181.48 629.008C1182.97 629.702 1183.72 630.518 1183.72 631.456C1183.72 631.908 1183.6 632.307 1183.35 632.654C1183.15 633.002 1182.85 633.262 1182.47 633.436C1181.84 633.019 1180.96 632.567 1179.81 632.081C1178.67 631.595 1177.31 631.352 1175.75 631.352C1174.18 631.352 1172.93 631.647 1172 632.238C1171.09 632.828 1170.64 633.661 1170.64 634.738C1170.64 635.537 1170.9 636.214 1171.42 636.77C1171.94 637.325 1172.81 637.742 1174.03 638.02L1177.62 638.906C1179.98 639.496 1181.76 640.382 1182.94 641.562C1184.12 642.708 1184.71 644.271 1184.71 646.251Z" fill="white"/>
<path d="M1199.26 653.335C1196.82 653.335 1194.85 652.797 1193.32 651.721C1191.82 650.644 1191.08 648.855 1191.08 646.355V621.61C1191.25 621.541 1191.51 621.472 1191.86 621.402C1192.24 621.298 1192.64 621.246 1193.06 621.246C1194.52 621.246 1195.24 621.871 1195.24 623.121V629.112H1203.79C1203.89 629.286 1204 629.529 1204.1 629.841C1204.2 630.119 1204.26 630.432 1204.26 630.779C1204.26 631.96 1203.74 632.55 1202.69 632.55H1195.24V646.094C1195.24 647.484 1195.63 648.473 1196.39 649.064C1197.19 649.619 1198.3 649.897 1199.72 649.897C1200.32 649.897 1200.97 649.793 1201.7 649.585C1202.43 649.376 1203.04 649.133 1203.53 648.855C1203.74 649.064 1203.93 649.324 1204.1 649.637C1204.27 649.949 1204.36 650.314 1204.36 650.731C1204.36 651.495 1203.91 652.12 1203.01 652.606C1202.1 653.092 1200.85 653.335 1199.26 653.335Z" fill="white"/>
<path d="M1219.31 649.949C1220.77 649.949 1221.97 649.81 1222.9 649.533C1223.88 649.22 1224.57 648.925 1224.99 648.647V641.093L1218.53 641.771C1216.72 641.944 1215.38 642.361 1214.52 643.021C1213.65 643.646 1213.21 644.584 1213.21 645.834C1213.21 647.154 1213.72 648.178 1214.72 648.908C1215.73 649.602 1217.26 649.949 1219.31 649.949ZM1219.26 627.914C1222.28 627.914 1224.67 628.591 1226.45 629.945C1228.22 631.3 1229.1 633.436 1229.1 636.353V648.699C1229.1 649.463 1228.95 650.054 1228.63 650.47C1228.36 650.852 1227.92 651.217 1227.33 651.564C1226.5 652.05 1225.39 652.467 1224 652.815C1222.64 653.197 1221.08 653.388 1219.31 653.388C1216.04 653.388 1213.51 652.745 1211.7 651.46C1209.93 650.175 1209.05 648.317 1209.05 645.886C1209.05 643.594 1209.79 641.875 1211.29 640.729C1212.78 639.548 1214.88 638.819 1217.59 638.541L1224.99 637.812V636.353C1224.99 634.616 1224.47 633.349 1223.42 632.55C1222.38 631.751 1220.98 631.352 1219.2 631.352C1217.75 631.352 1216.37 631.56 1215.09 631.977C1213.8 632.394 1212.66 632.863 1211.65 633.384C1211.37 633.14 1211.11 632.863 1210.87 632.55C1210.66 632.238 1210.56 631.89 1210.56 631.508C1210.56 631.022 1210.68 630.623 1210.92 630.31C1211.16 629.998 1211.55 629.702 1212.07 629.424C1213 628.938 1214.08 628.574 1215.3 628.331C1216.51 628.053 1217.83 627.914 1219.26 627.914Z" fill="white"/>
<path d="M1241.29 652.554C1241.12 652.624 1240.86 652.693 1240.51 652.762C1240.16 652.867 1239.78 652.919 1239.37 652.919C1237.87 652.919 1237.13 652.294 1237.13 651.043V618.902C1237.3 618.832 1237.56 618.763 1237.91 618.693C1238.29 618.589 1238.67 618.537 1239.05 618.537C1240.55 618.537 1241.29 619.162 1241.29 620.412V652.554Z" fill="white"/>
<path d="M1254.27 652.554C1254.09 652.624 1253.83 652.693 1253.48 652.762C1253.14 652.867 1252.75 652.919 1252.34 652.919C1250.84 652.919 1250.1 652.294 1250.1 651.043V618.902C1250.27 618.832 1250.53 618.763 1250.88 618.693C1251.26 618.589 1251.64 618.537 1252.03 618.537C1253.52 618.537 1254.27 619.162 1254.27 620.412V652.554Z" fill="white"/>
<path d="M653.01 627.94C654.607 627.94 656.101 628.2 657.49 628.721C658.879 629.242 660.077 630.023 661.084 631.065C662.126 632.107 662.925 633.427 663.481 635.024C664.071 636.622 664.366 638.497 664.366 640.65C664.366 642.838 664.071 644.731 663.481 646.329C662.89 647.926 662.057 649.246 660.98 650.288C659.938 651.33 658.671 652.111 657.177 652.632C655.684 653.118 654.052 653.361 652.281 653.361C650.579 653.361 649.033 653.153 647.644 652.736C646.29 652.354 645.179 651.903 644.31 651.382C643.581 650.93 643.077 650.496 642.8 650.079C642.522 649.628 642.383 649.038 642.383 648.308V618.927C642.556 618.858 642.817 618.789 643.164 618.719C643.546 618.615 643.946 618.563 644.362 618.563C645.821 618.563 646.55 619.188 646.55 620.438V629.763C647.314 629.277 648.217 628.86 649.259 628.513C650.336 628.131 651.586 627.94 653.01 627.94ZM652.385 631.378C651.169 631.378 650.058 631.604 649.051 632.055C648.078 632.472 647.245 632.975 646.55 633.566V648.308C647.071 648.69 647.818 649.055 648.79 649.402C649.797 649.75 650.961 649.923 652.281 649.923C653.461 649.923 654.521 649.75 655.458 649.402C656.431 649.02 657.264 648.447 657.959 647.683C658.653 646.919 659.192 645.964 659.574 644.818C659.956 643.637 660.147 642.248 660.147 640.65C660.147 639.053 659.956 637.664 659.574 636.483C659.192 635.302 658.653 634.347 657.959 633.618C657.264 632.854 656.431 632.298 655.458 631.951C654.521 631.569 653.496 631.378 652.385 631.378Z" fill="white"/>
<path d="M670.869 628.721C671.043 628.652 671.303 628.582 671.651 628.513C672.033 628.408 672.432 628.356 672.849 628.356C674.307 628.356 675.037 628.999 675.037 630.284V643.672C675.037 645.929 675.627 647.544 676.808 648.517C677.989 649.454 679.621 649.923 681.705 649.923C683.094 649.923 684.275 649.784 685.247 649.506C686.219 649.194 686.983 648.881 687.539 648.569V628.721C687.713 628.652 687.973 628.582 688.32 628.513C688.702 628.408 689.085 628.356 689.467 628.356C690.96 628.356 691.707 628.999 691.707 630.284V648.412C691.707 649.142 691.602 649.732 691.394 650.184C691.22 650.6 690.769 651.017 690.04 651.434C689.241 651.885 688.129 652.319 686.706 652.736C685.316 653.153 683.632 653.361 681.652 653.361C678.18 653.361 675.505 652.597 673.63 651.069C671.789 649.541 670.869 647.145 670.869 643.88V628.721Z" fill="white"/>
<path d="M703.938 652.58C703.765 652.649 703.504 652.719 703.157 652.788C702.81 652.892 702.428 652.945 702.011 652.945C700.518 652.945 699.771 652.319 699.771 651.069V628.721C699.945 628.652 700.205 628.582 700.552 628.513C700.934 628.408 701.334 628.356 701.75 628.356C703.209 628.356 703.938 628.999 703.938 630.284V652.58ZM699.146 621.011C699.146 620.282 699.389 619.674 699.875 619.188C700.396 618.667 701.056 618.406 701.855 618.406C702.653 618.406 703.296 618.667 703.782 619.188C704.268 619.674 704.511 620.282 704.511 621.011C704.511 621.74 704.268 622.366 703.782 622.887C703.296 623.373 702.653 623.616 701.855 623.616C701.056 623.616 700.396 623.373 699.875 622.887C699.389 622.366 699.146 621.74 699.146 621.011Z" fill="white"/>
<path d="M716.762 652.58C716.588 652.649 716.328 652.719 715.981 652.788C715.633 652.892 715.251 652.945 714.835 652.945C713.341 652.945 712.594 652.319 712.594 651.069V618.927C712.768 618.858 713.029 618.789 713.376 618.719C713.758 618.615 714.14 618.563 714.522 618.563C716.015 618.563 716.762 619.188 716.762 620.438V652.58Z" fill="white"/>
<path d="M745.575 648.725C745.575 649.42 745.418 649.958 745.106 650.34C744.828 650.722 744.376 651.104 743.751 651.486C743.057 651.937 742.067 652.354 740.782 652.736C739.497 653.153 738.021 653.361 736.354 653.361C734.479 653.361 732.76 653.118 731.197 652.632C729.634 652.146 728.28 651.399 727.134 650.392C726.022 649.35 725.154 648.048 724.529 646.485C723.938 644.887 723.643 642.977 723.643 640.755C723.643 638.497 723.956 636.57 724.581 634.972C725.206 633.34 726.04 632.003 727.081 630.961C728.158 629.919 729.408 629.155 730.832 628.669C732.291 628.183 733.836 627.94 735.468 627.94C736.58 627.94 737.656 628.079 738.698 628.356C739.74 628.634 740.643 628.982 741.407 629.398V618.927C741.581 618.858 741.841 618.789 742.189 618.719C742.571 618.615 742.953 618.563 743.335 618.563C744.828 618.563 745.575 619.188 745.575 620.438V648.725ZM741.407 633.149C740.713 632.663 739.914 632.246 739.011 631.899C738.108 631.551 737.066 631.378 735.885 631.378C734.809 631.378 733.784 631.551 732.812 631.899C731.874 632.211 731.041 632.75 730.311 633.514C729.582 634.243 728.992 635.215 728.54 636.431C728.123 637.646 727.915 639.122 727.915 640.859C727.915 644.054 728.679 646.363 730.207 647.787C731.735 649.211 733.767 649.923 736.302 649.923C737.517 649.923 738.507 649.802 739.271 649.559C740.07 649.281 740.782 648.951 741.407 648.569V633.149Z" fill="white"/>
<path d="M593.451 648.285C593.415 648.562 593.631 648.807 593.91 648.807H617.415L620.309 626.246H596.277L593.451 648.285Z" fill="white"/>
<path d="M772.75 648.285C772.715 648.562 772.93 648.807 773.21 648.807H796.714L799.608 626.246H775.577L772.75 648.285Z" fill="white"/>
<path d="M918.127 648.285C918.092 648.562 918.308 648.807 918.587 648.807H942.092L944.986 626.246H920.954L918.127 648.285Z" fill="white"/>
<path d="M1076.83 648.285C1076.8 648.562 1077.01 648.807 1077.29 648.807H1100.8L1103.69 626.246H1079.66L1076.83 648.285Z" fill="white"/>
<path d="M1281.57 648.285C1281.54 648.562 1281.75 648.807 1282.03 648.807H1305.54L1308.43 626.246H1284.4L1281.57 648.285Z" fill="white"/>
<path d="M440.421 629.97C439.24 629.97 438.146 630.178 437.139 630.595C436.132 630.977 435.264 631.568 434.535 632.366C433.805 633.13 433.232 634.103 432.815 635.284C432.399 636.43 432.19 637.749 432.19 639.243C432.19 642.229 432.937 644.522 434.43 646.119C435.924 647.682 437.921 648.463 440.421 648.463C441.88 648.463 443.095 648.272 444.068 647.89C445.04 647.474 445.908 647.005 446.672 646.484C447.054 646.692 447.367 646.953 447.61 647.265C447.853 647.578 447.975 647.96 447.975 648.411C447.975 648.897 447.784 649.349 447.402 649.766C447.02 650.182 446.481 650.547 445.787 650.86C445.127 651.172 444.328 651.415 443.391 651.589C442.488 651.797 441.498 651.901 440.421 651.901C438.615 651.901 436.948 651.641 435.42 651.12C433.892 650.599 432.572 649.818 431.461 648.776C430.35 647.734 429.482 646.432 428.856 644.869C428.231 643.271 427.919 641.396 427.919 639.243C427.919 637.124 428.249 635.284 428.909 633.721C429.568 632.123 430.454 630.786 431.565 629.71C432.677 628.633 433.979 627.834 435.472 627.313C437 626.758 438.615 626.48 440.317 626.48C441.394 626.48 442.383 626.584 443.286 626.792C444.224 626.966 445.023 627.226 445.683 627.574C446.342 627.921 446.846 628.32 447.193 628.772C447.575 629.189 447.766 629.623 447.766 630.074C447.766 630.491 447.645 630.856 447.402 631.168C447.159 631.481 446.846 631.724 446.464 631.897C445.7 631.377 444.867 630.925 443.964 630.543C443.061 630.161 441.88 629.97 440.421 629.97Z" fill="white"/>
<path d="M458.317 651.12C458.144 651.19 457.883 651.259 457.536 651.328C457.189 651.433 456.807 651.485 456.39 651.485C454.897 651.485 454.15 650.86 454.15 649.609V631.95C454.15 631.151 454.289 630.526 454.567 630.074C454.879 629.588 455.383 629.119 456.077 628.668C456.98 628.077 458.196 627.574 459.724 627.157C461.287 626.705 463.041 626.48 464.985 626.48C467.764 626.48 469.153 627.174 469.153 628.564C469.153 628.911 469.101 629.241 468.997 629.553C468.892 629.831 468.753 630.074 468.58 630.283C468.233 630.213 467.781 630.144 467.225 630.074C466.67 630.005 466.114 629.97 465.558 629.97C463.961 629.97 462.554 630.144 461.339 630.491C460.123 630.804 459.116 631.186 458.317 631.637V651.12Z" fill="white"/>
<path d="M476.502 641.639C477.439 646.189 480.426 648.463 485.462 648.463C486.92 648.463 488.24 648.22 489.421 647.734C490.602 647.248 491.539 646.727 492.234 646.171C493.068 646.657 493.484 647.317 493.484 648.151C493.484 648.637 493.259 649.106 492.807 649.557C492.39 650.009 491.8 650.408 491.036 650.755C490.307 651.103 489.438 651.381 488.431 651.589C487.459 651.797 486.4 651.901 485.253 651.901C481.225 651.901 478.03 650.807 475.668 648.62C473.341 646.432 472.178 643.237 472.178 639.034C472.178 637.055 472.456 635.301 473.011 633.773C473.602 632.21 474.401 630.89 475.408 629.814C476.45 628.737 477.683 627.921 479.106 627.365C480.53 626.775 482.076 626.48 483.743 626.48C485.306 626.48 486.747 626.74 488.067 627.261C489.386 627.782 490.515 628.529 491.453 629.501C492.425 630.439 493.172 631.568 493.693 632.887C494.248 634.172 494.526 635.596 494.526 637.159C494.526 637.923 494.352 638.479 494.005 638.826C493.658 639.139 493.172 639.33 492.547 639.399L476.502 641.639ZM483.691 629.866C481.572 629.866 479.818 630.613 478.429 632.106C477.04 633.564 476.311 635.666 476.241 638.409L490.567 636.43C490.393 634.52 489.716 632.957 488.535 631.741C487.389 630.491 485.774 629.866 483.691 629.866Z" fill="white"/>
<path d="M509.141 648.515C510.6 648.515 511.798 648.376 512.736 648.099C513.708 647.786 514.403 647.491 514.819 647.213V639.659L508.36 640.337C506.554 640.51 505.217 640.927 504.349 641.587C503.48 642.212 503.046 643.15 503.046 644.4C503.046 645.72 503.55 646.744 504.557 647.474C505.564 648.168 507.092 648.515 509.141 648.515ZM509.089 626.48C512.111 626.48 514.507 627.157 516.278 628.511C518.049 629.866 518.935 632.002 518.935 634.919V647.265C518.935 648.029 518.779 648.62 518.466 649.036C518.188 649.418 517.754 649.783 517.164 650.13C516.33 650.616 515.219 651.033 513.83 651.381C512.475 651.763 510.912 651.954 509.141 651.954C505.877 651.954 503.341 651.311 501.536 650.026C499.764 648.741 498.879 646.883 498.879 644.452C498.879 642.16 499.625 640.441 501.119 639.295C502.612 638.114 504.713 637.385 507.422 637.107L514.819 636.378V634.919C514.819 633.182 514.299 631.915 513.257 631.116C512.215 630.317 510.808 629.918 509.037 629.918C507.578 629.918 506.207 630.126 504.922 630.543C503.637 630.96 502.491 631.429 501.483 631.95C501.206 631.706 500.945 631.429 500.702 631.116C500.494 630.804 500.39 630.456 500.39 630.074C500.39 629.588 500.511 629.189 500.754 628.876C500.997 628.564 501.379 628.268 501.9 627.99C502.838 627.504 503.915 627.14 505.13 626.897C506.346 626.619 507.665 626.48 509.089 626.48Z" fill="white"/>
<path d="M534.773 651.901C532.342 651.901 530.362 651.363 528.834 650.287C527.341 649.21 526.594 647.421 526.594 644.921V620.176C526.768 620.107 527.028 620.038 527.375 619.968C527.757 619.864 528.157 619.812 528.573 619.812C530.032 619.812 530.761 620.437 530.761 621.687V627.678H539.305C539.409 627.852 539.513 628.095 539.617 628.407C539.721 628.685 539.774 628.998 539.774 629.345C539.774 630.526 539.253 631.116 538.211 631.116H530.761V644.66C530.761 646.05 531.143 647.039 531.907 647.63C532.706 648.185 533.818 648.463 535.241 648.463C535.832 648.463 536.492 648.359 537.221 648.151C537.95 647.942 538.558 647.699 539.044 647.421C539.253 647.63 539.444 647.89 539.617 648.203C539.791 648.515 539.878 648.88 539.878 649.297C539.878 650.061 539.426 650.686 538.523 651.172C537.62 651.658 536.37 651.901 534.773 651.901Z" fill="white"/>
<path d="M548.131 641.639C549.068 646.189 552.055 648.463 557.091 648.463C558.549 648.463 559.869 648.22 561.05 647.734C562.231 647.248 563.168 646.727 563.863 646.171C564.696 646.657 565.113 647.317 565.113 648.151C565.113 648.637 564.887 649.106 564.436 649.557C564.019 650.009 563.429 650.408 562.665 650.755C561.935 651.103 561.067 651.381 560.06 651.589C559.088 651.797 558.028 651.901 556.882 651.901C552.854 651.901 549.659 650.807 547.297 648.62C544.97 646.432 543.807 643.237 543.807 639.034C543.807 637.055 544.085 635.301 544.64 633.773C545.231 632.21 546.029 630.89 547.037 629.814C548.078 628.737 549.311 627.921 550.735 627.365C552.159 626.775 553.705 626.48 555.372 626.48C556.934 626.48 558.376 626.74 559.695 627.261C561.015 627.782 562.144 628.529 563.081 629.501C564.054 630.439 564.801 631.568 565.321 632.887C565.877 634.172 566.155 635.596 566.155 637.159C566.155 637.923 565.981 638.479 565.634 638.826C565.287 639.139 564.8 639.33 564.175 639.399L548.131 641.639ZM555.319 629.866C553.201 629.866 551.447 630.613 550.058 632.106C548.669 633.564 547.94 635.666 547.87 638.409L562.196 636.43C562.022 634.52 561.345 632.957 560.164 631.741C559.018 630.491 557.403 629.866 555.319 629.866Z" fill="white"/>
<path d="M1330.49 624.11C1330.67 624.041 1330.93 623.971 1331.28 623.902C1331.66 623.798 1332.06 623.746 1332.47 623.746C1333.93 623.746 1334.66 624.388 1334.66 625.673V639.061C1334.66 641.319 1335.25 642.934 1336.43 643.906C1337.61 644.844 1339.25 645.313 1341.33 645.313C1342.72 645.313 1343.9 645.174 1344.87 644.896C1345.84 644.583 1346.61 644.271 1347.16 643.958V624.11C1347.34 624.041 1347.6 623.971 1347.95 623.902C1348.33 623.798 1348.71 623.746 1349.09 623.746C1350.58 623.746 1351.33 624.388 1351.33 625.673V643.802C1351.33 644.531 1351.23 645.122 1351.02 645.573C1350.85 645.99 1350.39 646.406 1349.66 646.823C1348.87 647.275 1347.75 647.709 1346.33 648.126C1344.94 648.542 1343.26 648.751 1341.28 648.751C1337.8 648.751 1335.13 647.987 1333.26 646.459C1331.41 644.931 1330.49 642.534 1330.49 639.27V624.11Z" fill="white"/>
<path d="M1369.4 648.751C1368.18 648.751 1367.04 648.612 1365.96 648.334C1364.88 648.056 1364 647.726 1363.3 647.344V657.45C1363.13 657.52 1362.87 657.589 1362.52 657.659C1362.17 657.763 1361.79 657.815 1361.38 657.815C1359.88 657.815 1359.14 657.173 1359.14 655.888V628.382C1359.14 627.688 1359.26 627.132 1359.5 626.715C1359.74 626.298 1360.25 625.864 1361.01 625.413C1361.95 624.892 1363.06 624.423 1364.34 624.006C1365.66 623.555 1367.16 623.329 1368.82 623.329C1370.53 623.329 1372.12 623.572 1373.62 624.058C1375.15 624.545 1376.45 625.309 1377.52 626.35C1378.64 627.358 1379.5 628.66 1380.13 630.257C1380.79 631.855 1381.12 633.765 1381.12 635.988C1381.12 638.141 1380.82 640.016 1380.23 641.614C1379.68 643.211 1378.88 644.548 1377.84 645.625C1376.8 646.667 1375.54 647.448 1374.09 647.969C1372.66 648.49 1371.1 648.751 1369.4 648.751ZM1368.82 645.313C1371.26 645.313 1373.2 644.583 1374.66 643.125C1376.15 641.631 1376.9 639.252 1376.9 635.988C1376.9 634.286 1376.67 632.845 1376.22 631.664C1375.81 630.483 1375.22 629.528 1374.45 628.799C1373.72 628.07 1372.87 627.549 1371.9 627.236C1370.93 626.923 1369.9 626.767 1368.82 626.767C1367.57 626.767 1366.52 626.923 1365.65 627.236C1364.78 627.549 1364 627.896 1363.3 628.278V643.646C1363.96 644.132 1364.74 644.531 1365.65 644.844C1366.55 645.156 1367.61 645.313 1368.82 645.313Z" fill="white"/>
<path d="M1408.15 644.114C1408.15 644.809 1407.99 645.347 1407.68 645.729C1407.4 646.111 1406.95 646.493 1406.33 646.875C1405.63 647.327 1404.64 647.744 1403.36 648.126C1402.07 648.542 1400.6 648.751 1398.93 648.751C1397.05 648.751 1395.34 648.508 1393.77 648.021C1392.21 647.535 1390.86 646.789 1389.71 645.781C1388.6 644.74 1387.73 643.437 1387.1 641.874C1386.51 640.277 1386.22 638.367 1386.22 636.144C1386.22 633.887 1386.53 631.959 1387.16 630.362C1387.78 628.729 1388.62 627.392 1389.66 626.35C1390.73 625.309 1391.98 624.545 1393.41 624.058C1394.87 623.572 1396.41 623.329 1398.04 623.329C1399.16 623.329 1400.23 623.468 1401.27 623.746C1402.32 624.024 1403.22 624.371 1403.98 624.788V614.317C1404.16 614.247 1404.42 614.178 1404.76 614.108C1405.15 614.004 1405.53 613.952 1405.91 613.952C1407.4 613.952 1408.15 614.577 1408.15 615.828V644.114ZM1403.98 628.538C1403.29 628.052 1402.49 627.635 1401.59 627.288C1400.68 626.941 1399.64 626.767 1398.46 626.767C1397.38 626.767 1396.36 626.941 1395.39 627.288C1394.45 627.601 1393.62 628.139 1392.89 628.903C1392.16 629.632 1391.57 630.605 1391.12 631.82C1390.7 633.036 1390.49 634.512 1390.49 636.248C1390.49 639.443 1391.25 641.753 1392.78 643.177C1394.31 644.601 1396.34 645.313 1398.88 645.313C1400.09 645.313 1401.08 645.191 1401.85 644.948C1402.65 644.67 1403.36 644.34 1403.98 643.958V628.538Z" fill="white"/>
<path d="M1424.66 645.365C1426.12 645.365 1427.31 645.226 1428.25 644.948C1429.22 644.635 1429.92 644.34 1430.34 644.062V636.509L1423.88 637.186C1422.07 637.36 1420.73 637.776 1419.86 638.436C1419 639.061 1418.56 639.999 1418.56 641.249C1418.56 642.569 1419.07 643.593 1420.07 644.323C1421.08 645.017 1422.61 645.365 1424.66 645.365ZM1424.61 623.329C1427.63 623.329 1430.02 624.006 1431.79 625.361C1433.57 626.715 1434.45 628.851 1434.45 631.768V644.114C1434.45 644.878 1434.29 645.469 1433.98 645.886C1433.7 646.268 1433.27 646.632 1432.68 646.98C1431.85 647.466 1430.74 647.882 1429.35 648.23C1427.99 648.612 1426.43 648.803 1424.66 648.803C1421.39 648.803 1418.86 648.16 1417.05 646.875C1415.28 645.59 1414.4 643.732 1414.4 641.301C1414.4 639.009 1415.14 637.29 1416.64 636.144C1418.13 634.963 1420.23 634.234 1422.94 633.956L1430.34 633.227V631.768C1430.34 630.032 1429.81 628.764 1428.77 627.965C1427.73 627.167 1426.32 626.767 1424.55 626.767C1423.09 626.767 1421.72 626.976 1420.44 627.392C1419.15 627.809 1418.01 628.278 1417 628.799C1416.72 628.556 1416.46 628.278 1416.22 627.965C1416.01 627.653 1415.91 627.305 1415.91 626.923C1415.91 626.437 1416.03 626.038 1416.27 625.725C1416.51 625.413 1416.9 625.118 1417.42 624.84C1418.35 624.354 1419.43 623.989 1420.65 623.746C1421.86 623.468 1423.18 623.329 1424.61 623.329Z" fill="white"/>
<path d="M1450.29 648.751C1447.86 648.751 1445.88 648.212 1444.35 647.136C1442.86 646.059 1442.11 644.271 1442.11 641.77V617.026C1442.28 616.956 1442.54 616.887 1442.89 616.817C1443.27 616.713 1443.67 616.661 1444.09 616.661C1445.55 616.661 1446.28 617.286 1446.28 618.536V624.527H1454.82C1454.93 624.701 1455.03 624.944 1455.13 625.256C1455.24 625.534 1455.29 625.847 1455.29 626.194C1455.29 627.375 1454.77 627.965 1453.73 627.965H1446.28V641.51C1446.28 642.899 1446.66 643.889 1447.42 644.479C1448.22 645.035 1449.33 645.313 1450.76 645.313C1451.35 645.313 1452.01 645.208 1452.74 645C1453.47 644.792 1454.07 644.548 1454.56 644.271C1454.77 644.479 1454.96 644.74 1455.13 645.052C1455.31 645.365 1455.39 645.729 1455.39 646.146C1455.39 646.91 1454.94 647.535 1454.04 648.021C1453.14 648.508 1451.89 648.751 1450.29 648.751Z" fill="white"/>
<path d="M1463.65 638.488C1464.58 643.038 1467.57 645.313 1472.61 645.313C1474.07 645.313 1475.39 645.069 1476.57 644.583C1477.75 644.097 1478.68 643.576 1479.38 643.02C1480.21 643.507 1480.63 644.166 1480.63 645C1480.63 645.486 1480.4 645.955 1479.95 646.406C1479.54 646.858 1478.94 647.257 1478.18 647.605C1477.45 647.952 1476.58 648.23 1475.58 648.438C1474.6 648.647 1473.54 648.751 1472.4 648.751C1468.37 648.751 1465.17 647.657 1462.81 645.469C1460.49 643.281 1459.32 640.086 1459.32 635.884C1459.32 633.904 1459.6 632.15 1460.16 630.622C1460.75 629.059 1461.55 627.74 1462.55 626.663C1463.59 625.586 1464.83 624.77 1466.25 624.215C1467.68 623.624 1469.22 623.329 1470.89 623.329C1472.45 623.329 1473.89 623.589 1475.21 624.11C1476.53 624.631 1477.66 625.378 1478.6 626.35C1479.57 627.288 1480.32 628.417 1480.84 629.737C1481.39 631.022 1481.67 632.445 1481.67 634.008C1481.67 634.772 1481.5 635.328 1481.15 635.675C1480.8 635.988 1480.32 636.179 1479.69 636.248L1463.65 638.488ZM1470.84 626.715C1468.72 626.715 1466.96 627.462 1465.57 628.955C1464.19 630.414 1463.46 632.515 1463.39 635.258L1477.71 633.279C1477.54 631.369 1476.86 629.806 1475.68 628.59C1474.53 627.34 1472.92 626.715 1470.84 626.715Z" fill="white"/>
<path d="M1240.54 546.472V552.258H1217.51V546.472H1224.71V524.094C1224.71 521.11 1223.99 518.781 1222.53 517.107C1221.07 515.433 1219.07 514.596 1216.53 514.596C1212.09 514.596 1207.43 516.234 1202.55 519.509C1202.77 520.6 1202.88 521.692 1202.88 522.784V546.472H1210.74V552.258H1187.71V546.472H1194.91V524.094C1194.91 521.11 1194.18 518.781 1192.73 517.107C1191.27 515.433 1189.27 514.596 1186.72 514.596C1183.01 514.596 1178.61 516.052 1173.52 518.963V546.472H1181.27V552.258H1157.25V546.472H1165.55V515.142H1157.25V509.357H1173.52V513.505C1179.05 510.012 1184.14 508.265 1188.8 508.265C1191.64 508.265 1194.11 508.884 1196.22 510.121C1198.33 511.285 1199.93 512.923 1201.02 515.033C1204.23 512.85 1207.21 511.176 1209.98 510.012C1212.74 508.847 1215.62 508.265 1218.6 508.265C1222.68 508.265 1226.02 509.539 1228.64 512.086C1231.34 514.56 1232.68 518.053 1232.68 522.565V546.472H1240.54Z" fill="white"/>
<path d="M1288.91 546.472V552.258H1275.05L1274.61 548.437C1272.28 550.184 1269.96 551.457 1267.63 552.258C1265.3 553.058 1262.68 553.459 1259.77 553.459C1255.4 553.459 1251.83 552.258 1249.07 549.856C1246.38 547.382 1245.03 544.325 1245.03 540.687C1245.03 536.029 1246.59 532.645 1249.72 530.534C1252.93 528.351 1257.11 527.259 1262.28 527.259C1265.99 527.259 1269.96 527.732 1274.18 528.679V524.203C1274.18 520.928 1273.27 518.454 1271.45 516.78C1269.7 515.106 1267.23 514.269 1264.02 514.269C1261.91 514.269 1259.48 514.633 1256.71 515.361C1254.02 516.016 1251.54 516.962 1249.29 518.199L1246.89 512.959C1249.29 511.431 1252.05 510.266 1255.18 509.466C1258.38 508.665 1261.37 508.265 1264.13 508.265C1269.74 508.265 1274.14 509.648 1277.34 512.413C1280.54 515.106 1282.15 518.781 1282.15 523.439V546.472H1288.91ZM1252.67 540.25C1252.67 542.506 1253.4 544.362 1254.85 545.817C1256.38 547.2 1258.42 547.891 1260.97 547.891C1265.26 547.891 1269.66 546.327 1274.18 543.197V533.373C1270.32 532.499 1266.53 532.063 1262.82 532.063C1259.91 532.063 1257.47 532.718 1255.51 534.028C1253.62 535.265 1252.67 537.339 1252.67 540.25Z" fill="white"/>
<path d="M1346.78 546.472V552.258H1323.74V546.472H1330.84V524.094C1330.84 521.11 1330.11 518.781 1328.66 517.107C1327.2 515.433 1325.2 514.596 1322.65 514.596C1320.54 514.596 1318.39 514.997 1316.21 515.797C1314.1 516.525 1311.77 517.653 1309.22 519.181V546.472H1316.97V552.258H1292.96V546.472H1301.26V515.142H1292.96V509.357H1309.22V513.614C1314.9 510.048 1320.07 508.265 1324.73 508.265C1328.8 508.265 1332.15 509.539 1334.77 512.086C1337.46 514.56 1338.81 518.053 1338.81 522.565V546.472H1346.78Z" fill="white"/>
<path d="M1395.09 546.472V552.258H1381.23L1380.79 548.437C1378.46 550.184 1376.13 551.457 1373.81 552.258C1371.48 553.058 1368.86 553.459 1365.95 553.459C1361.58 553.459 1358.01 552.258 1355.25 549.856C1352.55 547.382 1351.21 544.325 1351.21 540.687C1351.21 536.029 1352.77 532.645 1355.9 530.534C1359.1 528.351 1363.29 527.259 1368.46 527.259C1372.17 527.259 1376.13 527.732 1380.36 528.679V524.203C1380.36 520.928 1379.45 518.454 1377.63 516.78C1375.88 515.106 1373.41 514.269 1370.2 514.269C1368.09 514.269 1365.65 514.633 1362.89 515.361C1360.2 516.016 1357.72 516.962 1355.47 518.199L1353.06 512.959C1355.47 511.431 1358.23 510.266 1361.36 509.466C1364.56 508.665 1367.55 508.265 1370.31 508.265C1375.92 508.265 1380.32 509.648 1383.52 512.413C1386.72 515.106 1388.32 518.781 1388.32 523.439V546.472H1395.09ZM1358.85 540.25C1358.85 542.506 1359.58 544.362 1361.03 545.817C1362.56 547.2 1364.6 547.891 1367.15 547.891C1371.44 547.891 1375.84 546.327 1380.36 543.197V533.373C1376.5 532.499 1372.71 532.063 1369 532.063C1366.09 532.063 1363.65 532.718 1361.69 534.028C1359.8 535.265 1358.85 537.339 1358.85 540.25Z" fill="white"/>
<path d="M1444.44 509.357V515.142V553.24C1444.44 559.863 1442.44 564.775 1438.44 567.978C1434.43 571.18 1429.08 572.781 1422.39 572.781C1417.3 572.781 1411.91 571.907 1406.23 570.161L1407.87 563.829C1413.4 565.503 1418.17 566.34 1422.17 566.34C1426.68 566.34 1430.18 565.285 1432.65 563.174C1435.13 561.137 1436.36 558.007 1436.36 553.786V547.891C1434.32 549.42 1432.03 550.584 1429.48 551.385C1427.01 552.185 1424.54 552.585 1422.06 552.585C1417.99 552.585 1414.27 551.712 1410.93 549.966C1407.58 548.146 1404.92 545.563 1402.96 542.215C1401.07 538.867 1400.12 534.937 1400.12 530.425C1400.12 525.768 1401.07 521.801 1402.96 518.526C1404.85 515.179 1407.43 512.668 1410.71 510.994C1414.06 509.247 1417.77 508.374 1421.84 508.374C1424.32 508.374 1426.87 508.811 1429.48 509.684C1432.1 510.485 1434.36 511.649 1436.25 513.177V509.357H1444.44ZM1408.53 530.971C1408.53 535.847 1409.94 539.668 1412.78 542.433C1415.62 545.199 1419.26 546.581 1423.7 546.581C1425.81 546.581 1427.96 546.218 1430.14 545.49C1432.4 544.762 1434.47 543.707 1436.36 542.324L1436.25 518.745C1434.14 517.362 1431.89 516.27 1429.48 515.47C1427.16 514.669 1424.94 514.269 1422.83 514.269C1418.53 514.269 1415.08 515.761 1412.46 518.745C1409.84 521.656 1408.53 525.731 1408.53 530.971Z" fill="white"/>
<path d="M1498.67 532.499H1480.99H1463.3C1463.81 537.084 1465.45 540.723 1468.21 543.416C1470.98 546.036 1474.51 547.346 1478.8 547.346C1484.77 547.346 1490.19 545.053 1495.07 540.468L1497.91 545.381C1495.8 547.855 1493.14 549.856 1489.94 551.385C1486.74 552.84 1483.13 553.568 1479.13 553.568C1474.62 553.568 1470.51 552.622 1466.8 550.73C1463.08 548.837 1460.17 546.181 1458.06 542.761C1455.95 539.267 1454.9 535.301 1454.9 530.862C1454.9 526.35 1455.88 522.383 1457.84 518.963C1459.88 515.47 1462.61 512.813 1466.03 510.994C1469.52 509.102 1473.38 508.156 1477.6 508.156C1484.15 508.156 1489.28 510.157 1493 514.16C1496.78 518.162 1498.67 523.584 1498.67 530.425V532.499ZM1490.7 527.478C1490.7 523.33 1489.47 520.055 1486.99 517.653C1484.59 515.251 1481.46 514.051 1477.6 514.051C1473.82 514.051 1470.62 515.251 1468 517.653C1465.38 520.055 1463.81 523.33 1463.3 527.478H1490.7Z" fill="white"/>
<path d="M1533.6 508.811C1536.36 508.811 1539.27 509.539 1542.33 510.994L1540.37 518.308C1537.89 516.707 1535.38 515.906 1532.83 515.906C1529.92 515.906 1527.48 517.107 1525.52 519.509C1523.63 521.838 1522.68 525.076 1522.68 529.224L1522.57 546.472H1530.21V552.258H1506.31V546.472H1514.6V515.142H1506.31V509.357H1522.57V517.216C1524.9 511.613 1528.58 508.811 1533.6 508.811Z" fill="white"/>
<path d="M776.522 508.265C780.451 508.265 783.981 509.138 787.11 510.885C790.313 512.559 792.823 515.069 794.643 518.417C796.462 521.692 797.372 525.622 797.372 530.207C797.372 534.937 796.353 539.049 794.315 542.542C792.35 546.036 789.658 548.728 786.237 550.62C782.889 552.44 779.214 553.35 775.212 553.35C772.664 553.35 770.226 552.949 767.898 552.149C765.642 551.348 763.786 550.293 762.33 548.983L762.221 563.502H770.627V569.287H746.501V563.502H754.252V515.142H746.72V509.357H761.784L761.894 513.396C764.004 511.722 766.296 510.448 768.771 509.575C771.318 508.702 773.902 508.265 776.522 508.265ZM773.792 547.346C778.305 547.346 781.943 545.926 784.709 543.088C787.547 540.177 788.966 536.102 788.966 530.862C788.966 525.768 787.583 521.765 784.818 518.854C782.125 515.943 778.632 514.487 774.338 514.487C772.592 514.487 770.554 514.851 768.225 515.579C765.969 516.307 763.968 517.398 762.221 518.854L762.33 543.197C764.004 544.507 765.823 545.526 767.788 546.254C769.826 546.982 771.828 547.346 773.792 547.346Z" fill="white"/>
<path d="M848.43 546.472V552.258H834.566L834.129 548.437C831.801 550.184 829.472 551.457 827.143 552.258C824.814 553.058 822.194 553.459 819.283 553.459C814.916 553.459 811.35 552.258 808.585 549.856C805.892 547.382 804.546 544.325 804.546 540.687C804.546 536.029 806.111 532.645 809.24 530.534C812.442 528.351 816.627 527.259 821.794 527.259C825.505 527.259 829.472 527.732 833.693 528.679V524.203C833.693 520.928 832.783 518.454 830.964 516.78C829.217 515.106 826.743 514.269 823.54 514.269C821.43 514.269 818.992 514.633 816.226 515.361C813.534 516.016 811.059 516.962 808.803 518.199L806.402 512.959C808.803 511.431 811.569 510.266 814.698 509.466C817.9 508.665 820.884 508.265 823.65 508.265C829.253 508.265 833.656 509.648 836.858 512.413C840.061 515.106 841.662 518.781 841.662 523.439V546.472H848.43ZM812.187 540.25C812.187 542.506 812.915 544.362 814.371 545.817C815.899 547.2 817.937 547.891 820.484 547.891C824.778 547.891 829.181 546.327 833.693 543.197V533.373C829.836 532.499 826.051 532.063 822.34 532.063C819.429 532.063 816.991 532.718 815.026 534.028C813.133 535.265 812.187 537.339 812.187 540.25Z" fill="white"/>
<path d="M877.255 514.487C872.597 514.487 868.777 515.979 865.793 518.963C862.809 521.947 861.317 525.731 861.317 530.316C861.317 535.265 862.773 539.304 865.684 542.433C868.595 545.49 872.379 547.018 877.037 547.018C880.53 547.018 883.477 546.363 885.879 545.053C888.281 543.67 890.609 541.705 892.865 539.158L896.25 544.071C893.993 546.982 891.192 549.274 887.844 550.948C884.496 552.549 880.639 553.35 876.273 553.35C871.76 553.35 867.721 552.367 864.155 550.402C860.662 548.437 857.897 545.745 855.859 542.324C853.894 538.831 852.911 534.901 852.911 530.534C852.911 526.168 853.858 522.311 855.75 518.963C857.715 515.543 860.407 512.886 863.828 510.994C867.248 509.102 871.105 508.156 875.399 508.156C878.601 508.156 881.44 508.738 883.914 509.902C886.388 511.067 888.281 512.631 889.591 514.596V509.138H896.359V524.53H890.246C889.591 521.401 888.099 518.963 885.77 517.216C883.441 515.397 880.603 514.487 877.255 514.487Z" fill="white"/>
<path d="M1002.58 546.472V552.258H988.717L988.281 548.437C985.952 550.184 983.623 551.457 981.294 552.258C978.965 553.058 976.345 553.459 973.434 553.459C969.068 553.459 965.502 552.258 962.736 549.856C960.044 547.382 958.697 544.325 958.697 540.687C958.697 536.029 960.262 532.645 963.391 530.534C966.593 528.351 970.778 527.259 975.945 527.259C979.657 527.259 983.623 527.732 987.844 528.679V524.203C987.844 520.928 986.934 518.454 985.115 516.78C983.368 515.106 980.894 514.269 977.692 514.269C975.581 514.269 973.143 514.633 970.378 515.361C967.685 516.016 965.211 516.962 962.955 518.199L960.553 512.959C962.955 511.431 965.72 510.266 968.849 509.466C972.052 508.665 975.035 508.265 977.801 508.265C983.405 508.265 987.808 509.648 991.01 512.413C994.212 515.106 995.813 518.781 995.813 523.439V546.472H1002.58ZM966.339 540.25C966.339 542.506 967.066 544.362 968.522 545.817C970.05 547.2 972.088 547.891 974.635 547.891C978.929 547.891 983.332 546.327 987.844 543.197V533.373C983.987 532.499 980.202 532.063 976.491 532.063C973.58 532.063 971.142 532.718 969.177 534.028C967.285 535.265 966.339 537.339 966.339 540.25Z" fill="white"/>
<path d="M1051.93 509.357V515.142V553.24C1051.93 559.863 1049.93 564.775 1045.93 567.978C1041.92 571.18 1036.57 572.781 1029.88 572.781C1024.78 572.781 1019.4 571.907 1013.72 570.161L1015.36 563.829C1020.89 565.503 1025.66 566.34 1029.66 566.34C1034.17 566.34 1037.66 565.285 1040.14 563.174C1042.61 561.137 1043.85 558.007 1043.85 553.786V547.891C1041.81 549.42 1039.52 550.584 1036.97 551.385C1034.5 552.185 1032.02 552.585 1029.55 552.585C1025.47 552.585 1021.76 551.712 1018.42 549.966C1015.07 548.146 1012.41 545.563 1010.45 542.215C1008.55 538.867 1007.61 534.937 1007.61 530.425C1007.61 525.768 1008.55 521.801 1010.45 518.526C1012.34 515.179 1014.92 512.668 1018.2 510.994C1021.55 509.247 1025.26 508.374 1029.33 508.374C1031.81 508.374 1034.35 508.811 1036.97 509.684C1039.59 510.485 1041.85 511.649 1043.74 513.177V509.357H1051.93ZM1016.01 530.971C1016.01 535.847 1017.43 539.668 1020.27 542.433C1023.11 545.199 1026.75 546.581 1031.19 546.581C1033.3 546.581 1035.45 546.218 1037.63 545.49C1039.88 544.762 1041.96 543.707 1043.85 542.324L1043.74 518.745C1041.63 517.362 1039.38 516.27 1036.97 515.47C1034.64 514.669 1032.43 514.269 1030.31 514.269C1026.02 514.269 1022.56 515.761 1019.94 518.745C1017.32 521.656 1016.01 525.731 1016.01 530.971Z" fill="white"/>
<path d="M1106.15 532.499H1070.78C1071.29 537.084 1072.93 540.723 1075.69 543.416C1078.46 546.036 1081.99 547.346 1086.28 547.346C1092.25 547.346 1097.67 545.053 1102.55 540.468L1105.39 545.381C1103.28 547.855 1100.62 549.856 1097.42 551.385C1094.22 552.84 1090.61 553.568 1086.61 553.568C1082.1 553.568 1077.99 552.622 1074.28 550.73C1070.56 548.837 1067.65 546.181 1065.54 542.761C1063.43 539.267 1062.38 535.301 1062.38 530.862C1062.38 526.35 1063.36 522.383 1065.32 518.963C1067.36 515.47 1070.09 512.813 1073.51 510.994C1077 509.102 1080.86 508.156 1085.08 508.156C1091.63 508.156 1096.76 510.157 1100.47 514.16C1104.26 518.162 1106.15 523.584 1106.15 530.425V532.499ZM1098.18 527.478C1098.18 523.33 1096.95 520.055 1094.47 517.653C1092.07 515.251 1088.94 514.051 1085.08 514.051C1081.3 514.051 1078.1 515.251 1075.48 517.653C1072.86 520.055 1071.29 523.33 1070.78 527.478H1098.18Z" fill="white"/>
<path d="M366.065 546.472H374.58V496.584H366.065V490.799H418.573V509.466H411.695V496.584H383.531V517.216H402.089H406.674V523.439H402.089H383.531V546.472H392.046V552.258H366.065V546.472Z" fill="white"/>
<path d="M446.845 553.568C442.26 553.568 438.221 552.622 434.728 550.73C431.235 548.837 428.506 546.181 426.541 542.761C424.649 539.267 423.703 535.265 423.703 530.753C423.703 526.24 424.649 522.274 426.541 518.854C428.506 515.433 431.235 512.813 434.728 510.994C438.221 509.102 442.26 508.156 446.845 508.156C451.43 508.156 455.469 509.102 458.963 510.994C462.529 512.813 465.294 515.433 467.259 518.854C469.224 522.274 470.206 526.204 470.206 530.643C470.206 535.155 469.224 539.158 467.259 542.651C465.294 546.145 462.529 548.837 458.963 550.73C455.469 552.622 451.43 553.568 446.845 553.568ZM446.845 547.236C451.357 547.236 454.996 545.744 457.762 542.761C460.527 539.704 461.91 535.665 461.91 530.643C461.91 525.767 460.527 521.874 457.762 518.963C454.996 515.979 451.357 514.487 446.845 514.487C442.333 514.487 438.731 515.979 436.038 518.963C433.345 521.947 431.999 525.877 431.999 530.753C431.999 535.701 433.345 539.704 436.038 542.761C438.804 545.744 442.406 547.236 446.845 547.236Z" fill="white"/>
<path d="M504.002 508.811C506.767 508.811 509.678 509.538 512.735 510.994L510.77 518.308C508.296 516.707 505.785 515.906 503.238 515.906C500.327 515.906 497.889 517.107 495.924 519.509C494.032 521.838 493.086 525.076 493.086 529.224L492.976 546.472H500.618V552.258H476.711V546.472H485.007V515.142H476.711V509.356H492.976V517.216C495.305 511.612 498.98 508.811 504.002 508.811Z" fill="white"/>
<path d="M536.723 552.258C528.427 552.258 524.278 548.037 524.278 539.595V515.142H517.183V509.356H524.278V494.728L532.356 491.563V509.356H543.709V515.142H532.356V539.158C532.356 541.851 532.793 543.743 533.666 544.835C534.54 545.926 536.032 546.472 538.142 546.472H544.692V552.258H536.723Z" fill="white"/>
<path d="M578.946 508.811C581.711 508.811 584.622 509.538 587.679 510.994L585.714 518.308C583.239 516.707 580.728 515.906 578.181 515.906C575.27 515.906 572.832 517.107 570.867 519.509C568.975 521.838 568.029 525.076 568.029 529.224L567.92 546.472H575.561V552.258H551.655V546.472H559.951V515.142H551.655V509.356H567.92V517.216C570.249 511.612 573.924 508.811 578.946 508.811Z" fill="white"/>
<path d="M638.084 546.472V552.258H624.22L623.784 548.437C621.455 550.184 619.126 551.457 616.797 552.258C614.468 553.058 611.848 553.459 608.937 553.459C604.571 553.459 601.005 552.258 598.239 549.856C595.547 547.382 594.2 544.325 594.2 540.686C594.2 536.029 595.765 532.645 598.894 530.534C602.096 528.351 606.281 527.259 611.448 527.259C615.16 527.259 619.126 527.732 623.347 528.678V524.203C623.347 520.928 622.437 518.453 620.618 516.78C618.871 515.106 616.397 514.269 613.195 514.269C611.084 514.269 608.646 514.633 605.881 515.36C603.188 516.015 600.714 516.962 598.458 518.199L596.056 512.959C598.458 511.431 601.223 510.266 604.353 509.466C607.555 508.665 610.538 508.265 613.304 508.265C618.908 508.265 623.311 509.648 626.513 512.413C629.715 515.106 631.316 518.781 631.316 523.439V546.472H638.084ZM601.842 540.25C601.842 542.506 602.57 544.362 604.025 545.817C605.553 547.2 607.591 547.891 610.138 547.891C614.432 547.891 618.835 546.327 623.347 543.197V533.372C619.49 532.499 615.706 532.063 611.994 532.063C609.083 532.063 606.645 532.717 604.68 534.027C602.788 535.265 601.842 537.339 601.842 540.25Z" fill="white"/>
<path d="M695.947 546.472V552.258H672.913V546.472H680.009V524.094C680.009 521.11 679.281 518.781 677.826 517.107C676.37 515.433 674.369 514.596 671.822 514.596C669.711 514.596 667.564 514.997 665.381 515.797C663.271 516.525 660.942 517.653 658.395 519.181V546.472H666.145V552.258H642.129V546.472H650.426V515.142H642.129V509.356H658.395V513.614C664.071 510.048 669.238 508.265 673.896 508.265C677.971 508.265 681.319 509.538 683.939 512.086C686.632 514.56 687.978 518.053 687.978 522.565V546.472H695.947Z" fill="white"/>
<path d="M902.909 546.472H910.987V495.384H903.127V489.707H919.065V529.333V531.189V546.472H926.051V552.258H902.909V546.472Z" fill="white"/>
<path fill-rule="evenodd" clip-rule="evenodd" d="M919.063 531.181L940.131 552.249H952.685V546.464H944.17L927.359 529.871L919.058 529.872L919.063 531.181Z" fill="white"/>
<path fill-rule="evenodd" clip-rule="evenodd" d="M919.063 528.561L939.955 509.34H952.508V515.126H943.993L927.359 529.871L919.058 529.87L919.063 528.561Z" fill="white"/>
<path d="M1111.61 356.295L1124.44 259.125H1142.94L1145.55 269.277C1155.04 262.848 1165.25 257.856 1176.98 257.856C1183.15 257.856 1188.07 259.065 1191.76 261.482C1195.57 263.778 1198.62 267.404 1200.92 272.359C1209.92 264.366 1225.56 257.856 1237.92 257.856C1246.99 257.856 1253.57 259.911 1257.67 264.02C1261.88 268.008 1264.07 273.749 1264.26 281.242C1264.37 285.56 1264.19 290.047 1263.5 294.295L1255.24 356.295H1232.75L1241.02 294.839C1241.23 293.509 1241.31 292.059 1241.27 290.488C1241.07 282.149 1236.31 277.979 1227 277.979C1218.61 277.979 1207.75 282.961 1201.12 287.587C1201.46 290.326 1201.29 293.243 1200.78 295.926L1192.66 356.295H1170.35L1178.28 295.745C1178.5 294.657 1178.6 293.751 1178.58 293.026C1178.68 292.18 1178.72 291.273 1178.69 290.306C1178.6 286.439 1177.43 283.418 1175.2 281.242C1172.97 279.067 1169.44 277.979 1164.6 277.979C1156.45 277.979 1150.07 282.66 1143.44 286.862L1134.1 356.295H1111.61Z" fill="white"/>
<path d="M999.403 399.181L1017.78 262.308C1025.12 260.979 1032.53 259.952 1040.01 259.227C1047.49 258.381 1055.76 257.958 1064.83 257.958C1075.95 257.958 1084.06 260.798 1089.16 266.478C1094.38 272.158 1097.13 280.739 1097.42 292.221C1097.49 295.242 1097.39 298.385 1097.11 301.648C1096.83 304.911 1096.48 308.174 1096.08 311.437C1094.04 326.545 1089.24 337.966 1081.69 345.701C1074.15 353.436 1064.27 357.303 1052.05 357.303C1047.34 357.303 1042.98 356.941 1038.97 356.216C1034.96 355.49 1031.3 354.342 1028 352.771L1021.89 399.181H999.403ZM1049.04 338.268C1056.78 338.268 1062.58 335.73 1066.45 330.654C1070.31 325.578 1073.02 317.662 1074.57 306.905C1074.77 305.334 1074.97 303.582 1075.16 301.648C1075.35 299.714 1075.43 297.841 1075.38 296.028C1075.22 289.381 1073.83 284.426 1071.21 281.162C1068.7 277.778 1064.73 276.086 1059.29 276.086L1038.26 276.268L1030.28 335.005C1033.69 336.093 1036.68 336.939 1039.23 337.543C1041.9 338.026 1045.17 338.268 1049.04 338.268Z" fill="white"/>
<path d="M933.566 356.216L943.945 277.356H924.868L926.867 262.853L946.394 259.046L948.573 244.543C949.282 238.984 950.734 234.149 952.93 230.04C955.243 225.81 958.609 222.547 963.026 220.251C967.564 217.954 973.581 216.806 981.078 216.806C985.069 216.806 994.114 216.987 997.992 217.35C1001.87 217.592 1007.76 217.954 1010.55 218.438L1008.42 234.754H985.332C979.891 234.754 976.115 236.083 974.004 238.742C971.89 241.28 970.537 245.208 969.943 250.526L968.885 259.046H999.751L997.303 277.356H966.436L955.876 356.216H933.566Z" fill="white"/>
<path d="M696.945 336.896H763.29L755.516 397.505C755.393 398.463 754.577 399.181 753.611 399.181H690.41C689.639 399.181 689.044 398.504 689.141 397.739L696.945 336.896Z" fill="#8F61F6"/>
<path d="M765.734 265.891H706.678L698.689 328.176H765.034L772.094 273.13C768.114 273.084 765.272 269.86 765.734 265.891Z" fill="#6F58DF"/>
<path d="M848.137 265.891H789.943C789.109 270.511 784.945 273.177 781.27 273.13L774.252 328.176H838.505C839.472 328.176 840.288 327.457 840.41 326.498L848.137 265.891Z" fill="#6F58DF"/>
<path fill-rule="evenodd" clip-rule="evenodd" d="M782.93 194.885C751.312 194.482 715.487 217.423 708.317 257.17H766.953C767.787 252.55 771.951 249.883 775.626 249.93L782.93 194.885ZM791.771 194.882H856.258C857.029 194.882 857.625 195.559 857.528 196.324L849.771 257.167L791.119 257.167C791.58 253.195 788.735 249.971 784.753 249.927L791.771 194.882Z" fill="#4E53D1"/>
</svg>
