<svg width="1921" height="768" viewBox="0 0 1921 768" fill="none" xmlns="http://www.w3.org/2000/svg">
<rect x="0.283203" width="1920" height="768" fill="white"/>
<path d="M826.254 647.812C826.081 647.882 825.82 647.951 825.473 648.021C825.126 648.125 824.744 648.177 824.327 648.177C822.834 648.177 822.087 647.552 822.087 646.301V628.642C822.087 627.843 822.226 627.218 822.504 626.766C822.816 626.28 823.32 625.811 824.014 625.36C824.917 624.769 826.133 624.266 827.661 623.849C829.224 623.398 830.978 623.172 832.922 623.172C835.701 623.172 837.09 623.866 837.09 625.256C837.09 625.603 837.038 625.933 836.934 626.245C836.829 626.523 836.691 626.766 836.517 626.975C836.17 626.905 835.718 626.836 835.162 626.766C834.607 626.697 834.051 626.662 833.495 626.662C831.898 626.662 830.491 626.836 829.276 627.183C828.06 627.496 827.053 627.878 826.254 628.329V647.812Z" fill="#32365C"/>
<path d="M841.978 623.953C842.152 623.884 842.412 623.814 842.76 623.745C843.142 623.641 843.541 623.589 843.958 623.589C845.416 623.589 846.146 624.231 846.146 625.516V638.904C846.146 641.162 846.736 642.776 847.917 643.749C849.098 644.687 850.73 645.155 852.814 645.155C854.203 645.155 855.384 645.016 856.356 644.739C857.328 644.426 858.092 644.113 858.648 643.801V623.953C858.822 623.884 859.082 623.814 859.43 623.745C859.812 623.641 860.194 623.589 860.576 623.589C862.069 623.589 862.816 624.231 862.816 625.516V643.645C862.816 644.374 862.711 644.964 862.503 645.416C862.329 645.833 861.878 646.249 861.149 646.666C860.35 647.118 859.239 647.552 857.815 647.968C856.425 648.385 854.741 648.594 852.762 648.594C849.289 648.594 846.614 647.83 844.739 646.301C842.898 644.773 841.978 642.377 841.978 639.113V623.953Z" fill="#32365C"/>
<path d="M887.289 632.236C887.289 630.291 886.734 628.867 885.622 627.964C884.546 627.062 883.087 626.61 881.247 626.61C879.857 626.61 878.625 626.784 877.548 627.131C876.471 627.478 875.551 627.878 874.787 628.329V647.812C874.613 647.882 874.353 647.951 874.006 648.021C873.658 648.125 873.276 648.177 872.86 648.177C871.366 648.177 870.619 647.552 870.619 646.301V628.537C870.619 627.808 870.758 627.218 871.036 626.766C871.349 626.28 871.87 625.811 872.599 625.36C873.502 624.804 874.7 624.301 876.194 623.849C877.687 623.398 879.371 623.172 881.247 623.172C884.407 623.172 886.89 623.884 888.696 625.308C890.537 626.732 891.457 628.972 891.457 632.028V647.812C891.283 647.882 891.005 647.951 890.623 648.021C890.276 648.125 889.911 648.177 889.529 648.177C888.036 648.177 887.289 647.552 887.289 646.301V632.236Z" fill="#32365C"/>
<path d="M975.864 651.928C973.433 651.928 971.454 651.389 969.926 650.313C968.432 649.236 967.686 647.448 967.686 644.947V620.203C967.859 620.133 968.12 620.064 968.467 619.994C968.849 619.89 969.248 619.838 969.665 619.838C971.124 619.838 971.853 620.463 971.853 621.713V627.704H980.396C980.501 627.878 980.605 628.121 980.709 628.433C980.813 628.711 980.865 629.024 980.865 629.371C980.865 630.552 980.344 631.142 979.302 631.142H971.853V644.687C971.853 646.076 972.235 647.066 972.999 647.656C973.798 648.212 974.909 648.489 976.333 648.489C976.923 648.489 977.583 648.385 978.313 648.177C979.042 647.968 979.65 647.725 980.136 647.448C980.344 647.656 980.535 647.916 980.709 648.229C980.883 648.542 980.969 648.906 980.969 649.323C980.969 650.087 980.518 650.712 979.615 651.198C978.712 651.684 977.462 651.928 975.864 651.928Z" fill="#32365C"/>
<path d="M989.222 641.665C990.16 646.215 993.147 648.489 998.182 648.489C999.641 648.489 1000.96 648.246 1002.14 647.76C1003.32 647.274 1004.26 646.753 1004.95 646.197C1005.79 646.683 1006.2 647.343 1006.2 648.177C1006.2 648.663 1005.98 649.132 1005.53 649.583C1005.11 650.035 1004.52 650.434 1003.76 650.782C1003.03 651.129 1002.16 651.407 1001.15 651.615C1000.18 651.823 999.12 651.928 997.974 651.928C993.945 651.928 990.75 650.834 988.389 648.646C986.062 646.458 984.898 643.263 984.898 639.06C984.898 637.081 985.176 635.327 985.732 633.799C986.322 632.236 987.121 630.916 988.128 629.84C989.17 628.763 990.403 627.947 991.827 627.391C993.251 626.801 994.796 626.506 996.463 626.506C998.026 626.506 999.467 626.766 1000.79 627.287C1002.11 627.808 1003.24 628.555 1004.17 629.527C1005.15 630.465 1005.89 631.594 1006.41 632.913C1006.97 634.198 1007.25 635.622 1007.25 637.185C1007.25 637.949 1007.07 638.505 1006.73 638.852C1006.38 639.165 1005.89 639.356 1005.27 639.425L989.222 641.665ZM996.411 629.892C994.293 629.892 992.539 630.639 991.15 632.132C989.761 633.591 989.031 635.692 988.962 638.435L1003.29 636.456C1003.11 634.546 1002.44 632.983 1001.26 631.767C1000.11 630.517 998.495 629.892 996.411 629.892Z" fill="#32365C"/>
<path d="M1030.55 644.843C1030.55 647.066 1029.74 648.802 1028.11 650.052C1026.47 651.302 1024.11 651.928 1021.02 651.928C1019.7 651.928 1018.49 651.806 1017.37 651.563C1016.26 651.355 1015.31 651.077 1014.51 650.729C1013.75 650.347 1013.14 649.931 1012.69 649.479C1012.27 648.993 1012.06 648.507 1012.06 648.021C1012.06 647.604 1012.17 647.204 1012.37 646.822C1012.62 646.44 1012.96 646.11 1013.42 645.833C1014.35 646.527 1015.45 647.152 1016.7 647.708C1017.95 648.229 1019.37 648.489 1020.97 648.489C1024.58 648.489 1026.39 647.274 1026.39 644.843C1026.39 642.863 1025.19 641.578 1022.79 640.988L1018.47 639.842C1016.35 639.286 1014.8 638.487 1013.83 637.446C1012.86 636.369 1012.37 634.997 1012.37 633.33C1012.37 632.427 1012.55 631.559 1012.89 630.725C1013.28 629.892 1013.85 629.163 1014.61 628.538C1015.38 627.912 1016.32 627.426 1017.43 627.079C1018.57 626.697 1019.91 626.506 1021.44 626.506C1023.87 626.506 1025.83 626.871 1027.32 627.6C1028.82 628.294 1029.56 629.111 1029.56 630.048C1029.56 630.5 1029.44 630.899 1029.2 631.246C1028.99 631.594 1028.7 631.854 1028.31 632.028C1027.69 631.611 1026.8 631.16 1025.66 630.673C1024.51 630.187 1023.16 629.944 1021.59 629.944C1020.03 629.944 1018.78 630.239 1017.84 630.83C1016.94 631.42 1016.49 632.254 1016.49 633.33C1016.49 634.129 1016.75 634.806 1017.27 635.362C1017.79 635.917 1018.66 636.334 1019.87 636.612L1023.47 637.498C1025.83 638.088 1027.6 638.974 1028.78 640.154C1029.96 641.3 1030.55 642.863 1030.55 644.843Z" fill="#32365C"/>
<path d="M1045.1 651.928C1042.67 651.928 1040.69 651.389 1039.16 650.313C1037.67 649.236 1036.92 647.448 1036.92 644.947V620.203C1037.1 620.133 1037.36 620.064 1037.7 619.994C1038.09 619.89 1038.49 619.838 1038.9 619.838C1040.36 619.838 1041.09 620.463 1041.09 621.713V627.704H1049.63C1049.74 627.878 1049.84 628.121 1049.95 628.433C1050.05 628.711 1050.1 629.024 1050.1 629.371C1050.1 630.552 1049.58 631.142 1048.54 631.142H1041.09V644.687C1041.09 646.076 1041.47 647.066 1042.24 647.656C1043.04 648.212 1044.15 648.489 1045.57 648.489C1046.16 648.489 1046.82 648.385 1047.55 648.177C1048.28 647.968 1048.89 647.725 1049.37 647.448C1049.58 647.656 1049.77 647.916 1049.95 648.229C1050.12 648.542 1050.21 648.906 1050.21 649.323C1050.21 650.087 1049.76 650.712 1048.85 651.198C1047.95 651.684 1046.7 651.928 1045.1 651.928Z" fill="#32365C"/>
<path d="M1131.23 652.554C1131.06 652.623 1130.8 652.693 1130.45 652.762C1130.1 652.866 1129.72 652.918 1129.3 652.918C1127.81 652.918 1127.06 652.293 1127.06 651.043V628.695C1127.24 628.625 1127.5 628.556 1127.84 628.486C1128.23 628.382 1128.62 628.33 1129.04 628.33C1130.5 628.33 1131.23 628.973 1131.23 630.258V652.554ZM1126.44 620.985C1126.44 620.256 1126.68 619.648 1127.17 619.162C1127.69 618.641 1128.35 618.38 1129.15 618.38C1129.94 618.38 1130.59 618.641 1131.07 619.162C1131.56 619.648 1131.8 620.256 1131.8 620.985C1131.8 621.714 1131.56 622.339 1131.07 622.86C1130.59 623.347 1129.94 623.59 1129.15 623.59C1128.35 623.59 1127.69 623.347 1127.17 622.86C1126.68 622.339 1126.44 621.714 1126.44 620.985Z" fill="#32365C"/>
<path d="M1156.04 636.978C1156.04 635.033 1155.48 633.609 1154.37 632.706C1153.29 631.803 1151.83 631.352 1149.99 631.352C1148.61 631.352 1147.37 631.525 1146.3 631.873C1145.22 632.22 1144.3 632.619 1143.53 633.071V652.554C1143.36 652.623 1143.1 652.693 1142.75 652.762C1142.41 652.866 1142.02 652.918 1141.61 652.918C1140.11 652.918 1139.37 652.293 1139.37 651.043V633.279C1139.37 632.55 1139.51 631.959 1139.78 631.508C1140.1 631.022 1140.62 630.553 1141.35 630.101C1142.25 629.546 1143.45 629.042 1144.94 628.591C1146.43 628.139 1148.12 627.913 1149.99 627.913C1153.15 627.913 1155.64 628.625 1157.44 630.049C1159.28 631.473 1160.2 633.713 1160.2 636.769V652.554C1160.03 652.623 1159.75 652.693 1159.37 652.762C1159.02 652.866 1158.66 652.918 1158.28 652.918C1156.78 652.918 1156.04 652.293 1156.04 651.043V636.978Z" fill="#32365C"/>
<path d="M1184.99 646.25C1184.99 648.473 1184.17 650.21 1182.54 651.46C1180.91 652.71 1178.55 653.335 1175.46 653.335C1174.14 653.335 1172.92 653.214 1171.81 652.971C1170.7 652.762 1169.75 652.484 1168.95 652.137C1168.18 651.755 1167.57 651.338 1167.12 650.887C1166.71 650.401 1166.5 649.914 1166.5 649.428C1166.5 649.011 1166.6 648.612 1166.81 648.23C1167.05 647.848 1167.4 647.518 1167.85 647.24C1168.79 647.935 1169.88 648.56 1171.13 649.116C1172.38 649.637 1173.81 649.897 1175.41 649.897C1179.02 649.897 1180.82 648.681 1180.82 646.25C1180.82 644.271 1179.63 642.986 1177.23 642.395L1172.91 641.249C1170.79 640.694 1169.24 639.895 1168.27 638.853C1167.3 637.777 1166.81 636.405 1166.81 634.738C1166.81 633.835 1166.98 632.967 1167.33 632.133C1167.71 631.3 1168.29 630.57 1169.05 629.945C1169.81 629.32 1170.75 628.834 1171.86 628.486C1173.01 628.104 1174.35 627.913 1175.87 627.913C1178.31 627.913 1180.27 628.278 1181.76 629.007C1183.25 629.702 1184 630.518 1184 631.456C1184 631.907 1183.88 632.307 1183.64 632.654C1183.43 633.001 1183.13 633.262 1182.75 633.435C1182.13 633.019 1181.24 632.567 1180.09 632.081C1178.95 631.595 1177.59 631.352 1176.03 631.352C1174.47 631.352 1173.22 631.647 1172.28 632.237C1171.38 632.828 1170.93 633.661 1170.93 634.738C1170.93 635.536 1171.19 636.214 1171.71 636.769C1172.23 637.325 1173.1 637.742 1174.31 638.02L1177.91 638.905C1180.27 639.496 1182.04 640.381 1183.22 641.562C1184.4 642.708 1184.99 644.271 1184.99 646.25Z" fill="#32365C"/>
<path d="M1199.54 653.335C1197.11 653.335 1195.13 652.797 1193.6 651.72C1192.11 650.644 1191.36 648.855 1191.36 646.355V621.61C1191.53 621.541 1191.79 621.471 1192.14 621.402C1192.52 621.298 1192.92 621.245 1193.34 621.245C1194.8 621.245 1195.53 621.871 1195.53 623.121V629.112H1204.07C1204.18 629.285 1204.28 629.528 1204.38 629.841C1204.49 630.119 1204.54 630.431 1204.54 630.779C1204.54 631.959 1204.02 632.55 1202.98 632.55H1195.53V646.094C1195.53 647.483 1195.91 648.473 1196.67 649.063C1197.47 649.619 1198.58 649.897 1200.01 649.897C1200.6 649.897 1201.26 649.793 1201.99 649.584C1202.72 649.376 1203.32 649.133 1203.81 648.855C1204.02 649.063 1204.21 649.324 1204.38 649.637C1204.56 649.949 1204.64 650.314 1204.64 650.73C1204.64 651.495 1204.19 652.12 1203.29 652.606C1202.39 653.092 1201.14 653.335 1199.54 653.335Z" fill="#32365C"/>
<path d="M1219.59 649.949C1221.05 649.949 1222.25 649.81 1223.19 649.532C1224.16 649.22 1224.85 648.925 1225.27 648.647V641.093L1218.81 641.77C1217 641.944 1215.67 642.361 1214.8 643.021C1213.93 643.646 1213.5 644.583 1213.5 645.834C1213.5 647.153 1214 648.178 1215.01 648.907C1216.01 649.602 1217.54 649.949 1219.59 649.949ZM1219.54 627.913C1222.56 627.913 1224.96 628.591 1226.73 629.945C1228.5 631.3 1229.39 633.435 1229.39 636.353V648.699C1229.39 649.463 1229.23 650.053 1228.92 650.47C1228.64 650.852 1228.2 651.217 1227.61 651.564C1226.78 652.05 1225.67 652.467 1224.28 652.814C1222.93 653.196 1221.36 653.387 1219.59 653.387C1216.33 653.387 1213.79 652.745 1211.99 651.46C1210.21 650.175 1209.33 648.317 1209.33 645.886C1209.33 643.594 1210.08 641.875 1211.57 640.728C1213.06 639.548 1215.16 638.818 1217.87 638.541L1225.27 637.811V636.353C1225.27 634.616 1224.75 633.349 1223.71 632.55C1222.66 631.751 1221.26 631.352 1219.49 631.352C1218.03 631.352 1216.66 631.56 1215.37 631.977C1214.09 632.394 1212.94 632.862 1211.93 633.383C1211.66 633.14 1211.4 632.862 1211.15 632.55C1210.94 632.237 1210.84 631.89 1210.84 631.508C1210.84 631.022 1210.96 630.622 1211.2 630.31C1211.45 629.997 1211.83 629.702 1212.35 629.424C1213.29 628.938 1214.36 628.573 1215.58 628.33C1216.8 628.052 1218.12 627.913 1219.54 627.913Z" fill="#32365C"/>
<path d="M1241.58 652.554C1241.4 652.623 1241.14 652.693 1240.79 652.762C1240.45 652.866 1240.07 652.918 1239.65 652.918C1238.16 652.918 1237.41 652.293 1237.41 651.043V618.901C1237.58 618.832 1237.84 618.762 1238.19 618.693C1238.57 618.589 1238.95 618.537 1239.34 618.537C1240.83 618.537 1241.58 619.162 1241.58 620.412V652.554Z" fill="#32365C"/>
<path d="M1254.55 652.554C1254.38 652.623 1254.11 652.693 1253.77 652.762C1253.42 652.866 1253.04 652.918 1252.62 652.918C1251.13 652.918 1250.38 652.293 1250.38 651.043V618.901C1250.55 618.832 1250.82 618.762 1251.16 618.693C1251.54 618.589 1251.93 618.537 1252.31 618.537C1253.8 618.537 1254.55 619.162 1254.55 620.412V652.554Z" fill="#32365C"/>
<path d="M653.293 627.94C654.891 627.94 656.384 628.2 657.773 628.721C659.162 629.242 660.361 630.023 661.368 631.065C662.41 632.107 663.208 633.427 663.764 635.024C664.354 636.622 664.65 638.497 664.65 640.65C664.65 642.838 664.354 644.731 663.764 646.329C663.174 647.926 662.34 649.246 661.263 650.288C660.222 651.33 658.954 652.111 657.461 652.632C655.967 653.118 654.335 653.361 652.564 653.361C650.862 653.361 649.317 653.153 647.927 652.736C646.573 652.354 645.462 651.903 644.593 651.382C643.864 650.93 643.361 650.496 643.083 650.079C642.805 649.628 642.666 649.037 642.666 648.308V618.927C642.84 618.858 643.1 618.788 643.447 618.719C643.829 618.615 644.229 618.563 644.646 618.563C646.104 618.563 646.834 619.188 646.834 620.438V629.763C647.598 629.277 648.501 628.86 649.542 628.513C650.619 628.131 651.869 627.94 653.293 627.94ZM652.668 631.378C651.452 631.378 650.341 631.603 649.334 632.055C648.362 632.472 647.528 632.975 646.834 633.566V648.308C647.354 648.69 648.101 649.055 649.074 649.402C650.081 649.749 651.244 649.923 652.564 649.923C653.745 649.923 654.804 649.749 655.742 649.402C656.714 649.02 657.547 648.447 658.242 647.683C658.937 646.919 659.475 645.964 659.857 644.818C660.239 643.637 660.43 642.248 660.43 640.65C660.43 639.053 660.239 637.664 659.857 636.483C659.475 635.302 658.937 634.347 658.242 633.618C657.547 632.854 656.714 632.298 655.742 631.951C654.804 631.569 653.779 631.378 652.668 631.378Z" fill="#32365C"/>
<path d="M671.152 628.721C671.326 628.651 671.586 628.582 671.934 628.513C672.316 628.408 672.715 628.356 673.132 628.356C674.59 628.356 675.32 628.999 675.32 630.284V643.672C675.32 645.929 675.91 647.544 677.091 648.517C678.272 649.454 679.904 649.923 681.988 649.923C683.377 649.923 684.558 649.784 685.53 649.506C686.503 649.194 687.267 648.881 687.822 648.569V628.721C687.996 628.651 688.256 628.582 688.604 628.513C688.986 628.408 689.368 628.356 689.75 628.356C691.243 628.356 691.99 628.999 691.99 630.284V648.412C691.99 649.142 691.886 649.732 691.677 650.184C691.504 650.6 691.052 651.017 690.323 651.434C689.524 651.885 688.413 652.319 686.989 652.736C685.6 653.153 683.915 653.361 681.936 653.361C678.463 653.361 675.789 652.597 673.913 651.069C672.073 649.541 671.152 647.145 671.152 643.88V628.721Z" fill="#32365C"/>
<path d="M704.222 652.58C704.048 652.649 703.787 652.719 703.44 652.788C703.093 652.892 702.711 652.944 702.294 652.944C700.801 652.944 700.054 652.319 700.054 651.069V628.721C700.228 628.651 700.488 628.582 700.836 628.513C701.218 628.408 701.617 628.356 702.034 628.356C703.492 628.356 704.222 628.999 704.222 630.284V652.58ZM699.429 621.011C699.429 620.282 699.672 619.674 700.158 619.188C700.679 618.667 701.339 618.406 702.138 618.406C702.937 618.406 703.579 618.667 704.065 619.188C704.552 619.674 704.795 620.282 704.795 621.011C704.795 621.74 704.552 622.365 704.065 622.886C703.579 623.373 702.937 623.616 702.138 623.616C701.339 623.616 700.679 623.373 700.158 622.886C699.672 622.365 699.429 621.74 699.429 621.011Z" fill="#32365C"/>
<path d="M717.045 652.58C716.872 652.649 716.611 652.719 716.264 652.788C715.916 652.892 715.534 652.944 715.118 652.944C713.624 652.944 712.878 652.319 712.878 651.069V618.927C713.051 618.858 713.312 618.788 713.659 618.719C714.041 618.615 714.423 618.563 714.805 618.563C716.299 618.563 717.045 619.188 717.045 620.438V652.58Z" fill="#32365C"/>
<path d="M745.858 648.725C745.858 649.419 745.702 649.958 745.389 650.34C745.111 650.722 744.66 651.104 744.035 651.486C743.34 651.937 742.35 652.354 741.065 652.736C739.78 653.153 738.304 653.361 736.637 653.361C734.762 653.361 733.043 653.118 731.48 652.632C729.917 652.146 728.563 651.399 727.417 650.392C726.305 649.35 725.437 648.048 724.812 646.485C724.222 644.887 723.926 642.977 723.926 640.755C723.926 638.497 724.239 636.57 724.864 634.972C725.489 633.34 726.323 632.003 727.365 630.961C728.441 629.919 729.691 629.155 731.115 628.669C732.574 628.183 734.119 627.94 735.752 627.94C736.863 627.94 737.94 628.078 738.981 628.356C740.023 628.634 740.926 628.981 741.69 629.398V618.927C741.864 618.858 742.124 618.788 742.472 618.719C742.854 618.615 743.236 618.563 743.618 618.563C745.111 618.563 745.858 619.188 745.858 620.438V648.725ZM741.69 633.149C740.996 632.663 740.197 632.246 739.294 631.899C738.391 631.551 737.349 631.378 736.168 631.378C735.092 631.378 734.067 631.551 733.095 631.899C732.157 632.211 731.324 632.749 730.594 633.514C729.865 634.243 729.275 635.215 728.823 636.431C728.406 637.646 728.198 639.122 728.198 640.859C728.198 644.054 728.962 646.363 730.49 647.787C732.018 649.211 734.05 649.923 736.585 649.923C737.801 649.923 738.79 649.801 739.555 649.558C740.353 649.281 741.065 648.951 741.69 648.569V633.149Z" fill="#32365C"/>
<path d="M593.734 648.285C593.698 648.562 593.914 648.807 594.194 648.807H617.698L620.592 626.246H596.561L593.734 648.285Z" fill="#4D41B1"/>
<path d="M773.033 648.285C772.998 648.562 773.214 648.807 773.493 648.807H796.998L799.891 626.246H775.86L773.033 648.285Z" fill="#4D41B1"/>
<path d="M918.411 648.285C918.375 648.562 918.591 648.807 918.87 648.807H942.375L945.269 626.246H921.237L918.411 648.285Z" fill="#4D41B1"/>
<path d="M1077.11 648.285C1077.08 648.562 1077.3 648.807 1077.57 648.807H1101.08L1103.97 626.246H1079.94L1077.11 648.285Z" fill="#4D41B1"/>
<path d="M1281.85 648.285C1281.82 648.562 1282.03 648.807 1282.31 648.807H1305.82L1308.71 626.246H1284.68L1281.85 648.285Z" fill="#4D41B1"/>
<path d="M440.704 629.97C439.524 629.97 438.43 630.179 437.422 630.595C436.415 630.977 435.547 631.568 434.818 632.366C434.088 633.131 433.515 634.103 433.099 635.284C432.682 636.43 432.474 637.749 432.474 639.243C432.474 642.23 433.22 644.522 434.714 646.119C436.207 647.682 438.204 648.463 440.704 648.463C442.163 648.463 443.379 648.272 444.351 647.89C445.323 647.474 446.192 647.005 446.956 646.484C447.338 646.692 447.65 646.953 447.893 647.265C448.136 647.578 448.258 647.96 448.258 648.411C448.258 648.898 448.067 649.349 447.685 649.766C447.303 650.182 446.765 650.547 446.07 650.86C445.41 651.172 444.611 651.415 443.674 651.589C442.771 651.797 441.781 651.902 440.704 651.902C438.898 651.902 437.231 651.641 435.703 651.12C434.175 650.599 432.856 649.818 431.744 648.776C430.633 647.734 429.765 646.432 429.14 644.869C428.514 643.271 428.202 641.396 428.202 639.243C428.202 637.124 428.532 635.284 429.192 633.721C429.852 632.123 430.737 630.786 431.848 629.71C432.96 628.633 434.262 627.834 435.756 627.313C437.284 626.758 438.898 626.48 440.6 626.48C441.677 626.48 442.667 626.584 443.57 626.792C444.507 626.966 445.306 627.227 445.966 627.574C446.626 627.921 447.129 628.321 447.477 628.772C447.859 629.189 448.05 629.623 448.05 630.074C448.05 630.491 447.928 630.856 447.685 631.168C447.442 631.481 447.129 631.724 446.747 631.898C445.983 631.377 445.15 630.925 444.247 630.543C443.344 630.161 442.163 629.97 440.704 629.97Z" fill="#32365C"/>
<path d="M458.601 651.12C458.427 651.19 458.166 651.259 457.819 651.329C457.472 651.433 457.09 651.485 456.673 651.485C455.18 651.485 454.433 650.86 454.433 649.609V631.95C454.433 631.151 454.572 630.526 454.85 630.074C455.162 629.588 455.666 629.119 456.361 628.668C457.264 628.077 458.479 627.574 460.007 627.157C461.57 626.706 463.324 626.48 465.269 626.48C468.047 626.48 469.436 627.174 469.436 628.564C469.436 628.911 469.384 629.241 469.28 629.553C469.176 629.831 469.037 630.074 468.863 630.283C468.516 630.213 468.064 630.144 467.509 630.074C466.953 630.005 466.397 629.97 465.842 629.97C464.244 629.97 462.838 630.144 461.622 630.491C460.407 630.804 459.399 631.186 458.601 631.637V651.12Z" fill="#32365C"/>
<path d="M476.785 641.639C477.723 646.189 480.709 648.463 485.745 648.463C487.204 648.463 488.523 648.22 489.704 647.734C490.885 647.248 491.823 646.727 492.517 646.171C493.351 646.657 493.767 647.317 493.767 648.151C493.767 648.637 493.542 649.106 493.09 649.557C492.674 650.009 492.083 650.408 491.319 650.756C490.59 651.103 489.722 651.381 488.714 651.589C487.742 651.797 486.683 651.902 485.537 651.902C481.508 651.902 478.313 650.808 475.951 648.62C473.625 646.432 472.461 643.237 472.461 639.034C472.461 637.055 472.739 635.301 473.295 633.773C473.885 632.21 474.684 630.89 475.691 629.814C476.733 628.737 477.966 627.921 479.39 627.365C480.814 626.775 482.359 626.48 484.026 626.48C485.589 626.48 487.03 626.74 488.35 627.261C489.669 627.782 490.798 628.529 491.736 629.501C492.708 630.439 493.455 631.568 493.976 632.887C494.532 634.172 494.809 635.596 494.809 637.159C494.809 637.923 494.636 638.479 494.288 638.826C493.941 639.139 493.455 639.33 492.83 639.399L476.785 641.639ZM483.974 629.866C481.855 629.866 480.102 630.613 478.712 632.106C477.323 633.565 476.594 635.666 476.524 638.409L490.85 636.43C490.677 634.52 489.999 632.957 488.819 631.741C487.673 630.491 486.058 629.866 483.974 629.866Z" fill="#32365C"/>
<path d="M509.424 648.515C510.883 648.515 512.081 648.377 513.019 648.099C513.991 647.786 514.686 647.491 515.103 647.213V639.66L508.643 640.337C506.837 640.51 505.5 640.927 504.632 641.587C503.764 642.212 503.33 643.15 503.33 644.4C503.33 645.72 503.833 646.744 504.84 647.474C505.847 648.168 507.375 648.515 509.424 648.515ZM509.372 626.48C512.394 626.48 514.79 627.157 516.561 628.512C518.332 629.866 519.218 632.002 519.218 634.919V647.265C519.218 648.029 519.062 648.62 518.749 649.036C518.471 649.418 518.037 649.783 517.447 650.13C516.613 650.617 515.502 651.033 514.113 651.381C512.758 651.763 511.196 651.954 509.424 651.954C506.16 651.954 503.625 651.311 501.819 650.026C500.048 648.741 499.162 646.883 499.162 644.452C499.162 642.16 499.909 640.441 501.402 639.295C502.895 638.114 504.997 637.385 507.705 637.107L515.103 636.378V634.919C515.103 633.183 514.582 631.915 513.54 631.116C512.498 630.317 511.091 629.918 509.32 629.918C507.862 629.918 506.49 630.126 505.205 630.543C503.92 630.96 502.774 631.429 501.767 631.95C501.489 631.707 501.228 631.429 500.985 631.116C500.777 630.804 500.673 630.456 500.673 630.074C500.673 629.588 500.794 629.189 501.037 628.876C501.28 628.564 501.662 628.268 502.183 627.991C503.121 627.504 504.198 627.14 505.413 626.897C506.629 626.619 507.948 626.48 509.372 626.48Z" fill="#32365C"/>
<path d="M535.056 651.902C532.625 651.902 530.645 651.363 529.117 650.287C527.624 649.21 526.877 647.422 526.877 644.921V620.177C527.051 620.107 527.311 620.038 527.658 619.968C528.041 619.864 528.44 619.812 528.857 619.812C530.315 619.812 531.045 620.437 531.045 621.687V627.678H539.588C539.692 627.852 539.796 628.095 539.9 628.407C540.005 628.685 540.057 628.998 540.057 629.345C540.057 630.526 539.536 631.116 538.494 631.116H531.045V644.661C531.045 646.05 531.427 647.04 532.191 647.63C532.989 648.186 534.101 648.463 535.525 648.463C536.115 648.463 536.775 648.359 537.504 648.151C538.233 647.942 538.841 647.699 539.327 647.422C539.536 647.63 539.727 647.89 539.9 648.203C540.074 648.515 540.161 648.88 540.161 649.297C540.161 650.061 539.71 650.686 538.807 651.172C537.904 651.658 536.653 651.902 535.056 651.902Z" fill="#32365C"/>
<path d="M548.414 641.639C549.352 646.189 552.338 648.463 557.374 648.463C558.833 648.463 560.152 648.22 561.333 647.734C562.514 647.248 563.451 646.727 564.146 646.171C564.98 646.657 565.396 647.317 565.396 648.151C565.396 648.637 565.171 649.106 564.719 649.557C564.302 650.009 563.712 650.408 562.948 650.756C562.219 651.103 561.35 651.381 560.343 651.589C559.371 651.797 558.312 651.902 557.166 651.902C553.137 651.902 549.942 650.808 547.58 648.62C545.253 646.432 544.09 643.237 544.09 639.034C544.09 637.055 544.368 635.301 544.923 633.773C545.514 632.21 546.313 630.89 547.32 629.814C548.362 628.737 549.594 627.921 551.018 627.365C552.442 626.775 553.988 626.48 555.655 626.48C557.218 626.48 558.659 626.74 559.978 627.261C561.298 627.782 562.427 628.529 563.365 629.501C564.337 630.439 565.084 631.568 565.605 632.887C566.16 634.172 566.438 635.596 566.438 637.159C566.438 637.923 566.265 638.479 565.917 638.826C565.57 639.139 565.084 639.33 564.459 639.399L548.414 641.639ZM555.603 629.866C553.484 629.866 551.73 630.613 550.341 632.106C548.952 633.565 548.223 635.666 548.153 638.409L562.479 636.43C562.305 634.52 561.628 632.957 560.447 631.741C559.301 630.491 557.686 629.866 555.603 629.866Z" fill="#32365C"/>
<path d="M1330.78 624.11C1330.95 624.041 1331.21 623.971 1331.56 623.902C1331.94 623.798 1332.34 623.746 1332.76 623.746C1334.22 623.746 1334.94 624.388 1334.94 625.673V639.061C1334.94 641.319 1335.54 642.933 1336.72 643.906C1337.9 644.844 1339.53 645.312 1341.61 645.312C1343 645.312 1344.18 645.173 1345.16 644.896C1346.13 644.583 1346.89 644.271 1347.45 643.958V624.11C1347.62 624.041 1347.88 623.971 1348.23 623.902C1348.61 623.798 1348.99 623.746 1349.37 623.746C1350.87 623.746 1351.61 624.388 1351.61 625.673V643.802C1351.61 644.531 1351.51 645.121 1351.3 645.573C1351.13 645.99 1350.68 646.406 1349.95 646.823C1349.15 647.275 1348.04 647.709 1346.61 648.125C1345.22 648.542 1343.54 648.751 1341.56 648.751C1338.09 648.751 1335.41 647.987 1333.54 646.458C1331.7 644.93 1330.78 642.534 1330.78 639.27V624.11Z" fill="#32365C"/>
<path d="M1369.68 648.751C1368.47 648.751 1367.32 648.612 1366.24 648.334C1365.17 648.056 1364.28 647.726 1363.59 647.344V657.45C1363.41 657.52 1363.15 657.589 1362.8 657.659C1362.46 657.763 1362.08 657.815 1361.66 657.815C1360.17 657.815 1359.42 657.172 1359.42 655.887V628.382C1359.42 627.687 1359.54 627.132 1359.78 626.715C1360.03 626.298 1360.53 625.864 1361.29 625.413C1362.23 624.892 1363.34 624.423 1364.63 624.006C1365.95 623.555 1367.44 623.329 1369.11 623.329C1370.81 623.329 1372.41 623.572 1373.9 624.058C1375.43 624.544 1376.73 625.308 1377.81 626.35C1378.92 627.357 1379.79 628.66 1380.41 630.257C1381.07 631.855 1381.4 633.765 1381.4 635.988C1381.4 638.141 1381.11 640.016 1380.52 641.614C1379.96 643.211 1379.16 644.548 1378.12 645.625C1377.08 646.667 1375.83 647.448 1374.37 647.969C1372.95 648.49 1371.38 648.751 1369.68 648.751ZM1369.11 645.312C1371.54 645.312 1373.48 644.583 1374.94 643.124C1376.44 641.631 1377.18 639.252 1377.18 635.988C1377.18 634.286 1376.96 632.845 1376.51 631.664C1376.09 630.483 1375.5 629.528 1374.73 628.799C1374 628.069 1373.15 627.548 1372.18 627.236C1371.21 626.923 1370.18 626.767 1369.11 626.767C1367.86 626.767 1366.8 626.923 1365.93 627.236C1365.06 627.548 1364.28 627.896 1363.59 628.278V643.645C1364.25 644.132 1365.03 644.531 1365.93 644.844C1366.83 645.156 1367.89 645.312 1369.11 645.312Z" fill="#32365C"/>
<path d="M1408.43 644.114C1408.43 644.809 1408.28 645.347 1407.96 645.729C1407.69 646.111 1407.24 646.493 1406.61 646.875C1405.92 647.327 1404.93 647.743 1403.64 648.125C1402.36 648.542 1400.88 648.751 1399.21 648.751C1397.34 648.751 1395.62 648.507 1394.06 648.021C1392.49 647.535 1391.14 646.788 1389.99 645.781C1388.88 644.739 1388.01 643.437 1387.39 641.874C1386.8 640.277 1386.5 638.367 1386.5 636.144C1386.5 633.887 1386.81 631.959 1387.44 630.362C1388.06 628.729 1388.9 627.392 1389.94 626.35C1391.02 625.308 1392.27 624.544 1393.69 624.058C1395.15 623.572 1396.7 623.329 1398.33 623.329C1399.44 623.329 1400.52 623.468 1401.56 623.746C1402.6 624.023 1403.5 624.371 1404.27 624.788V614.317C1404.44 614.247 1404.7 614.178 1405.05 614.108C1405.43 614.004 1405.81 613.952 1406.19 613.952C1407.69 613.952 1408.43 614.577 1408.43 615.827V644.114ZM1404.27 628.538C1403.57 628.052 1402.77 627.635 1401.87 627.288C1400.97 626.941 1399.92 626.767 1398.74 626.767C1397.67 626.767 1396.64 626.941 1395.67 627.288C1394.73 627.601 1393.9 628.139 1393.17 628.903C1392.44 629.632 1391.85 630.605 1391.4 631.82C1390.98 633.036 1390.77 634.512 1390.77 636.248C1390.77 639.443 1391.54 641.753 1393.07 643.177C1394.59 644.6 1396.63 645.312 1399.16 645.312C1400.38 645.312 1401.37 645.191 1402.13 644.948C1402.93 644.67 1403.64 644.34 1404.27 643.958V628.538Z" fill="#32365C"/>
<path d="M1424.94 645.365C1426.4 645.365 1427.6 645.226 1428.54 644.948C1429.51 644.635 1430.2 644.34 1430.62 644.062V636.509L1424.16 637.186C1422.35 637.359 1421.02 637.776 1420.15 638.436C1419.28 639.061 1418.85 639.999 1418.85 641.249C1418.85 642.569 1419.35 643.593 1420.36 644.323C1421.36 645.017 1422.89 645.365 1424.94 645.365ZM1424.89 623.329C1427.91 623.329 1430.31 624.006 1432.08 625.361C1433.85 626.715 1434.73 628.851 1434.73 631.768V644.114C1434.73 644.878 1434.58 645.469 1434.27 645.885C1433.99 646.267 1433.55 646.632 1432.96 646.979C1432.13 647.466 1431.02 647.882 1429.63 648.23C1428.27 648.612 1426.71 648.803 1424.94 648.803C1421.68 648.803 1419.14 648.16 1417.34 646.875C1415.56 645.59 1414.68 643.732 1414.68 641.301C1414.68 639.009 1415.42 637.29 1416.92 636.144C1418.41 634.963 1420.51 634.234 1423.22 633.956L1430.62 633.227V631.768C1430.62 630.032 1430.1 628.764 1429.06 627.965C1428.01 627.166 1426.61 626.767 1424.84 626.767C1423.38 626.767 1422.01 626.975 1420.72 627.392C1419.44 627.809 1418.29 628.278 1417.28 628.799C1417.01 628.556 1416.74 628.278 1416.5 627.965C1416.29 627.653 1416.19 627.305 1416.19 626.923C1416.19 626.437 1416.31 626.038 1416.55 625.725C1416.8 625.413 1417.18 625.117 1417.7 624.84C1418.64 624.353 1419.71 623.989 1420.93 623.746C1422.15 623.468 1423.46 623.329 1424.89 623.329Z" fill="#32365C"/>
<path d="M1450.57 648.751C1448.14 648.751 1446.16 648.212 1444.63 647.136C1443.14 646.059 1442.39 644.271 1442.39 641.77V617.026C1442.57 616.956 1442.83 616.887 1443.17 616.817C1443.56 616.713 1443.96 616.661 1444.37 616.661C1445.83 616.661 1446.56 617.286 1446.56 618.536V624.527H1455.1C1455.21 624.701 1455.31 624.944 1455.42 625.256C1455.52 625.534 1455.57 625.847 1455.57 626.194C1455.57 627.375 1455.05 627.965 1454.01 627.965H1446.56V641.51C1446.56 642.899 1446.94 643.889 1447.71 644.479C1448.51 645.035 1449.62 645.312 1451.04 645.312C1451.63 645.312 1452.29 645.208 1453.02 645C1453.75 644.791 1454.36 644.548 1454.84 644.271C1455.05 644.479 1455.24 644.739 1455.42 645.052C1455.59 645.365 1455.68 645.729 1455.68 646.146C1455.68 646.91 1455.23 647.535 1454.32 648.021C1453.42 648.507 1452.17 648.751 1450.57 648.751Z" fill="#32365C"/>
<path d="M1463.93 638.488C1464.87 643.038 1467.85 645.312 1472.89 645.312C1474.35 645.312 1475.67 645.069 1476.85 644.583C1478.03 644.097 1478.97 643.576 1479.66 643.02C1480.5 643.506 1480.91 644.166 1480.91 645C1480.91 645.486 1480.69 645.955 1480.24 646.406C1479.82 646.858 1479.23 647.257 1478.46 647.605C1477.73 647.952 1476.87 648.23 1475.86 648.438C1474.89 648.646 1473.83 648.751 1472.68 648.751C1468.65 648.751 1465.46 647.657 1463.1 645.469C1460.77 643.281 1459.61 640.086 1459.61 635.883C1459.61 633.904 1459.88 632.15 1460.44 630.622C1461.03 629.059 1461.83 627.739 1462.84 626.663C1463.88 625.586 1465.11 624.77 1466.53 624.214C1467.96 623.624 1469.5 623.329 1471.17 623.329C1472.73 623.329 1474.18 623.589 1475.49 624.11C1476.81 624.631 1477.94 625.378 1478.88 626.35C1479.85 627.288 1480.6 628.417 1481.12 629.736C1481.68 631.021 1481.95 632.445 1481.95 634.008C1481.95 634.772 1481.78 635.328 1481.43 635.675C1481.09 635.988 1480.6 636.179 1479.97 636.248L1463.93 638.488ZM1471.12 626.715C1469 626.715 1467.25 627.462 1465.86 628.955C1464.47 630.414 1463.74 632.515 1463.67 635.258L1478 633.279C1477.82 631.369 1477.14 629.806 1475.96 628.59C1474.82 627.34 1473.2 626.715 1471.12 626.715Z" fill="#32365C"/>
<path d="M1240.83 546.472V552.258H1217.79V546.472H1225V524.093C1225 521.11 1224.27 518.781 1222.81 517.107C1221.36 515.433 1219.36 514.596 1216.81 514.596C1212.37 514.596 1207.71 516.234 1202.84 519.509C1203.05 520.6 1203.16 521.692 1203.16 522.783V546.472H1211.02V552.258H1187.99V546.472H1195.19V524.093C1195.19 521.11 1194.47 518.781 1193.01 517.107C1191.56 515.433 1189.55 514.596 1187.01 514.596C1183.3 514.596 1178.89 516.052 1173.8 518.963V546.472H1181.55V552.258H1157.53V546.472H1165.83V515.142H1157.53V509.356H1173.8V513.505C1179.33 510.011 1184.42 508.265 1189.08 508.265C1191.92 508.265 1194.39 508.883 1196.5 510.12C1198.62 511.285 1200.22 512.922 1201.31 515.033C1204.51 512.85 1207.49 511.176 1210.26 510.011C1213.02 508.847 1215.9 508.265 1218.88 508.265C1222.96 508.265 1226.31 509.538 1228.93 512.085C1231.62 514.56 1232.97 518.053 1232.97 522.565V546.472H1240.83Z" fill="#32365C"/>
<path d="M1289.2 546.472V552.258H1275.33L1274.9 548.437C1272.57 550.184 1270.24 551.457 1267.91 552.258C1265.58 553.058 1262.96 553.458 1260.05 553.458C1255.68 553.458 1252.12 552.258 1249.35 549.856C1246.66 547.382 1245.31 544.325 1245.31 540.686C1245.31 536.029 1246.88 532.645 1250.01 530.534C1253.21 528.351 1257.39 527.259 1262.56 527.259C1266.27 527.259 1270.24 527.732 1274.46 528.678V524.203C1274.46 520.928 1273.55 518.453 1271.73 516.779C1269.98 515.106 1267.51 514.269 1264.31 514.269C1262.2 514.269 1259.76 514.633 1256.99 515.36C1254.3 516.015 1251.83 516.961 1249.57 518.199L1247.17 512.959C1249.57 511.43 1252.34 510.266 1255.47 509.465C1258.67 508.665 1261.65 508.265 1264.42 508.265C1270.02 508.265 1274.42 509.647 1277.63 512.413C1280.83 515.106 1282.43 518.781 1282.43 523.438V546.472H1289.2ZM1252.95 540.25C1252.95 542.506 1253.68 544.361 1255.14 545.817C1256.67 547.2 1258.7 547.891 1261.25 547.891C1265.54 547.891 1269.95 546.326 1274.46 543.197V533.372C1270.6 532.499 1266.82 532.062 1263.11 532.062C1260.2 532.062 1257.76 532.717 1255.79 534.027C1253.9 535.264 1252.95 537.339 1252.95 540.25Z" fill="#32365C"/>
<path d="M1347.06 546.472V552.258H1324.03V546.472H1331.12V524.093C1331.12 521.11 1330.39 518.781 1328.94 517.107C1327.48 515.433 1325.48 514.596 1322.93 514.596C1320.82 514.596 1318.68 514.996 1316.49 515.797C1314.38 516.525 1312.05 517.653 1309.51 519.181V546.472H1317.26V552.258H1293.24V546.472H1301.54V515.142H1293.24V509.356H1309.51V513.614C1315.18 510.048 1320.35 508.265 1325.01 508.265C1329.08 508.265 1332.43 509.538 1335.05 512.085C1337.74 514.56 1339.09 518.053 1339.09 522.565V546.472H1347.06Z" fill="#32365C"/>
<path d="M1395.38 546.472V552.258H1381.51L1381.08 548.437C1378.75 550.184 1376.42 551.457 1374.09 552.258C1371.76 553.058 1369.14 553.458 1366.23 553.458C1361.86 553.458 1358.3 552.258 1355.53 549.856C1352.84 547.382 1351.49 544.325 1351.49 540.686C1351.49 536.029 1353.06 532.645 1356.19 530.534C1359.39 528.351 1363.57 527.259 1368.74 527.259C1372.45 527.259 1376.42 527.732 1380.64 528.678V524.203C1380.64 520.928 1379.73 518.453 1377.91 516.779C1376.16 515.106 1373.69 514.269 1370.49 514.269C1368.38 514.269 1365.94 514.633 1363.17 515.36C1360.48 516.015 1358.01 516.961 1355.75 518.199L1353.35 512.959C1355.75 511.43 1358.51 510.266 1361.64 509.465C1364.85 508.665 1367.83 508.265 1370.6 508.265C1376.2 508.265 1380.6 509.647 1383.8 512.413C1387.01 515.106 1388.61 518.781 1388.61 523.438V546.472H1395.38ZM1359.13 540.25C1359.13 542.506 1359.86 544.361 1361.32 545.817C1362.84 547.2 1364.88 547.891 1367.43 547.891C1371.72 547.891 1376.13 546.326 1380.64 543.197V533.372C1376.78 532.499 1373 532.062 1369.29 532.062C1366.37 532.062 1363.94 532.717 1361.97 534.027C1360.08 535.264 1359.13 537.339 1359.13 540.25Z" fill="#32365C"/>
<path d="M1444.72 509.356V515.142V553.24C1444.72 559.863 1442.72 564.775 1438.72 567.977C1434.72 571.179 1429.37 572.78 1422.67 572.78C1417.58 572.78 1412.19 571.907 1406.52 570.161L1408.15 563.829C1413.68 565.503 1418.45 566.34 1422.45 566.34C1426.97 566.34 1430.46 565.285 1432.93 563.174C1435.41 561.136 1436.65 558.007 1436.65 553.786V547.891C1434.61 549.419 1432.32 550.584 1429.77 551.384C1427.29 552.185 1424.82 552.585 1422.35 552.585C1418.27 552.585 1414.56 551.712 1411.21 549.965C1407.86 548.146 1405.21 545.562 1403.24 542.215C1401.35 538.867 1400.4 534.937 1400.4 530.425C1400.4 525.767 1401.35 521.801 1403.24 518.526C1405.13 515.178 1407.72 512.668 1410.99 510.994C1414.34 509.247 1418.05 508.374 1422.13 508.374C1424.6 508.374 1427.15 508.81 1429.77 509.684C1432.39 510.484 1434.64 511.649 1436.54 513.177V509.356H1444.72ZM1408.81 530.971C1408.81 535.847 1410.23 539.667 1413.07 542.433C1415.9 545.198 1419.54 546.581 1423.98 546.581C1426.09 546.581 1428.24 546.217 1430.42 545.49C1432.68 544.762 1434.75 543.707 1436.65 542.324L1436.54 518.744C1434.43 517.362 1432.17 516.27 1429.77 515.469C1427.44 514.669 1425.22 514.269 1423.11 514.269C1418.82 514.269 1415.36 515.761 1412.74 518.744C1410.12 521.655 1408.81 525.731 1408.81 530.971Z" fill="#32365C"/>
<path d="M1498.95 532.499H1481.27H1463.59C1464.1 537.084 1465.73 540.723 1468.5 543.415C1471.26 546.035 1474.79 547.345 1479.09 547.345C1485.05 547.345 1490.48 545.053 1495.35 540.468L1498.19 545.38C1496.08 547.855 1493.42 549.856 1490.22 551.384C1487.02 552.84 1483.42 553.568 1479.41 553.568C1474.9 553.568 1470.79 552.622 1467.08 550.729C1463.37 548.837 1460.46 546.181 1458.35 542.76C1456.24 539.267 1455.18 535.301 1455.18 530.862C1455.18 526.349 1456.16 522.383 1458.13 518.963C1460.17 515.469 1462.89 512.813 1466.31 510.994C1469.81 509.102 1473.67 508.155 1477.89 508.155C1484.44 508.155 1489.57 510.157 1493.28 514.159C1497.06 518.162 1498.95 523.584 1498.95 530.425V532.499ZM1490.99 527.477C1490.99 523.329 1489.75 520.054 1487.27 517.653C1484.87 515.251 1481.74 514.05 1477.89 514.05C1474.1 514.05 1470.9 515.251 1468.28 517.653C1465.66 520.054 1464.1 523.329 1463.59 527.477H1490.99Z" fill="#32365C"/>
<path d="M1533.88 508.81C1536.65 508.81 1539.56 509.538 1542.61 510.994L1540.65 518.308C1538.17 516.707 1535.66 515.906 1533.12 515.906C1530.21 515.906 1527.77 517.107 1525.8 519.509C1523.91 521.837 1522.96 525.076 1522.96 529.224L1522.85 546.472H1530.5V552.258H1506.59V546.472H1514.89V515.142H1506.59V509.356H1522.85V517.216C1525.18 511.612 1528.86 508.81 1533.88 508.81Z" fill="#32365C"/>
<path d="M776.805 508.265C780.735 508.265 784.264 509.138 787.394 510.885C790.596 512.558 793.107 515.069 794.926 518.417C796.745 521.692 797.655 525.622 797.655 530.207C797.655 534.937 796.636 539.049 794.598 542.542C792.634 546.035 789.941 548.728 786.52 550.62C783.173 552.44 779.497 553.349 775.495 553.349C772.948 553.349 770.51 552.949 768.181 552.149C765.925 551.348 764.069 550.293 762.613 548.983L762.504 563.502H770.91V569.287H746.785V563.502H754.535V515.142H747.003V509.356H762.068L762.177 513.395C764.287 511.722 766.58 510.448 769.054 509.575C771.601 508.701 774.185 508.265 776.805 508.265ZM774.076 547.345C778.588 547.345 782.227 545.926 784.992 543.088C787.83 540.177 789.249 536.101 789.249 530.862C789.249 525.767 787.867 521.765 785.101 518.854C782.408 515.943 778.915 514.487 774.621 514.487C772.875 514.487 770.837 514.851 768.508 515.579C766.252 516.306 764.251 517.398 762.504 518.854L762.613 543.197C764.287 544.507 766.107 545.526 768.072 546.254C770.109 546.981 772.111 547.345 774.076 547.345Z" fill="#32365C"/>
<path d="M848.713 546.472V552.258H834.849L834.413 548.437C832.084 550.184 829.755 551.457 827.426 552.258C825.097 553.058 822.477 553.459 819.566 553.459C815.2 553.459 811.634 552.258 808.868 549.856C806.175 547.382 804.829 544.325 804.829 540.686C804.829 536.029 806.394 532.645 809.523 530.534C812.725 528.351 816.91 527.259 822.077 527.259C825.789 527.259 829.755 527.732 833.976 528.678V524.203C833.976 520.928 833.066 518.453 831.247 516.779C829.5 515.106 827.026 514.269 823.824 514.269C821.713 514.269 819.275 514.633 816.51 515.36C813.817 516.015 811.343 516.961 809.087 518.199L806.685 512.959C809.087 511.43 811.852 510.266 814.981 509.465C818.184 508.665 821.167 508.265 823.933 508.265C829.537 508.265 833.94 509.647 837.142 512.413C840.344 515.106 841.945 518.781 841.945 523.438V546.472H848.713ZM812.471 540.25C812.471 542.506 813.198 544.362 814.654 545.817C816.182 547.2 818.22 547.891 820.767 547.891C825.061 547.891 829.464 546.326 833.976 543.197V533.372C830.119 532.499 826.334 532.062 822.623 532.062C819.712 532.062 817.274 532.717 815.309 534.027C813.417 535.265 812.471 537.339 812.471 540.25Z" fill="#32365C"/>
<path d="M877.538 514.487C872.881 514.487 869.06 515.979 866.076 518.963C863.092 521.947 861.6 525.731 861.6 530.316C861.6 535.265 863.056 539.304 865.967 542.433C868.878 545.49 872.662 547.018 877.32 547.018C880.813 547.018 883.761 546.363 886.162 545.053C888.564 543.67 890.893 541.705 893.149 539.158L896.533 544.07C894.277 546.981 891.475 549.274 888.127 550.948C884.779 552.549 880.922 553.349 876.556 553.349C872.044 553.349 868.005 552.367 864.439 550.402C860.945 548.437 858.18 545.744 856.142 542.324C854.177 538.831 853.195 534.901 853.195 530.534C853.195 526.168 854.141 522.31 856.033 518.963C857.998 515.542 860.691 512.886 864.111 510.994C867.532 509.102 871.389 508.156 875.682 508.156C878.885 508.156 881.723 508.738 884.197 509.902C886.672 511.067 888.564 512.631 889.874 514.596V509.138H896.642V524.53H890.529C889.874 521.401 888.382 518.963 886.053 517.216C883.724 515.397 880.886 514.487 877.538 514.487Z" fill="#32365C"/>
<path d="M1002.86 546.472V552.258H989L988.564 548.437C986.235 550.184 983.906 551.457 981.577 552.258C979.248 553.058 976.628 553.459 973.717 553.459C969.351 553.459 965.785 552.258 963.019 549.856C960.327 547.382 958.98 544.325 958.98 540.686C958.98 536.029 960.545 532.645 963.674 530.534C966.877 528.351 971.061 527.259 976.228 527.259C979.94 527.259 983.906 527.732 988.127 528.678V524.203C988.127 520.928 987.217 518.453 985.398 516.779C983.651 515.106 981.177 514.269 977.975 514.269C975.864 514.269 973.426 514.633 970.661 515.36C967.968 516.015 965.494 516.961 963.238 518.199L960.836 512.959C963.238 511.43 966.003 510.266 969.133 509.465C972.335 508.665 975.319 508.265 978.084 508.265C983.688 508.265 988.091 509.647 991.293 512.413C994.495 515.106 996.096 518.781 996.096 523.438V546.472H1002.86ZM966.622 540.25C966.622 542.506 967.35 544.362 968.805 545.817C970.333 547.2 972.371 547.891 974.918 547.891C979.212 547.891 983.615 546.326 988.127 543.197V533.372C984.27 532.499 980.486 532.062 976.774 532.062C973.863 532.062 971.425 532.717 969.46 534.027C967.568 535.265 966.622 537.339 966.622 540.25Z" fill="#32365C"/>
<path d="M1052.21 509.356V515.142V553.24C1052.21 559.863 1050.21 564.775 1046.21 567.977C1042.21 571.179 1036.86 572.781 1030.16 572.781C1025.07 572.781 1019.68 571.907 1014 570.161L1015.64 563.829C1021.17 565.503 1025.94 566.34 1029.94 566.34C1034.45 566.34 1037.95 565.285 1040.42 563.174C1042.9 561.136 1044.13 558.007 1044.13 553.786V547.891C1042.1 549.419 1039.8 550.584 1037.26 551.384C1034.78 552.185 1032.31 552.585 1029.83 552.585C1025.76 552.585 1022.05 551.712 1018.7 549.965C1015.35 548.146 1012.69 545.562 1010.73 542.215C1008.84 538.867 1007.89 534.937 1007.89 530.425C1007.89 525.767 1008.84 521.801 1010.73 518.526C1012.62 515.178 1015.21 512.668 1018.48 510.994C1021.83 509.247 1025.54 508.374 1029.62 508.374C1032.09 508.374 1034.64 508.81 1037.26 509.684C1039.88 510.484 1042.13 511.649 1044.02 513.177V509.356H1052.21ZM1016.3 530.971C1016.3 535.847 1017.72 539.667 1020.55 542.433C1023.39 545.198 1027.03 546.581 1031.47 546.581C1033.58 546.581 1035.73 546.217 1037.91 545.49C1040.17 544.762 1042.24 543.707 1044.13 542.324L1044.02 518.744C1041.91 517.362 1039.66 516.27 1037.26 515.469C1034.93 514.669 1032.71 514.269 1030.6 514.269C1026.3 514.269 1022.85 515.761 1020.23 518.744C1017.61 521.655 1016.3 525.731 1016.3 530.971Z" fill="#32365C"/>
<path d="M1106.43 532.499H1071.07C1071.57 537.084 1073.21 540.723 1075.98 543.415C1078.74 546.035 1082.27 547.345 1086.57 547.345C1092.53 547.345 1097.96 545.053 1102.83 540.468L1105.67 545.38C1103.56 547.855 1100.9 549.856 1097.7 551.384C1094.5 552.84 1090.9 553.568 1086.89 553.568C1082.38 553.568 1078.27 552.622 1074.56 550.729C1070.85 548.837 1067.94 546.181 1065.83 542.76C1063.71 539.267 1062.66 535.301 1062.66 530.862C1062.66 526.349 1063.64 522.383 1065.61 518.963C1067.64 515.469 1070.37 512.813 1073.79 510.994C1077.29 509.102 1081.14 508.156 1085.37 508.156C1091.92 508.156 1097.05 510.157 1100.76 514.16C1104.54 518.162 1106.43 523.584 1106.43 530.425V532.499ZM1098.47 527.478C1098.47 523.329 1097.23 520.054 1094.75 517.653C1092.35 515.251 1089.22 514.05 1085.37 514.05C1081.58 514.05 1078.38 515.251 1075.76 517.653C1073.14 520.054 1071.57 523.329 1071.07 527.478H1098.47Z" fill="#32365C"/>
<path d="M366.348 546.472H374.863V496.584H366.348V490.798H418.856V509.465H411.979V496.584H383.814V517.216H402.372H406.957V523.438H402.372H383.814V546.472H392.329V552.258H366.348V546.472Z" fill="#32365C"/>
<path d="M447.129 553.568C442.544 553.568 438.505 552.622 435.011 550.729C431.518 548.837 428.789 546.181 426.824 542.76C424.932 539.267 423.986 535.265 423.986 530.752C423.986 526.24 424.932 522.274 426.824 518.854C428.789 515.433 431.518 512.813 435.011 510.994C438.505 509.102 442.544 508.155 447.129 508.155C451.713 508.155 455.752 509.102 459.246 510.994C462.812 512.813 465.577 515.433 467.542 518.854C469.507 522.274 470.49 526.204 470.49 530.643C470.49 535.155 469.507 539.158 467.542 542.651C465.577 546.145 462.812 548.837 459.246 550.729C455.752 552.622 451.713 553.568 447.129 553.568ZM447.129 547.236C451.641 547.236 455.279 545.744 458.045 542.76C460.81 539.704 462.193 535.665 462.193 530.643C462.193 525.767 460.81 521.874 458.045 518.963C455.279 515.979 451.641 514.487 447.129 514.487C442.616 514.487 439.014 515.979 436.321 518.963C433.629 521.947 432.282 525.876 432.282 530.752C432.282 535.701 433.629 539.704 436.321 542.76C439.087 545.744 442.689 547.236 447.129 547.236Z" fill="#32365C"/>
<path d="M504.285 508.81C507.051 508.81 509.962 509.538 513.018 510.994L511.053 518.308C508.579 516.707 506.068 515.906 503.521 515.906C500.61 515.906 498.172 517.107 496.207 519.509C494.315 521.837 493.369 525.076 493.369 529.224L493.26 546.472H500.901V552.258H476.994V546.472H485.291V515.142H476.994V509.356H493.26V517.216C495.588 511.612 499.264 508.81 504.285 508.81Z" fill="#32365C"/>
<path d="M537.006 552.258C528.71 552.258 524.562 548.037 524.562 539.595V515.142H517.466V509.356H524.562V494.728L532.64 491.563V509.356H543.993V515.142H532.64V539.158C532.64 541.851 533.076 543.743 533.95 544.835C534.823 545.926 536.315 546.472 538.425 546.472H544.975V552.258H537.006Z" fill="#32365C"/>
<path d="M579.229 508.81C581.994 508.81 584.905 509.538 587.962 510.994L585.997 518.308C583.522 516.707 581.012 515.906 578.465 515.906C575.554 515.906 573.116 517.107 571.151 519.509C569.258 521.837 568.312 525.076 568.312 529.224L568.203 546.472H575.845V552.258H551.938V546.472H560.234V515.142H551.938V509.356H568.203V517.216C570.532 511.612 574.207 508.81 579.229 508.81Z" fill="#32365C"/>
<path d="M638.367 546.472V552.258H624.504L624.067 548.437C621.738 550.184 619.409 551.457 617.08 552.258C614.752 553.058 612.132 553.458 609.221 553.458C604.854 553.458 601.288 552.258 598.523 549.856C595.83 547.382 594.484 544.325 594.484 540.686C594.484 536.029 596.048 532.645 599.178 530.534C602.38 528.351 606.564 527.259 611.731 527.259C615.443 527.259 619.409 527.732 623.63 528.678V524.203C623.63 520.928 622.721 518.453 620.901 516.779C619.155 515.106 616.68 514.269 613.478 514.269C611.367 514.269 608.93 514.633 606.164 515.36C603.471 516.015 600.997 516.961 598.741 518.199L596.339 512.959C598.741 511.43 601.506 510.266 604.636 509.465C607.838 508.665 610.822 508.265 613.587 508.265C619.191 508.265 623.594 509.647 626.796 512.413C629.998 515.106 631.599 518.781 631.599 523.438V546.472H638.367ZM602.125 540.25C602.125 542.506 602.853 544.361 604.308 545.817C605.837 547.2 607.874 547.891 610.421 547.891C614.715 547.891 619.118 546.326 623.63 543.197V533.372C619.773 532.499 615.989 532.062 612.277 532.062C609.366 532.062 606.928 532.717 604.963 534.027C603.071 535.264 602.125 537.339 602.125 540.25Z" fill="#32365C"/>
<path d="M696.23 546.472V552.258H673.197V546.472H680.292V524.093C680.292 521.11 679.564 518.781 678.109 517.107C676.653 515.433 674.652 514.596 672.105 514.596C669.994 514.596 667.848 514.996 665.664 515.797C663.554 516.525 661.225 517.653 658.678 519.181V546.472H666.428V552.258H642.412V546.472H650.709V515.142H642.412V509.356H658.678V513.614C664.354 510.048 669.521 508.265 674.179 508.265C678.255 508.265 681.602 509.538 684.222 512.085C686.915 514.56 688.261 518.053 688.261 522.565V546.472H696.23Z" fill="#32365C"/>
<path d="M903.192 546.472H911.27V495.383H903.41V489.707H919.348V529.333V531.189V546.472H926.335V552.258H903.192V546.472Z" fill="#32365C"/>
<path fill-rule="evenodd" clip-rule="evenodd" d="M919.346 531.18L940.415 552.249H952.968V546.463H944.453L927.642 529.87L919.341 529.871L919.346 531.18Z" fill="#32365C"/>
<path fill-rule="evenodd" clip-rule="evenodd" d="M919.346 528.56L940.238 509.34H952.791V515.125H944.276L927.642 529.87L919.341 529.869L919.346 528.56Z" fill="#32365C"/>
<path d="M1113.05 357.259L1125.88 260.089H1144.38L1146.99 270.241C1156.48 263.812 1166.7 258.82 1178.42 258.82C1184.59 258.82 1189.52 260.028 1193.2 262.446C1197.01 264.742 1200.06 268.368 1202.36 273.323C1211.36 265.33 1227.01 258.82 1239.37 258.82C1248.44 258.82 1255.02 260.874 1259.11 264.984C1263.32 268.972 1265.52 274.713 1265.7 282.206C1265.81 286.524 1265.63 291.01 1264.94 295.259L1256.68 357.259H1234.19L1242.46 295.803C1242.67 294.473 1242.75 293.023 1242.71 291.452C1242.51 283.112 1237.75 278.943 1228.44 278.943C1220.05 278.943 1209.19 283.925 1202.56 288.551C1202.9 291.29 1202.73 294.207 1202.22 296.89L1194.1 357.259H1171.79L1179.72 296.709C1179.94 295.621 1180.04 294.715 1180.02 293.99C1180.12 293.144 1180.16 292.237 1180.13 291.27C1180.04 287.403 1178.87 284.381 1176.64 282.206C1174.41 280.031 1170.88 278.943 1166.04 278.943C1157.9 278.943 1151.51 283.623 1144.88 287.826L1135.54 357.259H1113.05Z" fill="#4D41B1"/>
<path d="M1000.85 400.145L1019.22 263.272C1026.56 261.943 1033.97 260.916 1041.45 260.19C1048.93 259.344 1057.2 258.921 1066.27 258.921C1077.39 258.921 1085.51 261.762 1090.6 267.442C1095.82 273.122 1098.58 281.703 1098.86 293.185C1098.93 296.206 1098.83 299.349 1098.55 302.612C1098.27 305.875 1097.92 309.138 1097.52 312.401C1095.48 327.509 1090.68 338.93 1083.14 346.665C1075.59 354.4 1065.71 358.267 1053.5 358.267C1048.78 358.267 1044.42 357.905 1040.41 357.179C1036.4 356.454 1032.74 355.306 1029.44 353.735L1023.34 400.145H1000.85ZM1050.48 339.232C1058.22 339.232 1064.02 336.694 1067.89 331.618C1071.75 326.542 1074.46 318.625 1076.01 307.869C1076.21 306.298 1076.41 304.545 1076.6 302.612C1076.8 300.678 1076.87 298.805 1076.83 296.992C1076.66 290.345 1075.27 285.389 1072.65 282.126C1070.15 278.742 1066.17 277.05 1060.73 277.05L1039.7 277.231L1031.72 335.969C1035.13 337.056 1038.12 337.902 1040.67 338.507C1043.34 338.99 1046.61 339.232 1050.48 339.232Z" fill="#4D41B1"/>
<path d="M935.008 357.18L945.387 278.32H926.31L928.308 263.817L947.835 260.01L950.015 245.507C950.724 239.948 952.176 235.113 954.372 231.004C956.685 226.774 960.05 223.511 964.468 221.214C969.006 218.918 975.023 217.77 982.52 217.77C986.511 217.77 995.556 217.951 999.434 218.314C1003.31 218.556 1009.2 218.918 1011.99 219.402L1009.86 235.717H986.774C981.333 235.717 977.557 237.047 975.446 239.706C973.332 242.244 971.979 246.172 971.385 251.49L970.327 260.01H1001.19L998.745 278.32H967.878L957.318 357.18H935.008Z" fill="#4D41B1"/>
<path d="M698.387 337.86H764.732L756.958 398.469C756.835 399.427 756.019 400.145 755.053 400.145H691.852C691.081 400.145 690.485 399.468 690.583 398.703L698.387 337.86Z" fill="#4D41B1"/>
<path d="M767.175 266.855H708.119L700.131 329.14H766.475L773.536 274.094C769.556 274.048 766.714 270.824 767.175 266.855Z" fill="#4D41B1"/>
<path d="M849.579 266.855H791.385C790.551 271.475 786.387 274.141 782.712 274.094L775.694 329.14H839.947C840.914 329.14 841.73 328.421 841.852 327.462L849.579 266.855Z" fill="#4D41B1"/>
<path fill-rule="evenodd" clip-rule="evenodd" d="M784.372 195.849C752.754 195.446 716.929 218.387 709.759 258.133H768.395C769.229 253.514 773.393 250.847 777.068 250.894L784.372 195.849ZM793.212 195.846H857.7C858.471 195.846 859.067 196.523 858.97 197.288L851.213 258.131L792.561 258.131C793.022 254.159 790.177 250.935 786.195 250.891L793.212 195.846Z" fill="#4D41B1"/>
</svg>
