<svg width="563" height="682" viewBox="0 0 563 682" fill="none" xmlns="http://www.w3.org/2000/svg">
<path d="M26.086 474.08H247.559L221.608 676.406C221.198 679.604 218.475 682 215.251 682H4.27248C1.69784 682 -0.290517 679.74 0.0349645 677.187L26.086 474.08Z" fill="#8F61F6"/>
<path d="M255.717 237.05H58.5758L31.9072 444.97H253.381L276.949 261.217C263.665 261.062 254.178 250.301 255.717 237.05Z" fill="#6F58DF"/>
<path d="M530.797 237.05H336.533C333.749 252.472 319.85 261.374 307.582 261.217L284.155 444.97H498.645C501.871 444.97 504.595 442.572 505.003 439.371L530.797 237.05Z" fill="#6F58DF"/>
<path fill-rule="evenodd" clip-rule="evenodd" d="M313.124 0.0174438C207.574 -1.3283 87.9844 75.2537 64.0469 207.936H259.788C262.572 192.515 276.471 183.613 288.74 183.769L313.124 0.0174438ZM342.634 0.00805497H557.906C560.481 0.00805497 562.472 2.26765 562.146 4.82142L536.251 207.928L340.458 207.927C341.998 194.67 332.502 183.905 319.208 183.76L342.634 0.00805497Z" fill="#4E53D1"/>
</svg>
