<svg width="512" height="512" viewBox="0 0 512 512" fill="none" xmlns="http://www.w3.org/2000/svg">
<path fill-rule="evenodd" clip-rule="evenodd" d="M122.02 512H256H389.98C394.673 512 399.309 512 403.99 511.974C407.908 511.974 411.794 511.925 415.75 511.837C424.343 511.724 432.915 510.968 441.395 509.574C449.862 508.117 458.063 505.395 465.721 501.5C473.389 497.613 480.383 492.519 486.436 486.413C492.545 480.385 497.637 473.407 501.514 465.75C505.408 458.08 508.105 449.86 509.513 441.375C510.938 432.905 511.704 424.338 511.806 415.75C511.887 413.034 511.919 410.377 511.951 407.698C511.965 406.456 511.98 405.209 512 403.95V108.088C511.992 107.616 511.986 107.144 511.979 106.672C511.969 105.885 511.959 105.098 511.95 104.31V104.306C511.918 101.637 511.887 98.9658 511.806 96.3005C511.704 87.7122 510.938 79.1448 509.513 70.675C508.101 62.1943 505.404 53.979 501.514 46.3125C497.635 38.6306 492.544 31.6243 486.436 25.5625C480.36 19.4836 473.371 14.3933 465.721 10.4756C458.063 6.59082 449.861 3.88525 441.395 2.44995C432.917 1.04541 424.343 0.289307 415.75 0.188232L413.294 0.148193C412.097 0.128418 410.904 0.108643 409.712 0.0908203C407.804 0.0620117 405.901 0.0380859 403.99 0.0256348C401.701 0.0131836 399.423 0.00683594 397.144 0.00341797C394.761 0 392.378 0 389.98 0H256H122.02C117.327 0 112.691 0 108.01 0.0256348C104.893 0.0461426 101.795 0.097168 98.6672 0.148926L96.25 0.188232C87.6567 0.289307 79.0835 1.04541 70.605 2.44995C62.1387 3.88525 53.9373 6.59106 46.2786 10.4756C38.6292 14.3933 31.6399 19.4839 25.564 25.5625C19.4561 31.6243 14.3647 38.6306 10.4856 46.3125C6.59595 53.979 3.89868 62.1943 2.4873 70.675C1.06226 79.1448 0.295654 87.7124 0.193848 96.3005C0.0751953 100.225 0.0625 104.163 0 108.088V403.95C0.0195312 405.194 0.0339355 406.426 0.0483398 407.654L0.0490723 407.692C0.0810547 410.373 0.112793 413.032 0.193848 415.75C0.295654 424.338 1.06226 432.905 2.4873 441.375C3.89478 449.86 6.59204 458.08 10.4856 465.75C14.363 473.407 19.4551 480.385 25.564 486.413C31.6167 492.519 38.6108 497.613 46.2786 501.5C53.9373 505.395 62.1377 508.117 70.605 509.574C79.085 510.968 87.6572 511.724 96.25 511.837C100.206 511.925 104.092 511.974 108.01 511.974C109.029 511.98 110.046 511.984 111.061 511.988C114.712 512 118.349 512 122.02 512Z" fill="#F6F6F6"/>
<path fill-rule="evenodd" clip-rule="evenodd" d="M108.087 501H403.913C407.819 501 411.632 500.95 415.508 500.863C423.537 500.759 431.548 500.06 439.474 498.774C446.865 497.502 454.025 495.136 460.717 491.755C467.348 488.401 473.396 484.004 478.63 478.732C483.939 473.521 488.359 467.478 491.715 460.842C495.108 454.162 497.456 447.003 498.677 439.612C499.997 431.671 500.71 423.642 500.812 415.593C500.894 412.891 501 403.896 501 403.896V107.967C501 107.967 500.887 99.1095 500.812 96.5072C500.714 88.471 500.004 80.4538 498.689 72.5251C497.465 65.1145 495.115 57.9343 491.721 51.2329C488.377 44.6011 483.982 38.5536 478.705 33.3245C473.433 28.0458 467.366 23.626 460.723 20.2263C454.046 16.8557 446.9 14.5068 439.524 13.258C431.572 11.9587 423.533 11.2561 415.476 11.1564L403.906 11H108.094L96.5239 11.1564C88.4666 11.2561 80.428 11.9587 72.4758 13.258C65.0999 14.5068 57.9536 16.8557 51.2766 20.2263C44.6343 23.626 38.5667 28.0458 33.2954 33.3245C28.0183 38.5536 23.6228 44.6011 20.2791 51.2329C16.8845 57.9343 14.5347 65.1145 13.3108 72.5251C11.9956 80.4538 11.2861 88.471 11.1885 96.5072C11.1133 99.1095 11 107.967 11 107.967V403.896C11 403.896 11.033 406.687 11.0764 409.627C11.1108 411.965 11.1516 414.396 11.1877 415.593C11.2898 423.642 12.0034 431.671 13.3225 439.612C14.5442 447.003 16.8921 454.162 20.2852 460.842C23.6409 467.478 28.061 473.521 33.3701 478.732C38.6035 484.004 44.6519 488.401 51.2827 491.755C57.9753 495.136 65.135 497.502 72.5259 498.774C80.4521 500.06 88.4629 500.759 96.4924 500.863C100.368 500.95 104.181 501 108.087 501Z" fill="white"/>
<path fill-rule="evenodd" clip-rule="evenodd" d="M271.03 96.0082C221.505 95.3768 165.393 131.31 154.161 193.565H246.005C247.311 186.329 253.832 182.153 259.589 182.226L271.03 96.0082ZM284.876 96.0038H385.884C387.092 96.0038 388.026 97.064 387.873 98.2623L375.723 193.562L283.855 193.561C284.578 187.341 280.123 182.29 273.885 182.222L284.876 96.0038Z" fill="#4D41B1"/>
<path d="M244.095 207.226H151.595L139.082 304.784H242.999L254.057 218.565C247.824 218.492 243.373 213.443 244.095 207.226Z" fill="#4D41B1"/>
<path d="M373.165 207.226H282.014C280.708 214.462 274.187 218.639 268.43 218.565L257.438 304.784H358.079C359.593 304.784 360.87 303.659 361.062 302.157L373.165 207.226Z" fill="#4D41B1"/>
<path d="M136.35 318.442H240.267L228.091 413.375C227.898 414.876 226.621 416 225.108 416H126.115C124.907 416 123.974 414.94 124.127 413.742L136.35 318.442Z" fill="#4D41B1"/>
</svg>
