<?xml version="1.0" standalone="no"?>
<!DOCTYPE svg PUBLIC "-//W3C//DTD SVG 20010904//EN"
 "http://www.w3.org/TR/2001/REC-SVG-20010904/DTD/svg10.dtd">
<svg version="1.0" xmlns="http://www.w3.org/2000/svg"
 width="512.000000pt" height="512.000000pt" viewBox="0 0 512.000000 512.000000"
 preserveAspectRatio="xMidYMid meet">
<metadata>
Created by potrace 1.14, written by Peter Selinger 2001-2017
</metadata>
<g transform="translate(0.000000,512.000000) scale(0.100000,-0.100000)"
fill="#000000" stroke="none">
<path d="M849 5116 c-2 -2 -31 -6 -64 -10 -425 -44 -724 -344 -772 -772 -10
-87 -11 -3446 -1 -3534 10 -89 23 -156 43 -215 80 -237 250 -418 480 -511 181
-73 127 -72 2025 -72 962 0 1721 3 1755 8 33 5 80 12 105 16 64 8 176 47 246
85 172 93 298 229 371 402 42 99 51 140 72 302 5 39 9 811 9 1760 0 1800 0
1785 -48 1942 -94 305 -336 519 -655 578 -22 4 -51 10 -65 13 -29 5 -3495 14
-3501 8z"/>
</g>
</svg>
