<svg width="1920" height="682" viewBox="0 0 1920 682" fill="none" xmlns="http://www.w3.org/2000/svg">
<path d="M1410.32 538.839L1453.14 214.464H1514.9L1523.61 248.354C1555.29 226.892 1589.4 210.228 1628.55 210.228C1649.13 210.228 1665.58 214.262 1677.89 222.331C1690.6 229.997 1700.79 242.1 1708.46 258.642C1738.5 231.961 1790.73 210.228 1831.99 210.228C1862.27 210.228 1884.23 217.086 1897.89 230.804C1911.95 244.118 1919.28 263.281 1919.91 288.295C1920.26 302.711 1919.66 317.687 1917.35 331.868L1889.79 538.839H1814.71L1842.32 333.684C1843.01 329.246 1843.3 324.404 1843.17 319.16C1842.48 291.321 1826.59 277.402 1795.51 277.402C1767.51 277.402 1731.27 294.032 1709.12 309.477C1710.26 318.619 1709.69 328.358 1707.99 337.315L1680.89 538.839H1606.42L1632.89 336.71C1633.61 333.079 1633.94 330.053 1633.88 327.632C1634.21 324.808 1634.34 321.782 1634.26 318.554C1633.94 305.644 1630.06 295.558 1622.61 288.295C1615.17 281.033 1603.37 277.402 1587.22 277.402C1560.03 277.402 1538.7 293.027 1516.59 307.056L1485.4 538.839H1410.32Z" fill="#4D41B1"/>
<path d="M1035.76 682L1097.09 225.091C1121.6 220.653 1146.34 217.223 1171.31 214.803C1196.26 211.978 1223.88 210.566 1254.15 210.566C1291.29 210.566 1318.37 220.048 1335.39 239.01C1352.81 257.972 1362 286.617 1362.95 324.945C1363.2 335.031 1362.85 345.521 1361.91 356.414C1360.97 367.307 1359.83 378.201 1358.48 389.094C1351.66 439.525 1335.65 477.652 1310.46 503.472C1285.27 529.293 1252.28 542.204 1211.51 542.204C1195.77 542.204 1181.21 540.993 1167.83 538.573C1154.45 536.152 1142.24 532.319 1131.22 527.074L1110.84 682H1035.76ZM1201.46 478.66C1227.3 478.66 1246.66 470.188 1259.56 453.243C1272.46 436.298 1281.5 409.872 1286.66 373.964C1287.34 368.72 1288 362.869 1288.65 356.414C1289.3 349.959 1289.54 343.706 1289.39 337.654C1288.84 315.464 1284.2 298.922 1275.45 288.029C1267.1 276.733 1253.84 271.084 1235.67 271.084L1165.45 271.689L1138.83 467.767C1150.22 471.398 1160.18 474.222 1168.71 476.239C1177.63 477.853 1188.55 478.66 1201.46 478.66Z" fill="#4D41B1"/>
<path d="M815.98 538.576L850.627 275.324H786.943L793.615 226.909L858.8 214.201L866.076 165.787C868.442 147.228 873.289 131.09 880.619 117.372C888.342 103.252 899.576 92.3583 914.321 84.6927C929.47 77.0271 949.558 73.1943 974.585 73.1943C987.905 73.1943 1018.1 73.7995 1031.05 75.0099C1043.98 75.8168 1063.65 77.0271 1072.97 78.6409L1065.84 133.107H988.785C970.621 133.107 958.015 137.545 950.97 146.421C943.914 154.893 939.395 168.006 937.413 185.757L933.88 214.201H1036.92L1028.75 275.324H925.707L890.454 538.576H815.98Z" fill="#4D41B1"/>
<path d="M26.086 474.08H247.559L221.608 676.406C221.198 679.604 218.475 682 215.251 682H4.27248C1.69784 682 -0.290517 679.74 0.0349645 677.187L26.086 474.08Z" fill="#8F61F6"/>
<path d="M255.717 237.05H58.5758L31.9072 444.97H253.381L276.949 261.217C263.665 261.062 254.178 250.301 255.717 237.05Z" fill="#6F58DF"/>
<path d="M530.797 237.05H336.533C333.749 252.472 319.85 261.374 307.582 261.217L284.155 444.97H498.645C501.871 444.97 504.595 442.572 505.003 439.371L530.797 237.05Z" fill="#6F58DF"/>
<path fill-rule="evenodd" clip-rule="evenodd" d="M313.124 0.0174438C207.574 -1.3283 87.9844 75.2537 64.0469 207.936H259.788C262.572 192.515 276.471 183.613 288.74 183.769L313.124 0.0174438ZM342.634 0.00805497H557.906C560.481 0.00805497 562.472 2.26765 562.146 4.82142L536.251 207.928L340.458 207.927C341.998 194.67 332.502 183.905 319.208 183.76L342.634 0.00805497Z" fill="#4E53D1"/>
</svg>
