<svg width="563" height="683" viewBox="0 0 563 683" fill="none" xmlns="http://www.w3.org/2000/svg">
<path fill-rule="evenodd" clip-rule="evenodd" d="M313.437 0.167834C207.887 -1.17791 88.2973 75.4041 64.3599 208.087H260.101C262.885 192.665 276.784 183.763 289.053 183.92L313.437 0.167834ZM342.947 0.158446H558.219C560.794 0.158446 562.784 2.41804 562.459 4.97181L536.564 208.078L340.771 208.077C342.311 194.82 332.815 184.055 319.521 183.91L342.947 0.158446Z" fill="#4E53D1"/>
<path d="M256.031 237.201H58.8893L32.2207 445.121H253.694L277.262 261.368C263.978 261.212 254.491 250.452 256.031 237.201Z" fill="#6F58DF"/>
<path d="M531.111 237.201H336.846C334.063 252.622 320.163 261.524 307.895 261.368L284.469 445.121H498.958C502.185 445.121 504.908 442.722 505.316 439.522L531.111 237.201Z" fill="#6F58DF"/>
<path d="M26.3995 474.23H247.873L221.922 676.556C221.512 679.755 218.789 682.15 215.564 682.15H4.58596C2.01132 682.15 0.0229597 679.891 0.348441 677.337L26.3995 474.23Z" fill="#8F61F6"/>
</svg>
