<svg width="563" height="683" viewBox="0 0 563 683" fill="none" xmlns="http://www.w3.org/2000/svg">
<path fill-rule="evenodd" clip-rule="evenodd" d="M313.687 0.167834C208.137 -1.17791 88.5473 75.4041 64.6099 208.087H260.351C263.135 192.665 277.034 183.763 289.303 183.92L313.687 0.167834ZM343.197 0.158446H558.469C561.044 0.158446 563.034 2.41804 562.709 4.97181L536.814 208.078L341.021 208.077C342.561 194.82 333.065 184.055 319.771 183.91L343.197 0.158446Z" fill="#4E53D1"/>
<path d="M256.281 237.201H59.1393L32.4707 445.121H253.944L277.512 261.368C264.228 261.212 254.741 250.452 256.281 237.201Z" fill="#6F58DF"/>
<path d="M531.361 237.201H337.096C334.313 252.622 320.413 261.524 308.145 261.368L284.719 445.121H499.208C502.435 445.121 505.158 442.722 505.566 439.522L531.361 237.201Z" fill="#6F58DF"/>
<path d="M26.6495 474.23H248.123L222.172 676.556C221.762 679.755 219.039 682.15 215.814 682.15H4.83596C2.26132 682.15 0.27296 679.891 0.598441 677.337L26.6495 474.23Z" fill="#8F61F6"/>
</svg>
