<svg width="1134" height="610" viewBox="0 0 1134 610" fill="none" xmlns="http://www.w3.org/2000/svg">
<path d="M624.136 465.989L666.956 141.614H728.715L737.426 175.504C769.104 154.042 803.214 137.378 842.361 137.378C862.947 137.378 879.395 141.412 891.705 149.482C904.408 157.147 914.598 169.251 922.274 185.792C952.311 159.111 1004.54 137.378 1045.8 137.378C1076.08 137.378 1098.05 144.237 1111.71 157.954C1125.76 171.268 1133.1 190.432 1133.72 215.446C1134.07 229.862 1133.47 244.837 1131.16 259.019L1103.6 465.989H1028.52L1056.13 260.834C1056.83 256.396 1057.11 251.555 1056.98 246.31C1056.29 218.472 1040.4 204.553 1009.32 204.553C981.321 204.553 945.08 221.183 922.928 236.627C924.07 245.77 923.5 255.508 921.802 264.465L894.707 465.989H820.232L846.707 263.86C847.424 260.229 847.753 257.203 847.693 254.782C848.026 251.958 848.153 248.932 848.073 245.705C847.753 232.794 843.87 222.708 836.424 215.446C828.979 208.184 817.183 204.553 801.036 204.553C773.84 204.553 752.514 220.178 730.405 234.206L699.216 465.989H624.136Z" fill="#4D41B1"/>
<path d="M249.569 609.15L310.901 152.241C335.414 147.803 360.154 144.374 385.12 141.953C410.077 139.129 437.692 137.717 467.967 137.717C505.103 137.717 532.181 147.198 549.201 166.16C566.625 185.122 575.812 213.767 576.762 252.095C577.012 262.182 576.667 272.671 575.726 283.565C574.785 294.458 573.642 305.351 572.297 316.244C565.474 366.676 549.466 404.802 524.272 430.623C499.078 456.444 466.096 469.354 425.327 469.354C409.584 469.354 395.023 468.144 381.642 465.723C368.261 463.302 356.057 459.47 345.028 454.225L324.649 609.15H249.569ZM415.275 405.811C441.109 405.811 460.476 397.338 473.377 380.393C486.277 363.448 495.31 337.022 500.475 301.115C501.152 295.87 501.815 290.02 502.462 283.565C503.109 277.109 503.358 270.856 503.208 264.804C502.658 242.614 498.009 226.073 489.262 215.18C480.909 203.883 467.65 198.235 449.486 198.235L379.265 198.84L352.64 394.917C364.032 398.548 373.992 401.373 382.519 403.39C391.439 405.004 402.358 405.811 415.275 405.811Z" fill="#4D41B1"/>
<path d="M29.7922 465.726L64.4395 202.474H0.755859L7.42703 154.06L72.6121 141.351L79.8887 92.9369C82.2543 74.3781 87.1018 58.2401 94.4312 44.5227C102.154 30.4019 113.389 19.5087 128.134 11.8431C143.283 4.17752 163.371 0.344727 188.397 0.344727C201.718 0.344727 231.913 0.949909 244.86 2.16027C257.797 2.96717 277.458 4.17752 286.782 5.79133L279.656 60.2573H202.598C184.433 60.2573 171.828 64.6953 164.782 73.5713C157.726 82.0437 153.207 95.1559 151.226 112.908L147.692 141.351H250.732L242.56 202.474H139.52L104.267 465.726H29.7922Z" fill="#4D41B1"/>
</svg>
