<svg width="1134" height="610" viewBox="0 0 1134 610" fill="none" xmlns="http://www.w3.org/2000/svg">
<rect x="0.469727" y="0.0947266" width="1133.06" height="608.81" fill="white"/>
<path d="M623.386 465.989L666.206 141.614H727.965L736.676 175.504C768.354 154.042 802.464 137.378 841.611 137.378C862.197 137.378 878.645 141.412 890.955 149.482C903.658 157.147 913.848 169.251 921.524 185.792C951.561 159.111 1003.79 137.378 1045.05 137.378C1075.33 137.378 1097.3 144.237 1110.96 157.954C1125.01 171.268 1132.35 190.432 1132.97 215.446C1133.32 229.862 1132.72 244.837 1130.41 259.019L1102.85 465.989H1027.77L1055.38 260.834C1056.08 256.396 1056.36 251.555 1056.23 246.31C1055.54 218.472 1039.65 204.553 1008.57 204.553C980.571 204.553 944.33 221.183 922.178 236.627C923.32 245.77 922.75 255.508 921.052 264.465L893.957 465.989H819.482L845.957 263.86C846.674 260.229 847.003 257.203 846.943 254.782C847.276 251.958 847.403 248.932 847.323 245.705C847.003 232.794 843.12 222.708 835.674 215.446C828.229 208.184 816.433 204.553 800.286 204.553C773.09 204.553 751.764 220.178 729.655 234.206L698.466 465.989H623.386Z" fill="#4D41B1"/>
<path d="M248.818 609.15L310.15 152.241C334.663 147.803 359.403 144.374 384.37 141.953C409.327 139.129 436.942 137.717 467.216 137.717C504.353 137.717 531.431 147.198 548.451 166.16C565.875 185.122 575.062 213.767 576.012 252.095C576.262 262.182 575.916 272.671 574.975 283.565C574.034 294.458 572.892 305.351 571.547 316.244C564.724 366.676 548.715 404.802 523.521 430.623C498.328 456.444 465.346 469.354 424.577 469.354C408.834 469.354 394.272 468.144 380.892 465.723C367.511 463.302 355.306 459.47 344.278 454.225L323.899 609.15H248.818ZM414.525 405.811C440.359 405.811 459.726 397.338 472.627 380.393C485.527 363.448 494.56 337.022 499.725 301.115C500.402 295.87 501.064 290.02 501.712 283.565C502.359 277.109 502.607 270.856 502.457 264.804C501.907 242.614 497.259 226.073 488.512 215.18C480.159 203.883 466.9 198.235 448.736 198.235L378.514 198.84L351.89 394.917C363.282 398.548 373.242 401.373 381.768 403.39C390.689 405.004 401.608 405.811 414.525 405.811Z" fill="#4D41B1"/>
<path d="M29.0422 465.726L63.6895 202.474H0.00585938L6.67703 154.06L71.8621 141.351L79.1387 92.9369C81.5043 74.3781 86.3518 58.2401 93.6812 44.5227C101.404 30.4019 112.639 19.5087 127.384 11.8431C142.533 4.17752 162.621 0.344727 187.647 0.344727C200.968 0.344727 231.163 0.949909 244.11 2.16027C257.047 2.96717 276.708 4.17752 286.032 5.79133L278.906 60.2573H201.848C183.683 60.2573 171.078 64.6953 164.032 73.5713C156.976 82.0437 152.457 95.1559 150.476 112.908L146.942 141.351H249.982L241.81 202.474H138.77L103.517 465.726H29.0422Z" fill="#4D41B1"/>
</svg>
